SplineFontDB: 3.0
FontName: FdSymbolB-Regular
FullName: FdSymbolB-Regular
FamilyName: FdSymbolB
Weight: Regular
Copyright: Copyright (c) 2012, Michael Ummels. This Font Software is licensed under the SIL Open Font License, Version 1.1.
Version: 1.008
ItalicAngle: 0
UnderlinePosition: -100
UnderlineWidth: 50
Ascent: 800
Descent: 200
InvalidEm: 0
LayerCount: 2
Layer: 0 0 "Back" 1
Layer: 1 0 "Fore" 0
UniqueID: 4522108
OS2Version: 0
OS2_WeightWidthSlopeOnly: 0
OS2_UseTypoMetrics: 0
CreationTime: 1431873467
ModificationTime: 1431873468
OS2TypoAscent: 0
OS2TypoAOffset: 1
OS2TypoDescent: 0
OS2TypoDOffset: 1
OS2TypoLinegap: 0
OS2WinAscent: 0
OS2WinAOffset: 1
OS2WinDescent: 0
OS2WinDOffset: 1
HheadAscent: 0
HheadAOffset: 1
HheadDescent: 0
HheadDOffset: 1
OS2Vendor: 'PfEd'
DEI: 91125
Encoding: Custom
UnicodeInterp: none
NameList: AGL For New Fonts
DisplaySize: -48
AntiAlias: 1
FitToEm: 0
BeginPrivate: 2
BlueValues 31 [-10 0 546 556 707 717 754 764]
OtherBlues 11 [-230 -220]
EndPrivate
BeginChars: 256 236

StartChar: equal
Encoding: 0 61 0
Width: 660
Flags: W
HStem: 142 74<90 570> 334 74<90 570>
LayerCount: 2
Back
Fore
SplineSet
90 334 m 1
 90 408 l 1
 570 408 l 1
 570 334 l 1
 90 334 l 1
90 142 m 1
 90 216 l 1
 570 216 l 1
 570 142 l 1
 90 142 l 1
EndSplineSet
EndChar

StartChar: uni2261
Encoding: 1 8801 1
Width: 660
Flags: W
HStem: 46 74<90 570> 238 74<90 570> 430 74<90 570>
CounterMasks: 1 e0
LayerCount: 2
Back
Fore
SplineSet
90 430 m 1
 90 504 l 1
 570 504 l 1
 570 430 l 1
 90 430 l 1
90 238 m 1
 90 312 l 1
 570 312 l 1
 570 238 l 1
 90 238 l 1
90 46 m 1
 90 120 l 1
 570 120 l 1
 570 46 l 1
 90 46 l 1
EndSplineSet
EndChar

StartChar: similar
Encoding: 2 8764 2
Width: 660
Flags: W
HStem: 190 74<377.177 491.499> 286 74<168.501 282.823>
LayerCount: 2
Back
Fore
SplineSet
134 231 m 1
 90 275 l 1
 129 314 167 360 222 360 c 0
 272 360 316 335 354 303 c 0
 378 283 406 264 438 264 c 0
 474 264 501 293 526 319 c 1
 570 275 l 1
 531 236 493 190 438 190 c 0
 388 190 344 215 306 247 c 0
 282 267 254 286 222 286 c 0
 186 286 159 257 134 231 c 1
EndSplineSet
EndChar

StartChar: uni223D
Encoding: 3 8765 3
Width: 660
Flags: W
HStem: 190 74<168.501 282.823> 286 74<377.177 491.499>
LayerCount: 2
Back
Fore
SplineSet
526 231 m 1
 501 257 474 286 438 286 c 0
 406 286 378 267 354 247 c 0
 316 215 272 190 222 190 c 0
 167 190 129 236 90 275 c 1
 134 319 l 1
 159 293 186 264 222 264 c 0
 254 264 282 283 306 303 c 0
 344 335 388 360 438 360 c 0
 493 360 531 314 570 275 c 1
 526 231 l 1
EndSplineSet
EndChar

StartChar: approxequal
Encoding: 4 8776 4
Width: 660
Flags: W
HStem: 94 74<377.177 491.499> 190 74<168.501 282.203> 286 74<377.797 491.499> 382 74<168.501 282.823>
LayerCount: 2
Back
Fore
SplineSet
134 328 m 1
 90 371 l 1
 129 410 167 456 222 456 c 0
 272 456 316 431 354 400 c 0
 378 379 406 360 438 360 c 0
 474 360 501 389 526 415 c 1
 570 371 l 1
 531 332 493 286 438 286 c 0
 388 286 344 311 306 343 c 0
 282 363 254 382 222 382 c 0
 186 382 159 353 134 328 c 1
134 135 m 1
 90 179 l 1
 129 218 167 264 222 264 c 0
 272 264 316 239 354 207 c 0
 378 187 406 168 438 168 c 0
 474 168 501 197 526 222 c 1
 570 179 l 1
 531 140 493 94 438 94 c 0
 388 94 344 119 306 150 c 0
 282 171 254 190 222 190 c 0
 186 190 159 161 134 135 c 1
EndSplineSet
EndChar

StartChar: uni224B
Encoding: 5 8779 5
Width: 660
Flags: W
HStem: -3 74<377.797 491.499> 94 74<168.501 282.203> 190 74<377.177 491.499> 286 74<168.501 282.823> 382 74<377.797 491.499> 479 74<168.501 282.203>
LayerCount: 2
Back
Fore
SplineSet
134 424 m 1
 90 467 l 1
 129 506 167 553 222 553 c 0
 272 553 316 528 354 496 c 0
 378 475 406 456 438 456 c 0
 474 456 501 485 526 511 c 1
 570 467 l 1
 531 429 493 382 438 382 c 0
 388 382 344 407 306 439 c 0
 282 460 254 479 222 479 c 0
 186 479 159 450 134 424 c 1
134 231 m 1
 90 275 l 1
 129 314 167 360 222 360 c 0
 272 360 316 335 354 303 c 0
 378 283 406 264 438 264 c 0
 474 264 501 293 526 319 c 1
 570 275 l 1
 531 236 493 190 438 190 c 0
 388 190 344 215 306 247 c 0
 282 267 254 286 222 286 c 0
 186 286 159 257 134 231 c 1
134 39 m 1
 90 83 l 1
 129 121 167 168 222 168 c 0
 272 168 316 143 354 111 c 0
 378 90 406 71 438 71 c 0
 474 71 501 100 526 126 c 1
 570 83 l 1
 531 44 493 -3 438 -3 c 0
 388 -3 344 22 306 54 c 0
 282 75 254 94 222 94 c 0
 186 94 159 65 134 39 c 1
EndSplineSet
EndChar

StartChar: uni2243
Encoding: 6 8771 6
Width: 660
Flags: W
HStem: 142 74<90 570> 286 74<377.797 491.499> 382 74<168.501 282.823>
LayerCount: 2
Back
Fore
SplineSet
134 328 m 1
 90 371 l 1
 129 410 167 456 222 456 c 0
 272 456 316 431 354 400 c 0
 378 379 406 360 438 360 c 0
 474 360 501 389 526 415 c 1
 570 371 l 1
 531 332 493 286 438 286 c 0
 388 286 344 311 306 343 c 0
 282 363 254 382 222 382 c 0
 186 382 159 353 134 328 c 1
90 142 m 1
 90 216 l 1
 570 216 l 1
 570 142 l 1
 90 142 l 1
EndSplineSet
EndChar

StartChar: uni22CD
Encoding: 7 8909 7
Width: 660
Flags: W
HStem: 142 74<90 570> 286 74<168.501 282.203> 382 74<377.177 491.499>
LayerCount: 2
Back
Fore
SplineSet
526 328 m 1
 501 353 474 382 438 382 c 0
 406 382 378 363 354 343 c 0
 316 311 272 286 222 286 c 0
 167 286 129 332 90 371 c 1
 134 415 l 1
 159 389 186 360 222 360 c 0
 254 360 282 379 306 400 c 0
 344 431 388 456 438 456 c 0
 493 456 531 410 570 371 c 1
 526 328 l 1
570 216 m 1
 570 142 l 1
 90 142 l 1
 90 216 l 1
 570 216 l 1
EndSplineSet
EndChar

StartChar: uni2242
Encoding: 8 8770 8
Width: 660
Flags: W
HStem: 94 74<377.177 491.499> 190 74<168.501 282.203> 334 74<90 570>
LayerCount: 2
Back
Fore
SplineSet
90 334 m 1
 90 408 l 1
 570 408 l 1
 570 334 l 1
 90 334 l 1
134 135 m 1
 90 179 l 1
 129 218 167 264 222 264 c 0
 272 264 316 239 354 207 c 0
 378 187 406 168 438 168 c 0
 474 168 501 197 526 222 c 1
 570 179 l 1
 531 140 493 94 438 94 c 0
 388 94 344 119 306 150 c 0
 282 171 254 190 222 190 c 0
 186 190 159 161 134 135 c 1
EndSplineSet
EndChar

StartChar: congruent
Encoding: 9 8773 9
Width: 660
Flags: W
HStem: 46 74<90 570> 238 74<90 570> 382 74<377.797 491.499> 479 74<168.501 282.203>
LayerCount: 2
Back
Fore
SplineSet
134 424 m 1
 90 467 l 1
 129 506 167 553 222 553 c 0
 272 553 316 528 354 496 c 0
 378 475 406 456 438 456 c 0
 474 456 501 485 526 511 c 1
 570 467 l 1
 531 429 493 382 438 382 c 0
 388 382 344 407 306 439 c 0
 282 460 254 479 222 479 c 0
 186 479 159 450 134 424 c 1
90 238 m 1
 90 312 l 1
 570 312 l 1
 570 238 l 1
 90 238 l 1
90 46 m 1
 90 120 l 1
 570 120 l 1
 570 46 l 1
 90 46 l 1
EndSplineSet
EndChar

StartChar: uni224C
Encoding: 10 8780 10
Width: 660
Flags: W
HStem: 46 74<90 570> 238 74<90 570> 382 74<168.501 282.203> 479 74<377.797 491.499>
LayerCount: 2
Back
Fore
SplineSet
526 424 m 1
 501 450 474 479 438 479 c 0
 406 479 378 460 354 439 c 0
 316 407 272 382 222 382 c 0
 167 382 129 429 90 467 c 1
 134 511 l 1
 159 485 186 456 222 456 c 0
 254 456 282 475 306 496 c 0
 344 528 388 553 438 553 c 0
 493 553 531 506 570 467 c 1
 526 424 l 1
570 312 m 1
 570 238 l 1
 90 238 l 1
 90 312 l 1
 570 312 l 1
570 120 m 1
 570 46 l 1
 90 46 l 1
 90 120 l 1
 570 120 l 1
EndSplineSet
EndChar

StartChar: uni224A
Encoding: 11 8778 11
Width: 660
Flags: W
HStem: 46 74<90 570> 190 74<377.177 491.499> 286 74<168.501 282.823> 382 74<377.797 491.499> 479 74<168.501 282.203>
LayerCount: 2
Back
Fore
SplineSet
134 424 m 1
 90 467 l 1
 129 506 167 553 222 553 c 0
 272 553 316 528 354 496 c 0
 378 475 406 456 438 456 c 0
 474 456 501 485 526 511 c 1
 570 467 l 1
 531 429 493 382 438 382 c 0
 388 382 344 407 306 439 c 0
 282 460 254 479 222 479 c 0
 186 479 159 450 134 424 c 1
134 231 m 1
 90 275 l 1
 129 314 167 360 222 360 c 0
 272 360 316 335 354 303 c 0
 378 283 406 264 438 264 c 0
 474 264 501 293 526 319 c 1
 570 275 l 1
 531 236 493 190 438 190 c 0
 388 190 344 215 306 247 c 0
 282 267 254 286 222 286 c 0
 186 286 159 257 134 231 c 1
90 46 m 1
 90 120 l 1
 570 120 l 1
 570 46 l 1
 90 46 l 1
EndSplineSet
EndChar

StartChar: uni224F
Encoding: 12 8783 12
Width: 660
Flags: W
HStem: 142 74<90 570> 334 74<90 209.592 450.408 570> 430 74<284.157 375.843>
LayerCount: 2
Back
Fore
SplineSet
90 408 m 1
 202 408 l 1
 218 464 269 504 330 504 c 0
 391 504 442 464 458 408 c 1
 570 408 l 1
 570 334 l 1
 389 334 l 1
 389 371 l 2
 389 404 363 430 330 430 c 0
 297 430 271 404 271 371 c 2
 271 334 l 1
 90 334 l 1
 90 408 l 1
90 142 m 1
 90 216 l 1
 570 216 l 1
 570 142 l 1
 90 142 l 1
EndSplineSet
EndChar

StartChar: uni2AAE
Encoding: 13 10926 13
Width: 660
Flags: W
HStem: 46 74<90 570> 238 74<90 570> 430 74<90 209.592 450.408 570> 526 75<284.157 375.843>
LayerCount: 2
Back
Fore
SplineSet
90 504 m 1
 202 504 l 1
 218 560 269 601 330 601 c 0
 391 601 442 560 458 504 c 1
 570 504 l 1
 570 430 l 1
 389 430 l 1
 389 467 l 2
 389 500 363 526 330 526 c 0
 297 526 271 500 271 467 c 2
 271 430 l 1
 90 430 l 1
 90 504 l 1
90 238 m 1
 90 312 l 1
 570 312 l 1
 570 238 l 1
 90 238 l 1
90 46 m 1
 90 120 l 1
 570 120 l 1
 570 46 l 1
 90 46 l 1
EndSplineSet
EndChar

StartChar: uni224E
Encoding: 14 8782 14
Width: 660
Flags: W
HStem: 46 74<284.157 375.843> 142 74<90 209.592 450.408 570> 334 74<90 209.592 450.408 570> 430 74<284.157 375.843>
VStem: 90 181<142.399 216 334 407.601> 389 181<142.399 216 334 407.601>
LayerCount: 2
Back
Fore
SplineSet
90 408 m 1
 202 408 l 1
 218 464 269 504 330 504 c 0
 391 504 442 464 458 408 c 1
 570 408 l 1
 570 334 l 1
 389 334 l 1
 389 371 l 2
 389 404 363 430 330 430 c 0
 297 430 271 404 271 371 c 2
 271 334 l 1
 90 334 l 1
 90 408 l 1
90 142 m 1
 90 216 l 1
 271 216 l 1
 271 179 l 2
 271 146 297 120 330 120 c 0
 363 120 389 146 389 179 c 2
 389 216 l 1
 570 216 l 1
 570 142 l 1
 458 142 l 1
 442 86 391 46 330 46 c 0
 269 46 218 86 202 142 c 1
 90 142 l 1
EndSplineSet
EndChar

StartChar: uni2250
Encoding: 15 8784 15
Width: 660
Flags: W
HStem: 142 74<90 570> 334 74<90 570> 501 126<295.17 364.83>
VStem: 267 126<529.17 598.576>
LayerCount: 2
Back
Fore
SplineSet
90 334 m 1
 90 408 l 1
 570 408 l 1
 570 334 l 1
 90 334 l 1
90 142 m 1
 90 216 l 1
 570 216 l 1
 570 142 l 1
 90 142 l 1
393 564 m 0
 393 551 379 537 368 526 c 0
 357 515 343 501 330 501 c 0
 317 501 303 515 292 526 c 0
 281 537 267 551 267 564 c 0
 267 576 281 590 292 602 c 0
 303 613 317 627 330 627 c 0
 343 627 357 613 368 602 c 0
 379 590 393 576 393 564 c 0
EndSplineSet
EndChar

StartChar: uni2A66
Encoding: 16 10854 16
Width: 660
Flags: W
HStem: -77 126<295.17 364.83> 142 74<90 570> 334 74<90 570>
VStem: 267 126<-48.5756 20.8304>
LayerCount: 2
Back
Fore
SplineSet
90 334 m 1
 90 408 l 1
 570 408 l 1
 570 334 l 1
 90 334 l 1
90 142 m 1
 90 216 l 1
 570 216 l 1
 570 142 l 1
 90 142 l 1
393 -14 m 0
 393 -26 379 -40 368 -52 c 0
 357 -63 343 -77 330 -77 c 0
 317 -77 303 -63 292 -52 c 0
 281 -40 267 -26 267 -14 c 0
 267 -1 281 13 292 24 c 0
 303 35 317 49 330 49 c 0
 343 49 357 35 368 24 c 0
 379 13 393 -1 393 -14 c 0
EndSplineSet
EndChar

StartChar: uni2251
Encoding: 17 8785 17
Width: 660
Flags: W
HStem: -77 126<295.17 364.83> 142 74<90 570> 334 74<90 570> 501 126<295.17 364.83>
VStem: 267 126<-48.5756 20.8304 529.17 598.576>
LayerCount: 2
Back
Fore
SplineSet
90 334 m 1
 90 408 l 1
 570 408 l 1
 570 334 l 1
 90 334 l 1
90 142 m 1
 90 216 l 1
 570 216 l 1
 570 142 l 1
 90 142 l 1
393 564 m 0
 393 551 379 537 368 526 c 0
 357 515 343 501 330 501 c 0
 317 501 303 515 292 526 c 0
 281 537 267 551 267 564 c 0
 267 576 281 590 292 602 c 0
 303 613 317 627 330 627 c 0
 343 627 357 613 368 602 c 0
 379 590 393 576 393 564 c 0
393 -14 m 0
 393 -26 379 -40 368 -52 c 0
 357 -63 343 -77 330 -77 c 0
 317 -77 303 -63 292 -52 c 0
 281 -40 267 -26 267 -14 c 0
 267 -1 281 13 292 24 c 0
 303 35 317 49 330 49 c 0
 343 49 357 35 368 24 c 0
 379 13 393 -1 393 -14 c 0
EndSplineSet
EndChar

StartChar: uni2252
Encoding: 18 8786 18
Width: 660
Flags: W
HStem: -77 126<472.17 541.83> 142 74<90 570> 334 74<90 570> 501 126<118.17 187.83>
VStem: 90 126<529.17 598.576> 444 126<-48.5756 20.8304>
LayerCount: 2
Back
Fore
SplineSet
90 334 m 1
 90 408 l 1
 570 408 l 1
 570 334 l 1
 90 334 l 1
90 142 m 1
 90 216 l 1
 570 216 l 1
 570 142 l 1
 90 142 l 1
216 564 m 0
 216 551 202 537 191 526 c 0
 180 515 166 501 153 501 c 0
 140 501 126 515 115 526 c 0
 104 537 90 551 90 564 c 0
 90 576 104 590 115 602 c 0
 126 613 140 627 153 627 c 0
 166 627 180 613 191 602 c 0
 202 590 216 576 216 564 c 0
570 -14 m 0
 570 -26 556 -40 545 -52 c 0
 534 -63 520 -77 507 -77 c 0
 494 -77 480 -63 469 -52 c 0
 458 -40 444 -26 444 -14 c 0
 444 -1 458 13 469 24 c 0
 480 35 494 49 507 49 c 0
 520 49 534 35 545 24 c 0
 556 13 570 -1 570 -14 c 0
EndSplineSet
EndChar

StartChar: uni2253
Encoding: 19 8787 19
Width: 660
Flags: W
HStem: -77 126<118.17 187.83> 142 74<90 570> 334 74<90 570> 501 126<472.17 541.83>
VStem: 90 126<-48.5756 20.8304> 444 126<529.17 598.576>
LayerCount: 2
Back
Fore
SplineSet
570 408 m 1
 570 334 l 1
 90 334 l 1
 90 408 l 1
 570 408 l 1
570 216 m 1
 570 142 l 1
 90 142 l 1
 90 216 l 1
 570 216 l 1
570 564 m 0
 570 551 556 537 545 526 c 0
 534 515 520 501 507 501 c 0
 494 501 480 515 469 526 c 0
 458 537 444 551 444 564 c 0
 444 576 458 590 469 602 c 0
 480 613 494 627 507 627 c 0
 520 627 534 613 545 602 c 0
 556 590 570 576 570 564 c 0
216 -14 m 0
 216 -26 202 -40 191 -52 c 0
 180 -63 166 -77 153 -77 c 0
 140 -77 126 -63 115 -52 c 0
 104 -40 90 -26 90 -14 c 0
 90 -1 104 13 115 24 c 0
 126 35 140 49 153 49 c 0
 166 49 180 35 191 24 c 0
 202 13 216 -1 216 -14 c 0
EndSplineSet
EndChar

StartChar: uni2254
Encoding: 20 8788 20
Width: 883
Flags: W
HStem: 116 126<118.17 187.83> 142 74<313 793> 308 126<118.17 187.83> 334 74<313 793>
VStem: 90 126<144.17 213.576 336.424 405.83>
LayerCount: 2
Back
Fore
SplineSet
216 371 m 0x28
 216 359 202 345 191 333 c 0
 180 322 166 308 153 308 c 0
 140 308 126 322 115 333 c 0
 104 345 90 359 90 371 c 0
 90 384 104 398 115 409 c 0
 126 420 140 434 153 434 c 0
 166 434 180 420 191 409 c 0
 202 398 216 384 216 371 c 0x28
216 179 m 0
 216 166 202 152 191 141 c 0
 180 130 166 116 153 116 c 0
 140 116 126 130 115 141 c 0
 104 152 90 166 90 179 c 0
 90 191 104 205 115 217 c 0
 126 228 140 242 153 242 c 0x88
 166 242 180 228 191 217 c 0
 202 205 216 191 216 179 c 0
313 334 m 1x18
 313 408 l 1
 793 408 l 1
 793 334 l 1
 313 334 l 1x18
313 142 m 1x48
 313 216 l 1
 793 216 l 1
 793 142 l 1
 313 142 l 1x48
EndSplineSet
EndChar

StartChar: uni2255
Encoding: 21 8789 21
Width: 883
Flags: W
HStem: 116 126<695.17 764.83> 142 74<90 570> 308 126<695.17 764.83> 334 74<90 570>
VStem: 667 126<144.17 213.576 336.424 405.83>
LayerCount: 2
Back
Fore
SplineSet
793 371 m 0x28
 793 359 779 345 768 333 c 0
 757 322 743 308 730 308 c 0
 717 308 703 322 692 333 c 0
 681 345 667 359 667 371 c 0
 667 384 681 398 692 409 c 0
 703 420 717 434 730 434 c 0
 743 434 757 420 768 409 c 0
 779 398 793 384 793 371 c 0x28
793 179 m 0
 793 166 779 152 768 141 c 0
 757 130 743 116 730 116 c 0
 717 116 703 130 692 141 c 0
 681 152 667 166 667 179 c 0
 667 191 681 205 692 217 c 0
 703 228 717 242 730 242 c 0x88
 743 242 757 228 768 217 c 0
 779 205 793 191 793 179 c 0
570 408 m 1x18
 570 334 l 1
 90 334 l 1
 90 408 l 1
 570 408 l 1x18
570 216 m 1x48
 570 142 l 1
 90 142 l 1
 90 216 l 1
 570 216 l 1x48
EndSplineSet
EndChar

StartChar: uni2323
Encoding: 22 8995 22
Width: 660
Flags: W
HStem: 190 74<234.697 425.303>
LayerCount: 2
Back
Fore
SplineSet
142 349 m 1
 193 299 259 264 330 264 c 0
 401 264 467 299 518 349 c 1
 570 297 l 1
 506 232 421 190 330 190 c 0
 239 190 154 232 90 297 c 1
 142 349 l 1
EndSplineSet
EndChar

StartChar: uni2322
Encoding: 23 8994 23
Width: 660
Flags: W
HStem: 286 74<234.697 425.303>
LayerCount: 2
Back
Fore
SplineSet
142 201 m 1
 90 253 l 1
 154 318 239 360 330 360 c 0
 421 360 506 318 570 253 c 1
 518 201 l 1
 467 251 401 286 330 286 c 0
 259 286 193 251 142 201 c 1
EndSplineSet
EndChar

StartChar: uni224D
Encoding: 24 8781 24
Width: 660
Flags: W
HStem: 158 74<234.697 425.303> 318 74<234.697 425.303>
LayerCount: 2
Back
Fore
SplineSet
142 478 m 1
 193 427 259 392 330 392 c 0
 401 392 467 427 518 478 c 1
 570 425 l 1
 506 361 421 318 330 318 c 0
 239 318 154 361 90 425 c 1
 142 478 l 1
142 72 m 1
 90 125 l 1
 154 189 239 232 330 232 c 0
 421 232 506 189 570 125 c 1
 518 72 l 1
 467 123 401 158 330 158 c 0
 259 158 193 123 142 72 c 1
EndSplineSet
EndChar

StartChar: uni2050
Encoding: 25 8272 25
Width: 660
Flags: W
HStem: 62 74<233.198 426.802> 414 74<233.198 426.802>
LayerCount: 2
Back
Fore
SplineSet
142 329 m 1
 90 381 l 1
 154 446 239 488 330 488 c 0
 421 488 506 446 570 381 c 1
 518 329 l 1
 467 380 401 414 330 414 c 0
 259 414 193 380 142 329 c 1
142 221 m 1
 193 170 259 136 330 136 c 0
 401 136 467 170 518 221 c 1
 570 169 l 1
 506 104 421 62 330 62 c 0
 239 62 154 104 90 169 c 1
 142 221 l 1
EndSplineSet
EndChar

StartChar: sym020
Encoding: 26 -1 26
Width: 660
Flags: W
HStem: 46 74<90 570> 238 74<90 570> 382 74<234.697 425.303>
LayerCount: 2
Back
Fore
SplineSet
142 542 m 1
 193 491 259 456 330 456 c 0
 401 456 467 491 518 542 c 1
 570 489 l 1
 506 425 421 382 330 382 c 0
 239 382 154 425 90 489 c 1
 142 542 l 1
90 238 m 1
 90 312 l 1
 570 312 l 1
 570 238 l 1
 90 238 l 1
90 46 m 1
 90 120 l 1
 570 120 l 1
 570 46 l 1
 90 46 l 1
EndSplineSet
EndChar

StartChar: uni2258
Encoding: 27 8792 27
Width: 660
Flags: W
HStem: 46 74<90 570> 238 74<90 570> 479 74<234.697 425.303>
LayerCount: 2
Back
Fore
SplineSet
142 393 m 1
 90 446 l 1
 154 510 239 553 330 553 c 0
 421 553 506 510 570 446 c 1
 518 393 l 1
 467 444 401 479 330 479 c 0
 259 479 193 444 142 393 c 1
90 238 m 1
 90 312 l 1
 570 312 l 1
 570 238 l 1
 90 238 l 1
90 46 m 1
 90 120 l 1
 570 120 l 1
 570 46 l 1
 90 46 l 1
EndSplineSet
EndChar

StartChar: uni2256
Encoding: 28 8790 28
Width: 660
Flags: W
HStem: 142 81<287.515 372.485> 142 74<90 240 420 570> 327 81<287.515 372.485> 334 74<90 240 420 570>
VStem: 222 56<232.751 317.249> 382 56<232.751 317.249>
LayerCount: 2
Back
Fore
SplineSet
90 142 m 1x5c
 90 216 l 1
 240 216 l 1
 228 233 222 254 222 275 c 0
 222 296 228 317 240 334 c 1
 90 334 l 1
 90 408 l 1
 570 408 l 1
 570 334 l 1
 420 334 l 1
 432 317 438 296 438 275 c 0
 438 254 432 233 420 216 c 1
 570 216 l 1
 570 142 l 1
 90 142 l 1x5c
330 223 m 0xac
 359 223 382 246 382 275 c 0
 382 304 359 327 330 327 c 0
 301 327 278 304 278 275 c 0
 278 246 301 223 330 223 c 0xac
EndSplineSet
EndChar

StartChar: uni2257
Encoding: 29 8791 29
Width: 660
Flags: W
HStem: 142 74<90 570> 334 74<90 570> 504 55<289.604 370.396> 664 56<287.875 372.125>
VStem: 222 56<570.069 653.914> 382 56<570.069 653.914>
LayerCount: 2
Back
Fore
SplineSet
90 334 m 1
 90 408 l 1
 570 408 l 1
 570 334 l 1
 90 334 l 1
90 142 m 1
 90 216 l 1
 570 216 l 1
 570 142 l 1
 90 142 l 1
330 720 m 0
 389 720 438 670 438 612 c 0
 438 553 389 504 330 504 c 0
 271 504 222 553 222 612 c 0
 222 670 271 720 330 720 c 0
330 559 m 0
 358 559 382 584 382 612 c 0
 382 641 359 664 330 664 c 0
 301 664 278 641 278 612 c 0
 278 584 302 559 330 559 c 0
EndSplineSet
EndChar

StartChar: uni2259
Encoding: 30 8793 30
Width: 660
Flags: W
HStem: 142 74<90 570> 334 74<90 570> 736 20G<296.672 363.328>
LayerCount: 2
Back
Fore
SplineSet
90 334 m 1
 90 408 l 1
 570 408 l 1
 570 334 l 1
 90 334 l 1
90 142 m 1
 90 216 l 1
 570 216 l 1
 570 142 l 1
 90 142 l 1
535 512 m 1
 476 467 l 1
 330 658 l 1
 184 467 l 1
 125 512 l 1
 312 756 l 1
 348 756 l 1
 535 512 l 1
EndSplineSet
EndChar

StartChar: uni225A
Encoding: 31 8794 31
Width: 660
Flags: W
HStem: 142 74<90 570> 334 74<90 570> 736 20G<157.778 199.288 460.712 502.222>
LayerCount: 2
Back
Fore
SplineSet
90 334 m 1
 90 408 l 1
 570 408 l 1
 570 334 l 1
 90 334 l 1
90 142 m 1
 90 216 l 1
 570 216 l 1
 570 142 l 1
 90 142 l 1
125 711 m 1
 184 756 l 1
 330 565 l 1
 476 756 l 1
 535 711 l 1
 348 467 l 1
 312 467 l 1
 125 711 l 1
EndSplineSet
EndChar

StartChar: uni225B
Encoding: 32 8795 32
Width: 660
Flags: W
HStem: 142 74<90 570> 334 74<90 570>
LayerCount: 2
Back
Fore
SplineSet
90 334 m 1
 90 408 l 1
 570 408 l 1
 570 334 l 1
 90 334 l 1
90 142 m 1
 90 216 l 1
 570 216 l 1
 570 142 l 1
 90 142 l 1
330 788 m 1
 371 669 l 1
 497 666 l 1
 397 590 l 1
 433 470 l 1
 330 542 l 1
 227 470 l 1
 263 590 l 1
 163 666 l 1
 289 669 l 1
 330 788 l 1
EndSplineSet
EndChar

StartChar: uni225C
Encoding: 33 8796 33
Width: 660
Flags: W
HStem: 142 74<90 570> 334 74<90 570> 512 55<253 407>
LayerCount: 2
Back
Fore
SplineSet
90 334 m 1
 90 408 l 1
 570 408 l 1
 570 334 l 1
 90 334 l 1
90 142 m 1
 90 216 l 1
 570 216 l 1
 570 142 l 1
 90 142 l 1
330 812 m 1
 503 512 l 1
 157 512 l 1
 330 812 l 1
330 701 m 1
 253 567 l 1
 407 567 l 1
 330 701 l 1
EndSplineSet
EndChar

StartChar: element
Encoding: 34 8712 34
Width: 660
Flags: W
HStem: -3 74<252.54 570> 238 74<167 570> 479 74<252.54 570>
VStem: 90 77<169.969 238 312 380.031>
CounterMasks: 1 e0
LayerCount: 2
Back
Fore
SplineSet
570 479 m 1
 324 479 l 2
 239 479 180 402 167 312 c 1
 570 312 l 1
 570 238 l 1
 167 238 l 1
 180 148 239 71 324 71 c 2
 570 71 l 1
 570 -3 l 1
 324 -3 l 2
 186 -3 90 129 90 275 c 0
 90 421 186 553 324 553 c 2
 570 553 l 1
 570 479 l 1
EndSplineSet
EndChar

StartChar: uni220B
Encoding: 35 8715 35
Width: 660
Flags: W
HStem: -3 74<90 407.46> 238 74<90 493> 479 74<90 407.46>
VStem: 493 77<169.969 238 312 380.031>
CounterMasks: 1 e0
LayerCount: 2
Back
Fore
SplineSet
90 71 m 1
 336 71 l 2
 421 71 480 148 493 238 c 1
 90 238 l 1
 90 312 l 1
 493 312 l 1
 480 402 421 479 336 479 c 2
 90 479 l 1
 90 553 l 1
 336 553 l 2
 474 553 570 421 570 275 c 0
 570 129 474 -3 336 -3 c 2
 90 -3 l 1
 90 71 l 1
EndSplineSet
EndChar

StartChar: less
Encoding: 36 60 36
Width: 660
Flags: W
LayerCount: 2
Back
Fore
SplineSet
535 539 m 1
 570 474 l 1
 205 275 l 1
 570 76 l 1
 535 11 l 1
 90 253 l 1
 90 297 l 1
 535 539 l 1
EndSplineSet
EndChar

StartChar: greater
Encoding: 37 62 37
Width: 660
Flags: W
LayerCount: 2
Back
Fore
SplineSet
125 11 m 1
 90 76 l 1
 455 275 l 1
 90 474 l 1
 125 539 l 1
 570 297 l 1
 570 253 l 1
 125 11 l 1
EndSplineSet
EndChar

StartChar: lessequal
Encoding: 38 8804 38
Width: 660
Flags: W
HStem: -7 74<90 570> 528 20G<492.87 550.235>
LayerCount: 2
Back
Fore
SplineSet
542 548 m 1
 570 480 l 1
 225 339 l 1
 570 199 l 1
 542 130 l 1
 90 314 l 1
 90 364 l 1
 542 548 l 1
90 -7 m 1
 90 67 l 1
 570 67 l 1
 570 -7 l 1
 90 -7 l 1
EndSplineSet
EndChar

StartChar: greaterequal
Encoding: 39 8805 39
Width: 660
Flags: W
HStem: -7 74<90 570> 528 20G<109.765 167.13>
LayerCount: 2
Back
Fore
SplineSet
118 130 m 1
 90 199 l 1
 435 339 l 1
 90 480 l 1
 118 548 l 1
 570 364 l 1
 570 314 l 1
 118 130 l 1
570 67 m 1
 570 -7 l 1
 90 -7 l 1
 90 67 l 1
 570 67 l 1
EndSplineSet
EndChar

StartChar: uni2A7D
Encoding: 40 10877 40
Width: 660
Flags: W
LayerCount: 2
Back
Fore
SplineSet
542 580 m 1
 570 512 l 1
 225 371 l 1
 570 231 l 1
 542 162 l 1
 90 346 l 1
 90 396 l 1
 542 580 l 1
570 38 m 1
 542 -30 l 1
 90 154 l 1
 118 222 l 1
 570 38 l 1
EndSplineSet
EndChar

StartChar: uni2A7E
Encoding: 41 10878 41
Width: 660
Flags: W
LayerCount: 2
Back
Fore
SplineSet
118 162 m 1
 90 231 l 1
 435 371 l 1
 90 512 l 1
 118 580 l 1
 570 396 l 1
 570 346 l 1
 118 162 l 1
118 -30 m 1
 90 38 l 1
 542 222 l 1
 570 154 l 1
 118 -30 l 1
EndSplineSet
EndChar

StartChar: uni2266
Encoding: 42 8806 42
Width: 660
Flags: W
HStem: -103 74<90 570> 90 74<90 570>
LayerCount: 2
Back
Fore
SplineSet
542 644 m 1
 570 576 l 1
 225 435 l 1
 570 295 l 1
 542 226 l 1
 90 411 l 1
 90 460 l 1
 542 644 l 1
90 90 m 1
 90 164 l 1
 570 164 l 1
 570 90 l 1
 90 90 l 1
90 -103 m 1
 90 -29 l 1
 570 -29 l 1
 570 -103 l 1
 90 -103 l 1
EndSplineSet
EndChar

StartChar: uni2267
Encoding: 43 8807 43
Width: 660
Flags: W
HStem: -103 74<90 570> 90 74<90 570>
LayerCount: 2
Back
Fore
SplineSet
118 226 m 1
 90 295 l 1
 435 435 l 1
 90 576 l 1
 118 644 l 1
 570 460 l 1
 570 411 l 1
 118 226 l 1
570 164 m 1
 570 90 l 1
 90 90 l 1
 90 164 l 1
 570 164 l 1
570 -29 m 1
 570 -103 l 1
 90 -103 l 1
 90 -29 l 1
 570 -29 l 1
EndSplineSet
EndChar

StartChar: uni2272
Encoding: 44 8818 44
Width: 660
Flags: W
HStem: -39 74<377.797 491.499> 58 74<168.501 282.203>
LayerCount: 2
Back
Fore
SplineSet
542 580 m 1
 570 512 l 1
 225 371 l 1
 570 231 l 1
 542 162 l 1
 90 346 l 1
 90 396 l 1
 542 580 l 1
134 3 m 1
 90 46 l 1
 129 85 167 132 222 132 c 0
 272 132 316 106 354 75 c 0
 378 54 406 35 438 35 c 0
 474 35 501 64 526 90 c 1
 570 46 l 1
 531 7 493 -39 438 -39 c 0
 388 -39 344 -14 306 18 c 0
 282 39 254 58 222 58 c 0
 186 58 159 29 134 3 c 1
EndSplineSet
EndChar

StartChar: uni2273
Encoding: 45 8819 45
Width: 660
Flags: W
HStem: -39 74<377.797 491.499> 58 74<168.501 282.203>
LayerCount: 2
Back
Fore
SplineSet
118 162 m 1
 90 231 l 1
 435 371 l 1
 90 512 l 1
 118 580 l 1
 570 396 l 1
 570 346 l 1
 118 162 l 1
134 3 m 1
 90 46 l 1
 129 85 167 132 222 132 c 0
 272 132 316 106 354 75 c 0
 378 54 406 35 438 35 c 0
 474 35 501 64 526 90 c 1
 570 46 l 1
 531 7 493 -39 438 -39 c 0
 388 -39 344 -14 306 18 c 0
 282 39 254 58 222 58 c 0
 186 58 159 29 134 3 c 1
EndSplineSet
EndChar

StartChar: uni2A85
Encoding: 46 10885 46
Width: 660
Flags: W
HStem: -135 74<377.177 491.499> -39 74<168.501 282.823> -26 20G<513.5 546> 58 74<376.126 491.499> 154 74<168.501 282.203>
LayerCount: 2
Back
Fore
SplineSet
542 677 m 1x98
 570 608 l 1
 225 467 l 1
 570 327 l 1
 542 258 l 1
 90 443 l 1
 90 492 l 1
 542 677 l 1x98
134 99 m 1
 90 143 l 1
 129 182 167 228 222 228 c 0
 272 228 316 203 354 171 c 0
 378 150 406 132 438 132 c 0
 474 132 501 160 526 186 c 1
 570 143 l 1
 531 104 493 58 438 58 c 0
 388 58 344 83 306 114 c 0
 282 135 254 154 222 154 c 0
 186 154 159 125 134 99 c 1
134 -93 m 1
 90 -50 l 1
 129 -11 167 35 222 35 c 0xd8
 272 35 316 10 354 -22 c 0
 378 -42 406 -61 438 -61 c 0
 474 -61 501 -32 526 -6 c 1xb8
 570 -50 l 1
 531 -89 493 -135 438 -135 c 0
 388 -135 344 -110 306 -78 c 0
 282 -58 254 -39 222 -39 c 0xd8
 186 -39 159 -68 134 -93 c 1
EndSplineSet
EndChar

StartChar: uni2A86
Encoding: 47 10886 47
Width: 660
Flags: W
HStem: -135 74<377.177 491.499> -39 74<168.501 282.823> -26 20G<513.5 546> 58 74<376.126 491.499> 154 74<168.501 282.203>
LayerCount: 2
Back
Fore
SplineSet
118 258 m 1x98
 90 327 l 1
 435 467 l 1
 90 608 l 1
 118 677 l 1
 570 492 l 1
 570 443 l 1
 118 258 l 1x98
134 99 m 1
 90 143 l 1
 129 182 167 228 222 228 c 0
 272 228 316 203 354 171 c 0
 378 150 406 132 438 132 c 0
 474 132 501 160 526 186 c 1
 570 143 l 1
 531 104 493 58 438 58 c 0
 388 58 344 83 306 114 c 0
 282 135 254 154 222 154 c 0
 186 154 159 125 134 99 c 1
134 -93 m 1
 90 -50 l 1
 129 -11 167 35 222 35 c 0xd8
 272 35 316 10 354 -22 c 0
 378 -42 406 -61 438 -61 c 0
 474 -61 501 -32 526 -6 c 1xb8
 570 -50 l 1
 531 -89 493 -135 438 -135 c 0
 388 -135 344 -110 306 -78 c 0
 282 -58 254 -39 222 -39 c 0xd8
 186 -39 159 -68 134 -93 c 1
EndSplineSet
EndChar

StartChar: uni2276
Encoding: 48 8822 48
Width: 660
Flags: W
LayerCount: 2
Back
Fore
SplineSet
542 671 m 1
 570 602 l 1
 225 461 l 1
 570 321 l 1
 542 252 l 1
 90 437 l 1
 90 486 l 1
 542 671 l 1
118 -121 m 1
 90 -52 l 1
 435 89 l 1
 90 229 l 1
 118 298 l 1
 570 113 l 1
 570 64 l 1
 118 -121 l 1
EndSplineSet
EndChar

StartChar: uni2277
Encoding: 49 8823 49
Width: 660
Flags: W
LayerCount: 2
Back
Fore
SplineSet
118 252 m 1
 90 321 l 1
 435 461 l 1
 90 602 l 1
 118 671 l 1
 570 486 l 1
 570 437 l 1
 118 252 l 1
542 298 m 1
 570 229 l 1
 225 89 l 1
 570 -52 l 1
 542 -121 l 1
 90 64 l 1
 90 113 l 1
 542 298 l 1
EndSplineSet
EndChar

StartChar: uni22DA
Encoding: 50 8922 50
Width: 660
Flags: W
HStem: 238 74<90 570>
LayerCount: 2
Back
Fore
SplineSet
542 793 m 1
 570 724 l 1
 225 584 l 1
 570 443 l 1
 542 375 l 1
 90 559 l 1
 90 609 l 1
 542 793 l 1
118 -243 m 1
 90 -174 l 1
 435 -34 l 1
 90 107 l 1
 118 175 l 1
 570 -9 l 1
 570 -59 l 1
 118 -243 l 1
90 238 m 1
 90 312 l 1
 570 312 l 1
 570 238 l 1
 90 238 l 1
EndSplineSet
EndChar

StartChar: uni22DB
Encoding: 51 8923 51
Width: 660
Flags: W
HStem: 238 74<90 570>
LayerCount: 2
Back
Fore
SplineSet
118 375 m 1
 90 443 l 1
 435 584 l 1
 90 724 l 1
 118 793 l 1
 570 609 l 1
 570 559 l 1
 118 375 l 1
542 175 m 1
 570 107 l 1
 225 -34 l 1
 570 -174 l 1
 542 -243 l 1
 90 -59 l 1
 90 -9 l 1
 542 175 l 1
570 312 m 1
 570 238 l 1
 90 238 l 1
 90 312 l 1
 570 312 l 1
EndSplineSet
EndChar

StartChar: uni2A8B
Encoding: 52 10891 52
Width: 660
Flags: W
HStem: 142 74<90 570> 334 74<90 570>
LayerCount: 2
Back
Fore
SplineSet
542 889 m 1
 570 821 l 1
 225 680 l 1
 570 540 l 1
 542 471 l 1
 90 655 l 1
 90 705 l 1
 542 889 l 1
118 -339 m 1
 90 -271 l 1
 435 -130 l 1
 90 10 l 1
 118 79 l 1
 570 -105 l 1
 570 -155 l 1
 118 -339 l 1
90 334 m 1
 90 408 l 1
 570 408 l 1
 570 334 l 1
 90 334 l 1
90 142 m 1
 90 216 l 1
 570 216 l 1
 570 142 l 1
 90 142 l 1
EndSplineSet
EndChar

StartChar: uni2A8C
Encoding: 53 10892 53
Width: 660
Flags: W
HStem: 142 74<90 570> 334 74<90 570>
LayerCount: 2
Back
Fore
SplineSet
118 471 m 1
 90 540 l 1
 435 680 l 1
 90 821 l 1
 118 889 l 1
 570 705 l 1
 570 655 l 1
 118 471 l 1
542 79 m 1
 570 10 l 1
 225 -130 l 1
 570 -271 l 1
 542 -339 l 1
 90 -155 l 1
 90 -105 l 1
 542 79 l 1
570 408 m 1
 570 334 l 1
 90 334 l 1
 90 408 l 1
 570 408 l 1
570 216 m 1
 570 142 l 1
 90 142 l 1
 90 216 l 1
 570 216 l 1
EndSplineSet
EndChar

StartChar: uni22DA.alt
Encoding: 54 -1 54
Width: 660
Flags: W
LayerCount: 2
Back
Fore
SplineSet
542 767 m 1
 570 698 l 1
 225 558 l 1
 570 417 l 1
 542 349 l 1
 90 533 l 1
 90 583 l 1
 542 767 l 1
118 -217 m 1
 90 -148 l 1
 435 -8 l 1
 90 133 l 1
 118 201 l 1
 570 17 l 1
 570 -33 l 1
 118 -217 l 1
570 217 m 1
 542 149 l 1
 90 333 l 1
 118 401 l 1
 570 217 l 1
EndSplineSet
EndChar

StartChar: uni22DB.alt
Encoding: 55 -1 55
Width: 660
Flags: W
LayerCount: 2
Back
Fore
SplineSet
118 349 m 1
 90 417 l 1
 435 558 l 1
 90 698 l 1
 118 767 l 1
 570 583 l 1
 570 533 l 1
 118 349 l 1
542 201 m 1
 570 133 l 1
 225 -8 l 1
 570 -148 l 1
 542 -217 l 1
 90 -33 l 1
 90 17 l 1
 542 201 l 1
118 149 m 1
 90 217 l 1
 542 401 l 1
 570 333 l 1
 118 149 l 1
EndSplineSet
EndChar

StartChar: uni226A
Encoding: 56 8810 56
Width: 1119
Flags: W
LayerCount: 2
Back
Fore
SplineSet
613 542 m 1
 644 475 l 1
 215 275 l 1
 644 75 l 1
 613 8 l 1
 90 251 l 1
 90 299 l 1
 613 542 l 1
998 542 m 1
 1029 475 l 1
 600 275 l 1
 1029 75 l 1
 998 8 l 1
 475 251 l 1
 475 299 l 1
 998 542 l 1
EndSplineSet
EndChar

StartChar: uni226B
Encoding: 57 8811 57
Width: 1119
Flags: W
LayerCount: 2
Back
Fore
SplineSet
506 8 m 1
 475 75 l 1
 904 275 l 1
 475 475 l 1
 506 542 l 1
 1029 299 l 1
 1029 251 l 1
 506 8 l 1
121 8 m 1
 90 75 l 1
 519 275 l 1
 90 475 l 1
 121 542 l 1
 644 299 l 1
 644 251 l 1
 121 8 l 1
EndSplineSet
EndChar

StartChar: uni22D8
Encoding: 58 8920 58
Width: 1504
Flags: W
LayerCount: 2
Back
Fore
SplineSet
613 542 m 1
 644 475 l 1
 215 275 l 1
 644 75 l 1
 613 8 l 1
 90 251 l 1
 90 299 l 1
 613 542 l 1
998 542 m 1
 1029 475 l 1
 600 275 l 1
 1029 75 l 1
 998 8 l 1
 475 251 l 1
 475 299 l 1
 998 542 l 1
1383 542 m 1
 1414 475 l 1
 985 275 l 1
 1414 75 l 1
 1383 8 l 1
 860 251 l 1
 860 299 l 1
 1383 542 l 1
EndSplineSet
EndChar

StartChar: uni22D9
Encoding: 59 8921 59
Width: 1504
Flags: W
LayerCount: 2
Back
Fore
SplineSet
891 8 m 1
 860 75 l 1
 1289 275 l 1
 860 475 l 1
 891 542 l 1
 1414 299 l 1
 1414 251 l 1
 891 8 l 1
506 8 m 1
 475 75 l 1
 904 275 l 1
 475 475 l 1
 506 542 l 1
 1029 299 l 1
 1029 251 l 1
 506 8 l 1
121 8 m 1
 90 75 l 1
 519 275 l 1
 90 475 l 1
 121 542 l 1
 644 299 l 1
 644 251 l 1
 121 8 l 1
EndSplineSet
EndChar

StartChar: uni22B2
Encoding: 60 8882 60
Width: 660
Flags: W
VStem: 496 74<116 434>
LayerCount: 2
Back
Fore
SplineSet
496 116 m 1
 496 434 l 1
 205 275 l 1
 496 116 l 1
496 518 m 1
 535 539 l 1
 570 518 l 1
 570 32 l 1
 535 11 l 1
 496 32 l 1
 90 253 l 1
 90 297 l 1
 496 518 l 1
EndSplineSet
EndChar

StartChar: uni22B3
Encoding: 61 8883 61
Width: 660
Flags: W
VStem: 90 74<116 434>
LayerCount: 2
Back
Fore
SplineSet
164 434 m 1
 164 116 l 1
 455 275 l 1
 164 434 l 1
164 32 m 1
 125 11 l 1
 90 32 l 1
 90 518 l 1
 125 539 l 1
 164 518 l 1
 570 297 l 1
 570 253 l 1
 164 32 l 1
EndSplineSet
EndChar

StartChar: uni22B4
Encoding: 62 8884 62
Width: 660
Flags: W
HStem: -7 74<90 570> 528 20G<492.87 570>
VStem: 496 74<229 450>
LayerCount: 2
Back
Fore
SplineSet
496 229 m 1
 496 450 l 1
 225 339 l 1
 496 229 l 1
542 130 m 1
 90 314 l 1
 90 364 l 1
 542 548 l 1
 570 529 l 1
 570 149 l 1
 542 130 l 1
90 -7 m 1
 90 67 l 1
 570 67 l 1
 570 -7 l 1
 90 -7 l 1
EndSplineSet
EndChar

StartChar: uni22B5
Encoding: 63 8885 63
Width: 660
Flags: W
HStem: -7 74<90 570> 528 20G<90 167.13>
VStem: 90 74<229 450>
LayerCount: 2
Back
Fore
SplineSet
164 450 m 1
 164 229 l 1
 435 339 l 1
 164 450 l 1
118 548 m 1
 570 364 l 1
 570 314 l 1
 118 130 l 1
 90 149 l 1
 90 529 l 1
 118 548 l 1
570 67 m 1
 570 -7 l 1
 90 -7 l 1
 90 67 l 1
 570 67 l 1
EndSplineSet
EndChar

StartChar: uni2AA6
Encoding: 64 10918 64
Width: 717
Flags: W
VStem: 546 74<154.049 395.951>
LayerCount: 2
Back
Fore
SplineSet
505 112 m 1
 533 163 546 219 546 275 c 0
 546 331 533 387 505 438 c 1
 205 275 l 1
 505 112 l 1
570 76 m 2
 535 11 l 1
 90 253 l 1
 90 297 l 1
 535 539 l 1
 570 474 l 2
 604 412 620 343 620 275 c 0
 620 207 604 138 570 76 c 2
EndSplineSet
EndChar

StartChar: uni2AA7
Encoding: 65 10919 65
Width: 717
Flags: W
VStem: 96 74<158.237 391.763>
LayerCount: 2
Back
Fore
SplineSet
212 438 m 1
 185 386 170 332 170 275 c 0
 170 218 185 164 212 112 c 1
 512 275 l 1
 212 438 l 1
164 506 m 1
 182 539 l 1
 627 297 l 1
 627 253 l 1
 182 11 l 1
 164 44 l 1
 147 76 l 2
 113 138 96 207 96 275 c 0
 96 343 113 412 147 474 c 2
 164 506 l 1
EndSplineSet
EndChar

StartChar: uni2AA8
Encoding: 66 10920 66
Width: 698
Flags: W
VStem: 516 74<259.941 482.059>
LayerCount: 2
Back
Fore
SplineSet
500 259 m 1
 511 296 516 333 516 371 c 0
 516 409 511 446 500 483 c 1
 225 371 l 1
 500 259 l 1
561 209 m 2
 559 205 558 200 556 196 c 1
 542 162 l 1
 90 346 l 1
 90 396 l 1
 542 580 l 1
 551 557 561 535 570 512 c 1
 569 511 l 1
 584 465 590 418 590 371 c 0
 590 324 583 277 569 231 c 1
 570 231 l 1
 561 209 l 2
570 38 m 1
 542 -30 l 1
 90 154 l 1
 118 222 l 1
 570 38 l 1
EndSplineSet
EndChar

StartChar: uni2AA9
Encoding: 67 10921 67
Width: 698
Flags: W
VStem: 108 74<260.887 482.082>
LayerCount: 2
Back
Fore
SplineSet
199 483 m 1
 188 447 182 409 182 371 c 0
 182 333 188 297 199 260 c 1
 473 371 l 1
 199 483 l 1
128 512 m 1
 137 535 147 557 156 580 c 1
 608 396 l 1
 608 346 l 1
 156 162 l 1
 142 196 l 1
 141 199 139 203 138 206 c 2
 128 231 l 1
 129 232 l 1
 115 278 108 324 108 371 c 0
 108 418 116 465 130 511 c 1
 128 512 l 1
156 -30 m 1
 128 38 l 1
 581 222 l 1
 608 154 l 1
 156 -30 l 1
EndSplineSet
EndChar

StartChar: uni228F
Encoding: 68 8847 68
Width: 660
Flags: W
HStem: -3 74<164 570> 479 74<164 570>
VStem: 90 74<71 479>
LayerCount: 2
Back
Fore
SplineSet
164 71 m 1
 570 71 l 1
 570 -3 l 1
 90 -3 l 1
 90 553 l 1
 570 553 l 1
 570 479 l 1
 164 479 l 1
 164 71 l 1
EndSplineSet
EndChar

StartChar: uni2290
Encoding: 69 8848 69
Width: 660
Flags: W
HStem: -3 74<90 496> 479 74<90 496>
VStem: 496 74<71 479>
LayerCount: 2
Back
Fore
SplineSet
496 71 m 1
 496 479 l 1
 90 479 l 1
 90 553 l 1
 570 553 l 1
 570 -3 l 1
 90 -3 l 1
 90 71 l 1
 496 71 l 1
EndSplineSet
EndChar

StartChar: uni2291
Encoding: 70 8849 70
Width: 660
Flags: W
HStem: -39 74<90 570> 154 74<164 570> 515 74<164 570>
VStem: 90 74<228 515>
LayerCount: 2
Back
Fore
SplineSet
164 228 m 1
 570 228 l 1
 570 154 l 1
 90 154 l 1
 90 589 l 1
 570 589 l 1
 570 515 l 1
 164 515 l 1
 164 228 l 1
90 -39 m 1
 90 35 l 1
 570 35 l 1
 570 -39 l 1
 90 -39 l 1
EndSplineSet
EndChar

StartChar: uni2292
Encoding: 71 8850 71
Width: 660
Flags: W
HStem: -39 74<90 570> 154 74<90 496> 515 74<90 496>
VStem: 496 74<228 515>
LayerCount: 2
Back
Fore
SplineSet
496 228 m 1
 496 515 l 1
 90 515 l 1
 90 589 l 1
 570 589 l 1
 570 154 l 1
 90 154 l 1
 90 228 l 1
 496 228 l 1
570 35 m 1
 570 -39 l 1
 90 -39 l 1
 90 35 l 1
 570 35 l 1
EndSplineSet
EndChar

StartChar: sym021
Encoding: 72 -1 72
Width: 660
Flags: W
HStem: -135 74<90 570> 58 74<90 570> 250 74<164 570> 611 74<164 570>
VStem: 90 74<324 611>
LayerCount: 2
Back
Fore
SplineSet
164 324 m 1
 570 324 l 1
 570 250 l 1
 90 250 l 1
 90 685 l 1
 570 685 l 1
 570 611 l 1
 164 611 l 1
 164 324 l 1
90 58 m 1
 90 132 l 1
 570 132 l 1
 570 58 l 1
 90 58 l 1
90 -135 m 1
 90 -61 l 1
 570 -61 l 1
 570 -135 l 1
 90 -135 l 1
EndSplineSet
EndChar

StartChar: sym022
Encoding: 73 -1 73
Width: 660
Flags: W
HStem: -135 74<90 570> 58 74<90 570> 250 74<90 496> 611 74<90 496>
VStem: 496 74<324 611>
LayerCount: 2
Back
Fore
SplineSet
496 324 m 1
 496 611 l 1
 90 611 l 1
 90 685 l 1
 570 685 l 1
 570 250 l 1
 90 250 l 1
 90 324 l 1
 496 324 l 1
570 132 m 1
 570 58 l 1
 90 58 l 1
 90 132 l 1
 570 132 l 1
570 -61 m 1
 570 -135 l 1
 90 -135 l 1
 90 -61 l 1
 570 -61 l 1
EndSplineSet
EndChar

StartChar: sym023
Encoding: 74 -1 74
Width: 660
Flags: W
HStem: -3 74<164 570> 142 74<308 570> 334 74<308 570> 479 74<164 570>
VStem: 90 74<71 479> 234 74<216 334>
LayerCount: 2
Back
Fore
SplineSet
164 71 m 1
 570 71 l 1
 570 -3 l 1
 90 -3 l 1
 90 553 l 1
 570 553 l 1
 570 479 l 1
 164 479 l 1
 164 71 l 1
308 216 m 1
 570 216 l 1
 570 142 l 1
 234 142 l 1
 234 408 l 1
 570 408 l 1
 570 334 l 1
 308 334 l 1
 308 216 l 1
EndSplineSet
EndChar

StartChar: sym024
Encoding: 75 -1 75
Width: 660
Flags: W
HStem: -3 74<90 496> 142 74<90 352> 334 74<90 352> 479 74<90 496>
VStem: 352 74<216 334> 496 74<71 479>
LayerCount: 2
Back
Fore
SplineSet
496 71 m 1
 496 479 l 1
 90 479 l 1
 90 553 l 1
 570 553 l 1
 570 -3 l 1
 90 -3 l 1
 90 71 l 1
 496 71 l 1
352 216 m 1
 352 334 l 1
 90 334 l 1
 90 408 l 1
 426 408 l 1
 426 142 l 1
 90 142 l 1
 90 216 l 1
 352 216 l 1
EndSplineSet
EndChar

StartChar: propersubset
Encoding: 76 8834 76
Width: 660
Flags: W
HStem: -3 74<251.161 570> 479 74<251.161 570>
VStem: 90 74<174.397 375.603>
LayerCount: 2
Back
Fore
SplineSet
570 479 m 1
 324 479 l 2
 227 479 164 380 164 275 c 0
 164 170 227 71 324 71 c 2
 570 71 l 1
 570 -3 l 1
 324 -3 l 2
 186 -3 90 129 90 275 c 0
 90 421 186 553 324 553 c 2
 570 553 l 1
 570 479 l 1
EndSplineSet
EndChar

StartChar: propersuperset
Encoding: 77 8835 77
Width: 660
Flags: W
HStem: -3 74<90 408.839> 479 74<90 408.839>
VStem: 496 74<174.397 375.603>
LayerCount: 2
Back
Fore
SplineSet
90 71 m 1
 336 71 l 2
 433 71 496 170 496 275 c 0
 496 380 433 479 336 479 c 2
 90 479 l 1
 90 553 l 1
 336 553 l 2
 474 553 570 421 570 275 c 0
 570 129 474 -3 336 -3 c 2
 90 -3 l 1
 90 71 l 1
EndSplineSet
EndChar

StartChar: reflexsubset
Encoding: 78 8838 78
Width: 660
Flags: W
HStem: -39 74<90 570> 154 74<217.451 570> 515 74<217.451 570>
VStem: 90 74<284.514 455.572>
LayerCount: 2
Back
Fore
SplineSet
570 515 m 1
 275 515 l 2
 207 515 164 445 164 371 c 0
 164 297 207 228 275 228 c 2
 570 228 l 1
 570 154 l 1
 275 154 l 2
 166 154 90 257 90 371 c 0
 90 486 166 589 275 589 c 2
 570 589 l 1
 570 515 l 1
90 -39 m 1
 90 35 l 1
 570 35 l 1
 570 -39 l 1
 90 -39 l 1
EndSplineSet
EndChar

StartChar: reflexsuperset
Encoding: 79 8839 79
Width: 660
Flags: W
HStem: -39 74<90 570> 154 74<90 442.549> 515 74<90 442.549>
VStem: 496 74<284.514 455.572>
LayerCount: 2
Back
Fore
SplineSet
90 228 m 1
 385 228 l 2
 453 228 496 297 496 371 c 0
 496 445 453 515 385 515 c 2
 90 515 l 1
 90 589 l 1
 385 589 l 2
 494 589 570 486 570 371 c 0
 570 257 494 154 385 154 c 2
 90 154 l 1
 90 228 l 1
570 35 m 1
 570 -39 l 1
 90 -39 l 1
 90 35 l 1
 570 35 l 1
EndSplineSet
EndChar

StartChar: uni2AC5
Encoding: 80 10949 80
Width: 660
Flags: W
HStem: -135 74<90 570> 58 74<90 570> 250 74<217.451 570> 611 74<217.451 570>
VStem: 90 74<383.121 551.572>
LayerCount: 2
Back
Fore
SplineSet
570 611 m 1
 275 611 l 2
 207 611 164 541 164 467 c 0
 164 394 207 324 275 324 c 2
 570 324 l 1
 570 250 l 1
 275 250 l 2
 166 250 90 353 90 467 c 0
 90 582 166 685 275 685 c 2
 570 685 l 1
 570 611 l 1
90 58 m 1
 90 132 l 1
 570 132 l 1
 570 58 l 1
 90 58 l 1
90 -135 m 1
 90 -61 l 1
 570 -61 l 1
 570 -135 l 1
 90 -135 l 1
EndSplineSet
EndChar

StartChar: uni2AC6
Encoding: 81 10950 81
Width: 660
Flags: W
HStem: -135 74<90 570> 58 74<90 570> 250 74<90 442.549> 611 74<90 442.549>
VStem: 496 74<383.121 551.572>
LayerCount: 2
Back
Fore
SplineSet
90 324 m 1
 385 324 l 2
 453 324 496 394 496 467 c 0
 496 541 453 611 385 611 c 2
 90 611 l 1
 90 685 l 1
 385 685 l 2
 494 685 570 582 570 467 c 0
 570 353 494 250 385 250 c 2
 90 250 l 1
 90 324 l 1
570 132 m 1
 570 58 l 1
 90 58 l 1
 90 132 l 1
 570 132 l 1
570 -61 m 1
 570 -135 l 1
 90 -135 l 1
 90 -61 l 1
 570 -61 l 1
EndSplineSet
EndChar

StartChar: uni22D0
Encoding: 82 8912 82
Width: 660
Flags: W
HStem: -3 74<251.161 570> 142 74<318.162 570> 334 74<318.162 570> 479 74<251.161 570>
VStem: 90 74<174.397 375.603> 234 74<221.682 328.318>
LayerCount: 2
Back
Fore
SplineSet
570 479 m 1
 324 479 l 2
 227 479 164 380 164 275 c 0
 164 170 227 71 324 71 c 2
 570 71 l 1
 570 -3 l 1
 324 -3 l 2
 186 -3 90 129 90 275 c 0
 90 421 186 553 324 553 c 2
 570 553 l 1
 570 479 l 1
570 334 m 1
 348 334 l 2
 321 334 308 305 308 275 c 0
 308 245 321 216 348 216 c 2
 570 216 l 1
 570 142 l 1
 348 142 l 2
 281 142 234 205 234 275 c 0
 234 345 281 408 348 408 c 2
 570 408 l 1
 570 334 l 1
EndSplineSet
EndChar

StartChar: uni22D1
Encoding: 83 8913 83
Width: 660
Flags: W
HStem: -3 74<90 408.839> 142 74<90 342.439> 334 74<90 342.439> 479 74<90 408.839>
VStem: 352 74<221.375 328.625> 496 74<174.397 375.603>
LayerCount: 2
Back
Fore
SplineSet
90 71 m 1
 336 71 l 2
 433 71 496 170 496 275 c 0
 496 380 433 479 336 479 c 2
 90 479 l 1
 90 553 l 1
 336 553 l 2
 474 553 570 421 570 275 c 0
 570 129 474 -3 336 -3 c 2
 90 -3 l 1
 90 71 l 1
90 216 m 1
 313 216 l 2
 339 216 352 245 352 275 c 0
 352 305 339 334 313 334 c 2
 90 334 l 1
 90 408 l 1
 313 408 l 2
 379 408 426 345 426 275 c 0
 426 205 379 142 313 142 c 2
 90 142 l 1
 90 216 l 1
EndSplineSet
EndChar

StartChar: uni227A
Encoding: 84 8826 84
Width: 660
Flags: W
HStem: 238 74<90 245.443>
LayerCount: 2
Back
Fore
SplineSet
295 275 m 1
 399 229 489 146 570 60 c 1
 516 9 l 1
 408 125 284 238 127 238 c 2
 90 238 l 1
 90 312 l 1
 127 312 l 2
 284 312 408 425 516 541 c 1
 570 490 l 1
 489 404 399 321 295 275 c 1
EndSplineSet
EndChar

StartChar: uni227B
Encoding: 85 8827 85
Width: 660
Flags: W
HStem: 238 74<414.557 570>
LayerCount: 2
Back
Fore
SplineSet
365 275 m 1
 261 321 171 404 90 490 c 1
 144 541 l 1
 252 425 376 312 533 312 c 2
 570 312 l 1
 570 238 l 1
 533 238 l 2
 376 238 252 125 144 9 c 1
 90 60 l 1
 171 146 261 229 365 275 c 1
EndSplineSet
EndChar

StartChar: uni2AAF
Encoding: 86 10927 86
Width: 660
Flags: W
HStem: -7 74<90 570> 302 74<90 275.086> 525 20G<465.5 537.176>
LayerCount: 2
Back
Fore
SplineSet
336 339 m 1
 424 307 504 254 570 184 c 1
 516 133 l 1
 415 241 274 302 127 302 c 2
 90 302 l 1
 90 376 l 1
 127 376 l 2
 274 376 415 437 516 545 c 1
 570 494 l 1
 504 424 424 371 336 339 c 1
90 -7 m 1
 90 67 l 1
 570 67 l 1
 570 -7 l 1
 90 -7 l 1
EndSplineSet
EndChar

StartChar: uni2AB0
Encoding: 87 10928 87
Width: 660
Flags: W
HStem: -7 74<90 570> 302 74<384.914 570> 525 20G<122.824 194.5>
LayerCount: 2
Back
Fore
SplineSet
324 339 m 1
 236 371 156 424 90 494 c 1
 144 545 l 1
 245 437 386 376 533 376 c 2
 570 376 l 1
 570 302 l 1
 533 302 l 2
 386 302 245 241 144 133 c 1
 90 184 l 1
 156 254 236 307 324 339 c 1
570 67 m 1
 570 -7 l 1
 90 -7 l 1
 90 67 l 1
 570 67 l 1
EndSplineSet
EndChar

StartChar: uni227C
Encoding: 88 8828 88
Width: 660
Flags: W
HStem: 142 74<90 271.277> 334 74<90 275.086>
LayerCount: 2
Back
Fore
SplineSet
336 371 m 1
 424 339 504 286 570 216 c 1
 516 166 l 1
 415 273 274 334 127 334 c 2
 90 334 l 1
 90 408 l 1
 127 408 l 2
 274 408 415 469 516 577 c 1
 570 526 l 1
 504 456 424 403 336 371 c 1
90 142 m 1
 90 216 l 1
 164 216 l 2
 306 216 420 127 522 25 c 1
 469 -25 l 1
 382 64 286 142 164 142 c 2
 90 142 l 1
EndSplineSet
EndChar

StartChar: uni227D
Encoding: 89 8829 89
Width: 660
Flags: W
HStem: 142 74<388.723 570> 334 74<384.914 570>
LayerCount: 2
Back
Fore
SplineSet
324 371 m 1
 236 403 156 456 90 526 c 1
 144 577 l 1
 245 469 386 408 533 408 c 2
 570 408 l 1
 570 334 l 1
 533 334 l 2
 386 334 245 273 144 166 c 1
 90 216 l 1
 156 286 236 339 324 371 c 1
570 142 m 1
 496 142 l 2
 374 142 278 64 191 -25 c 1
 138 25 l 1
 240 127 354 216 496 216 c 2
 570 216 l 1
 570 142 l 1
EndSplineSet
EndChar

StartChar: uni2AB3
Encoding: 90 10931 90
Width: 660
Flags: W
HStem: -103 74<90 570> 90 74<90 570> 398 74<90 275.086>
LayerCount: 2
Back
Fore
SplineSet
336 435 m 1
 424 403 504 350 570 280 c 1
 516 230 l 1
 415 338 274 398 127 398 c 2
 90 398 l 1
 90 472 l 1
 127 472 l 2
 274 472 415 533 516 641 c 1
 570 591 l 1
 504 521 424 467 336 435 c 1
90 90 m 1
 90 164 l 1
 570 164 l 1
 570 90 l 1
 90 90 l 1
90 -103 m 1
 90 -29 l 1
 570 -29 l 1
 570 -103 l 1
 90 -103 l 1
EndSplineSet
EndChar

StartChar: uni2AB4
Encoding: 91 10932 91
Width: 660
Flags: W
HStem: -103 74<90 570> 90 74<90 570> 398 74<384.914 570>
LayerCount: 2
Back
Fore
SplineSet
324 435 m 1
 236 467 156 521 90 591 c 1
 144 641 l 1
 245 533 386 472 533 472 c 2
 570 472 l 1
 570 398 l 1
 533 398 l 2
 386 398 245 338 144 230 c 1
 90 280 l 1
 156 350 236 403 324 435 c 1
570 164 m 1
 570 90 l 1
 90 90 l 1
 90 164 l 1
 570 164 l 1
570 -29 m 1
 570 -103 l 1
 90 -103 l 1
 90 -29 l 1
 570 -29 l 1
EndSplineSet
EndChar

StartChar: uni227E
Encoding: 92 8830 92
Width: 660
Flags: W
HStem: -39 74<377.797 491.499> 58 74<168.501 282.203> 334 74<90 275.086>
LayerCount: 2
Back
Fore
SplineSet
336 371 m 1
 424 339 504 286 570 216 c 1
 516 166 l 1
 415 273 274 334 127 334 c 2
 90 334 l 1
 90 408 l 1
 127 408 l 2
 274 408 415 469 516 577 c 1
 570 526 l 1
 504 456 424 403 336 371 c 1
134 3 m 1
 90 46 l 1
 129 85 167 132 222 132 c 0
 272 132 316 106 354 75 c 0
 378 54 406 35 438 35 c 0
 474 35 501 64 526 90 c 1
 570 46 l 1
 531 7 493 -39 438 -39 c 0
 388 -39 344 -14 306 18 c 0
 282 39 254 58 222 58 c 0
 186 58 159 29 134 3 c 1
EndSplineSet
EndChar

StartChar: uni227F
Encoding: 93 8831 93
Width: 660
Flags: W
HStem: -39 74<377.797 491.499> 58 74<168.501 282.203> 334 74<384.914 570>
LayerCount: 2
Back
Fore
SplineSet
324 371 m 1
 236 403 156 456 90 526 c 1
 144 577 l 1
 245 469 386 408 533 408 c 2
 570 408 l 1
 570 334 l 1
 533 334 l 2
 386 334 245 273 144 166 c 1
 90 216 l 1
 156 286 236 339 324 371 c 1
134 3 m 1
 90 46 l 1
 129 85 167 132 222 132 c 0
 272 132 316 106 354 75 c 0
 378 54 406 35 438 35 c 0
 474 35 501 64 526 90 c 1
 570 46 l 1
 531 7 493 -39 438 -39 c 0
 388 -39 344 -14 306 18 c 0
 282 39 254 58 222 58 c 0
 186 58 159 29 134 3 c 1
EndSplineSet
EndChar

StartChar: uni2AB7
Encoding: 94 10935 94
Width: 660
Flags: W
HStem: -135 74<377.177 491.499> -39 74<168.501 282.823> -26 20G<513.5 546> 58 74<376.126 491.499> 154 74<168.501 282.203> 430 74<90 275.086>
LayerCount: 2
Back
Fore
SplineSet
336 467 m 1x9c
 424 435 504 382 570 312 c 1
 516 262 l 1
 415 370 274 430 127 430 c 2
 90 430 l 1
 90 504 l 1
 127 504 l 2
 274 504 415 565 516 673 c 1
 570 623 l 1
 504 553 424 499 336 467 c 1x9c
134 99 m 1
 90 143 l 1
 129 182 167 228 222 228 c 0
 272 228 316 203 354 171 c 0
 378 150 406 132 438 132 c 0
 474 132 501 160 526 186 c 1
 570 143 l 1
 531 104 493 58 438 58 c 0
 388 58 344 83 306 114 c 0
 282 135 254 154 222 154 c 0
 186 154 159 125 134 99 c 1
134 -93 m 1
 90 -50 l 1
 129 -11 167 35 222 35 c 0xdc
 272 35 316 10 354 -22 c 0
 378 -42 406 -61 438 -61 c 0
 474 -61 501 -32 526 -6 c 1xbc
 570 -50 l 1
 531 -89 493 -135 438 -135 c 0
 388 -135 344 -110 306 -78 c 0
 282 -58 254 -39 222 -39 c 0xdc
 186 -39 159 -68 134 -93 c 1
EndSplineSet
EndChar

StartChar: uni2AB8
Encoding: 95 10936 95
Width: 660
Flags: W
HStem: -135 74<377.177 491.499> -39 74<168.501 282.823> -26 20G<513.5 546> 58 74<376.126 491.499> 154 74<168.501 282.203> 430 74<384.914 570>
LayerCount: 2
Back
Fore
SplineSet
324 467 m 1x9c
 236 499 156 553 90 623 c 1
 144 673 l 1
 245 565 386 504 533 504 c 2
 570 504 l 1
 570 430 l 1
 533 430 l 2
 386 430 245 370 144 262 c 1
 90 312 l 1
 156 382 236 435 324 467 c 1x9c
134 99 m 1
 90 143 l 1
 129 182 167 228 222 228 c 0
 272 228 316 203 354 171 c 0
 378 150 406 132 438 132 c 0
 474 132 501 160 526 186 c 1
 570 143 l 1
 531 104 493 58 438 58 c 0
 388 58 344 83 306 114 c 0
 282 135 254 154 222 154 c 0
 186 154 159 125 134 99 c 1
134 -93 m 1
 90 -50 l 1
 129 -11 167 35 222 35 c 0xdc
 272 35 316 10 354 -22 c 0
 378 -42 406 -61 438 -61 c 0
 474 -61 501 -32 526 -6 c 1xbc
 570 -50 l 1
 531 -89 493 -135 438 -135 c 0
 388 -135 344 -110 306 -78 c 0
 282 -58 254 -39 222 -39 c 0xdc
 186 -39 159 -68 134 -93 c 1
EndSplineSet
EndChar

StartChar: uni22D6
Encoding: 96 8918 96
Width: 660
Flags: W
HStem: 212 126<472.17 541.83>
VStem: 444 126<240.17 309.83>
LayerCount: 2
Back
Fore
SplineSet
535 539 m 1
 570 474 l 1
 205 275 l 1
 570 76 l 1
 535 11 l 1
 90 253 l 1
 90 297 l 1
 535 539 l 1
570 275 m 0
 570 262 556 248 545 237 c 0
 534 226 520 212 507 212 c 0
 494 212 480 226 469 237 c 0
 458 248 444 262 444 275 c 0
 444 288 458 302 469 313 c 0
 480 324 494 338 507 338 c 0
 520 338 534 324 545 313 c 0
 556 302 570 288 570 275 c 0
EndSplineSet
EndChar

StartChar: uni22D7
Encoding: 97 8919 97
Width: 660
Flags: W
HStem: 212 126<118.17 187.83>
VStem: 90 126<240.17 309.83>
LayerCount: 2
Back
Fore
SplineSet
125 11 m 1
 90 76 l 1
 455 275 l 1
 90 474 l 1
 125 539 l 1
 570 297 l 1
 570 253 l 1
 125 11 l 1
216 275 m 0
 216 262 202 248 191 237 c 0
 180 226 166 212 153 212 c 0
 140 212 126 226 115 237 c 0
 104 248 90 262 90 275 c 0
 90 288 104 302 115 313 c 0
 126 324 140 338 153 338 c 0
 166 338 180 324 191 313 c 0
 202 302 216 288 216 275 c 0
EndSplineSet
EndChar

StartChar: sym025
Encoding: 98 -1 98
Width: 660
Flags: W
HStem: -7 74<90 570> 276 126<472.17 541.83> 528 20G<492.87 550.235>
VStem: 444 126<304.424 373.83>
LayerCount: 2
Back
Fore
SplineSet
542 548 m 1
 570 480 l 1
 225 339 l 1
 570 199 l 1
 542 130 l 1
 90 314 l 1
 90 364 l 1
 542 548 l 1
570 339 m 0
 570 327 556 313 545 301 c 0
 534 290 520 276 507 276 c 0
 494 276 480 290 469 301 c 0
 458 313 444 327 444 339 c 0
 444 352 458 366 469 377 c 0
 480 388 494 402 507 402 c 0
 520 402 534 388 545 377 c 0
 556 366 570 352 570 339 c 0
90 -7 m 1
 90 67 l 1
 570 67 l 1
 570 -7 l 1
 90 -7 l 1
EndSplineSet
EndChar

StartChar: sym026
Encoding: 99 -1 99
Width: 660
Flags: W
HStem: -7 74<90 570> 276 126<118.17 187.83> 528 20G<109.765 167.13>
VStem: 90 126<304.424 373.83>
LayerCount: 2
Back
Fore
SplineSet
118 130 m 1
 90 199 l 1
 435 339 l 1
 90 480 l 1
 118 548 l 1
 570 364 l 1
 570 314 l 1
 118 130 l 1
216 339 m 0
 216 327 202 313 191 301 c 0
 180 290 166 276 153 276 c 0
 140 276 126 290 115 301 c 0
 104 313 90 327 90 339 c 0
 90 352 104 366 115 377 c 0
 126 388 140 402 153 402 c 0
 166 402 180 388 191 377 c 0
 202 366 216 352 216 339 c 0
570 67 m 1
 570 -7 l 1
 90 -7 l 1
 90 67 l 1
 570 67 l 1
EndSplineSet
EndChar

StartChar: uni2A7F
Encoding: 100 10879 100
Width: 660
Flags: W
HStem: 308 126<472.17 541.83>
VStem: 444 126<336.424 405.83>
LayerCount: 2
Back
Fore
SplineSet
542 580 m 1
 570 512 l 1
 225 371 l 1
 570 231 l 1
 542 162 l 1
 90 346 l 1
 90 396 l 1
 542 580 l 1
570 371 m 0
 570 359 556 345 545 333 c 0
 534 322 520 308 507 308 c 0
 494 308 480 322 469 333 c 0
 458 345 444 359 444 371 c 0
 444 384 458 398 469 409 c 0
 480 420 494 434 507 434 c 0
 520 434 534 420 545 409 c 0
 556 398 570 384 570 371 c 0
570 38 m 1
 542 -30 l 1
 90 154 l 1
 118 222 l 1
 570 38 l 1
EndSplineSet
EndChar

StartChar: uni2A80
Encoding: 101 10880 101
Width: 660
Flags: W
HStem: 308 126<118.17 187.83>
VStem: 90 126<336.424 405.83>
LayerCount: 2
Back
Fore
SplineSet
118 162 m 1
 90 231 l 1
 435 371 l 1
 90 512 l 1
 118 580 l 1
 570 396 l 1
 570 346 l 1
 118 162 l 1
216 371 m 0
 216 359 202 345 191 333 c 0
 180 322 166 308 153 308 c 0
 140 308 126 322 115 333 c 0
 104 345 90 359 90 371 c 0
 90 384 104 398 115 409 c 0
 126 420 140 434 153 434 c 0
 166 434 180 420 191 409 c 0
 202 398 216 384 216 371 c 0
118 -30 m 1
 90 38 l 1
 542 222 l 1
 570 154 l 1
 118 -30 l 1
EndSplineSet
EndChar

StartChar: uni2A95
Encoding: 102 10901 102
Width: 660
Flags: W
LayerCount: 2
Back
Fore
SplineSet
542 388 m 1
 570 319 l 1
 225 179 l 1
 570 38 l 1
 542 -30 l 1
 90 154 l 1
 90 204 l 1
 542 388 l 1
542 580 m 1
 570 512 l 1
 118 328 l 1
 90 396 l 1
 542 580 l 1
EndSplineSet
EndChar

StartChar: uni2A96
Encoding: 103 10902 103
Width: 660
Flags: W
LayerCount: 2
Back
Fore
SplineSet
118 -30 m 1
 90 38 l 1
 435 179 l 1
 90 319 l 1
 118 388 l 1
 570 204 l 1
 570 154 l 1
 118 -30 l 1
90 512 m 1
 118 580 l 1
 570 396 l 1
 542 328 l 1
 90 512 l 1
EndSplineSet
EndChar

StartChar: uni22DE
Encoding: 104 8926 104
Width: 660
Flags: W
HStem: 142 74<90 275.086> 334 74<90 271.277>
LayerCount: 2
Back
Fore
SplineSet
336 179 m 1
 424 147 504 94 570 24 c 1
 516 -27 l 1
 415 81 274 142 127 142 c 2
 90 142 l 1
 90 216 l 1
 127 216 l 2
 274 216 415 277 516 384 c 1
 570 334 l 1
 504 264 424 211 336 179 c 1
90 408 m 1
 164 408 l 2
 286 408 382 486 469 575 c 1
 522 525 l 1
 420 423 306 334 164 334 c 2
 90 334 l 1
 90 408 l 1
EndSplineSet
EndChar

StartChar: uni22DF
Encoding: 105 8927 105
Width: 660
Flags: W
HStem: 142 74<384.914 570> 334 74<388.723 570>
LayerCount: 2
Back
Fore
SplineSet
324 179 m 1
 236 211 156 264 90 334 c 1
 144 384 l 1
 245 277 386 216 533 216 c 2
 570 216 l 1
 570 142 l 1
 533 142 l 2
 386 142 245 81 144 -27 c 1
 90 24 l 1
 156 94 236 147 324 179 c 1
570 408 m 1
 570 334 l 1
 496 334 l 2
 354 334 240 423 138 525 c 1
 191 575 l 1
 278 486 374 408 496 408 c 2
 570 408 l 1
EndSplineSet
EndChar

StartChar: notequal
Encoding: 106 8800 106
Width: 660
Flags: W
HStem: 142 74<90 260 349 570> 334 74<90 311 400 570>
LayerCount: 2
Back
Fore
SplineSet
384 605 m 1
 448 587 l 1
 400 408 l 1
 570 408 l 1
 570 334 l 1
 380 334 l 1
 349 216 l 1
 570 216 l 1
 570 142 l 1
 329 142 l 1
 276 -55 l 1
 212 -37 l 1
 260 142 l 1
 90 142 l 1
 90 216 l 1
 280 216 l 1
 311 334 l 1
 90 334 l 1
 90 408 l 1
 331 408 l 1
 384 605 l 1
EndSplineSet
EndChar

StartChar: uni2262
Encoding: 107 8802 107
Width: 660
Flags: W
HStem: 46 74<90 234 323 570> 238 74<90 286 374 570> 430 74<90 337 426 570>
CounterMasks: 1 e0
LayerCount: 2
Back
Fore
SplineSet
397 653 m 1
 461 635 l 1
 426 504 l 1
 570 504 l 1
 570 430 l 1
 406 430 l 1
 374 312 l 1
 570 312 l 1
 570 238 l 1
 354 238 l 1
 323 120 l 1
 570 120 l 1
 570 46 l 1
 303 46 l 1
 263 -103 l 1
 199 -85 l 1
 234 46 l 1
 90 46 l 1
 90 120 l 1
 254 120 l 1
 286 238 l 1
 90 238 l 1
 90 312 l 1
 306 312 l 1
 337 430 l 1
 90 430 l 1
 90 504 l 1
 357 504 l 1
 397 653 l 1
EndSplineSet
EndChar

StartChar: uni2241
Encoding: 108 8769 108
Width: 660
Flags: W
HStem: -6 21G<225 294.405> 190 74<376.72 491.499> 286 74<168.501 283.28> 536 20G<365.595 435>
LayerCount: 2
Back
Fore
SplineSet
371 556 m 1
 435 539 l 1
 369 291 l 1
 390 276 412 264 438 264 c 0
 474 264 501 293 526 319 c 1
 570 275 l 1
 531 236 493 190 438 190 c 0
 406 190 376 200 349 216 c 1
 289 -6 l 1
 225 11 l 1
 291 259 l 1
 270 274 248 286 222 286 c 0
 186 286 159 257 134 231 c 1
 90 275 l 1
 129 314 167 360 222 360 c 0
 254 360 284 350 311 334 c 1
 371 556 l 1
EndSplineSet
EndChar

StartChar: uni223D0338
Encoding: 109 -1 109
Width: 660
Flags: W
HStem: -6 21G<225 294.391> 190 74<168.501 275.451> 286 74<384.549 491.499> 536 20G<365.609 435>
LayerCount: 2
Back
Fore
SplineSet
371 556 m 1
 435 539 l 1
 384 350 l 1
 401 356 419 360 438 360 c 0
 493 360 531 314 570 275 c 1
 526 231 l 1
 501 257 474 286 438 286 c 0
 408 286 381 269 358 250 c 1
 289 -6 l 1
 225 11 l 1
 276 200 l 1
 259 194 241 190 222 190 c 0
 167 190 129 236 90 275 c 1
 134 319 l 1
 159 293 186 264 222 264 c 0
 252 264 279 281 302 300 c 1
 371 556 l 1
EndSplineSet
EndChar

StartChar: uni2249
Encoding: 110 8777 110
Width: 660
Flags: W
HStem: 94 74<377.427 491.499> 190 74<168.501 268.643> 286 74<391.357 491.499> 382 74<168.501 282.573>
LayerCount: 2
Back
Fore
SplineSet
312 338 m 1
 286 359 258 382 222 382 c 0
 186 382 159 353 134 328 c 1
 90 371 l 1
 129 410 167 456 222 456 c 0
 263 456 300 439 333 416 c 1
 384 605 l 1
 448 587 l 1
 391 373 l 1
 406 365 421 360 438 360 c 0
 474 360 501 389 526 415 c 1
 570 371 l 1
 531 332 493 286 438 286 c 0
 414 286 392 292 371 301 c 1
 348 212 l 1
 374 191 402 168 438 168 c 0
 474 168 501 197 526 222 c 1
 570 179 l 1
 531 140 493 94 438 94 c 0
 397 94 360 111 327 134 c 1
 276 -55 l 1
 212 -37 l 1
 269 177 l 1
 254 185 239 190 222 190 c 0
 186 190 159 161 134 135 c 1
 90 179 l 1
 129 218 167 264 222 264 c 0
 246 264 268 258 289 249 c 1
 312 338 l 1
EndSplineSet
EndChar

StartChar: uni224B0338
Encoding: 111 58044 111
Width: 660
Flags: W
HStem: -3 74<377.848 491.499> 94 74<168.501 246> 190 74<376.72 491.499> 286 74<168.501 283.28> 382 74<414 491.499> 479 74<168.501 282.152>
LayerCount: 2
Back
Fore
SplineSet
222 553 m 0
 272 553 318 528 355 495 c 1
 397 653 l 1
 461 635 l 1
 414 460 l 1
 422 458 430 456 438 456 c 0
 474 456 501 485 526 511 c 1
 570 467 l 1
 531 429 493 382 438 382 c 0
 423 382 409 384 395 388 c 1
 369 291 l 1
 390 276 412 264 438 264 c 0
 474 264 501 293 526 319 c 1
 570 275 l 1
 531 236 493 190 438 190 c 0
 406 190 376 200 349 216 c 1
 326 132 l 1
 358 110 392 71 438 71 c 0
 474 71 501 100 526 126 c 1
 570 83 l 1
 531 44 493 -3 438 -3 c 0
 388 -3 342 22 305 55 c 1
 263 -103 l 1
 199 -85 l 1
 246 90 l 1
 238 92 230 94 222 94 c 0
 186 94 159 65 134 39 c 1
 90 83 l 1
 129 121 167 168 222 168 c 0
 237 168 251 166 265 162 c 1
 291 259 l 1
 270 274 248 286 222 286 c 0
 186 286 159 257 134 231 c 1
 90 275 l 1
 129 314 167 360 222 360 c 0
 254 360 284 350 311 334 c 1
 334 418 l 1
 302 440 268 479 222 479 c 0
 186 479 159 450 134 424 c 1
 90 467 l 1
 129 506 167 553 222 553 c 0
EndSplineSet
EndChar

StartChar: uni2244
Encoding: 112 8772 112
Width: 660
Flags: W
HStem: 142 74<90 260 349 570> 286 74<391.357 491.499> 382 74<168.501 282.573>
LayerCount: 2
Back
Fore
SplineSet
312 338 m 1
 286 359 258 382 222 382 c 0
 186 382 159 353 134 328 c 1
 90 371 l 1
 129 410 167 456 222 456 c 0
 263 456 300 439 333 416 c 1
 384 605 l 1
 448 587 l 1
 391 373 l 1
 406 365 421 360 438 360 c 0
 474 360 501 389 526 415 c 1
 570 371 l 1
 531 332 493 286 438 286 c 0
 414 286 392 292 371 301 c 1
 349 216 l 1
 570 216 l 1
 570 142 l 1
 329 142 l 1
 276 -55 l 1
 212 -37 l 1
 260 142 l 1
 90 142 l 1
 90 216 l 1
 280 216 l 1
 312 338 l 1
EndSplineSet
EndChar

StartChar: uni22CD0338
Encoding: 113 -1 113
Width: 660
Flags: W
HStem: 142 74<90 260 349 570> 286 74<168.501 281.807> 382 74<412.563 491.499>
LayerCount: 2
Back
Fore
SplineSet
384 605 m 1
 448 587 l 1
 412 454 l 1
 420 455 429 456 438 456 c 0
 493 456 531 410 570 371 c 1
 526 328 l 1
 501 353 474 382 438 382 c 0
 421 382 404 376 389 368 c 1
 349 216 l 1
 570 216 l 1
 570 142 l 1
 329 142 l 1
 276 -55 l 1
 212 -37 l 1
 260 142 l 1
 90 142 l 1
 90 216 l 1
 280 216 l 1
 305 309 l 1
 280 295 252 286 222 286 c 0
 167 286 129 332 90 371 c 1
 134 415 l 1
 159 389 186 360 222 360 c 0
 268 360 302 399 335 421 c 1
 384 605 l 1
EndSplineSet
EndChar

StartChar: uni22420338
Encoding: 114 59470 114
Width: 660
Flags: W
HStem: 94 74<377.427 491.499> 190 74<168.501 268.643> 334 74<90 311 400 570>
LayerCount: 2
Back
Fore
SplineSet
348 212 m 1
 374 191 402 168 438 168 c 0
 474 168 501 197 526 222 c 1
 570 179 l 1
 531 140 493 94 438 94 c 0
 397 94 360 111 327 134 c 1
 276 -55 l 1
 212 -37 l 1
 269 177 l 1
 254 185 239 190 222 190 c 0
 186 190 159 161 134 135 c 1
 90 179 l 1
 129 218 167 264 222 264 c 0
 246 264 268 258 289 249 c 1
 311 334 l 1
 90 334 l 1
 90 408 l 1
 331 408 l 1
 384 605 l 1
 448 587 l 1
 400 408 l 1
 570 408 l 1
 570 334 l 1
 380 334 l 1
 348 212 l 1
EndSplineSet
EndChar

StartChar: uni2247
Encoding: 115 8775 115
Width: 660
Flags: W
HStem: 46 74<90 234 323 570> 238 74<90 286 374 570> 382 74<414 491.499> 479 74<168.501 282.152>
LayerCount: 2
Back
Fore
SplineSet
222 553 m 0
 272 553 318 528 355 495 c 1
 397 653 l 1
 461 635 l 1
 414 460 l 1
 422 458 430 456 438 456 c 0
 474 456 501 485 526 511 c 1
 570 467 l 1
 531 429 493 382 438 382 c 0
 423 382 409 384 395 388 c 1
 374 312 l 1
 570 312 l 1
 570 238 l 1
 354 238 l 1
 323 120 l 1
 570 120 l 1
 570 46 l 1
 303 46 l 1
 263 -103 l 1
 199 -85 l 1
 234 46 l 1
 90 46 l 1
 90 120 l 1
 254 120 l 1
 286 238 l 1
 90 238 l 1
 90 312 l 1
 306 312 l 1
 334 418 l 1
 302 440 268 479 222 479 c 0
 186 479 159 450 134 424 c 1
 90 467 l 1
 129 506 167 553 222 553 c 0
EndSplineSet
EndChar

StartChar: uni224C0338
Encoding: 116 -1 116
Width: 660
Flags: W
HStem: 46 74<90 234 323 570> 238 74<90 286 374 570> 382 74<168.501 282.164> 479 74<439 489.706>
LayerCount: 2
Back
Fore
SplineSet
397 653 m 1
 461 635 l 1
 439 553 l 1
 493 552 531 506 570 467 c 1
 526 424 l 1
 501 450 474 479 438 479 c 0
 431 479 425 478 419 477 c 1
 374 312 l 1
 570 312 l 1
 570 238 l 1
 354 238 l 1
 323 120 l 1
 570 120 l 1
 570 46 l 1
 303 46 l 1
 263 -103 l 1
 199 -85 l 1
 234 46 l 1
 90 46 l 1
 90 120 l 1
 254 120 l 1
 286 238 l 1
 90 238 l 1
 90 312 l 1
 306 312 l 1
 336 425 l 1
 302 400 264 382 222 382 c 0
 167 382 129 429 90 467 c 1
 134 511 l 1
 159 485 186 456 222 456 c 0
 254 456 282 475 306 496 c 0
 324 512 344 526 365 536 c 1
 397 653 l 1
EndSplineSet
EndChar

StartChar: uni224A0338
Encoding: 117 -1 117
Width: 660
Flags: W
HStem: 46 74<90 234 323 570> 190 74<376.72 491.499> 286 74<168.501 283.28> 382 74<414 491.499> 479 74<168.501 282.152>
LayerCount: 2
Back
Fore
SplineSet
222 553 m 0
 272 553 318 528 355 495 c 1
 397 653 l 1
 461 635 l 1
 414 460 l 1
 422 458 430 456 438 456 c 0
 474 456 501 485 526 511 c 1
 570 467 l 1
 531 429 493 382 438 382 c 0
 423 382 409 384 395 388 c 1
 369 291 l 1
 390 276 412 264 438 264 c 0
 474 264 501 293 526 319 c 1
 570 275 l 1
 531 236 493 190 438 190 c 0
 406 190 376 200 349 216 c 1
 323 120 l 1
 570 120 l 1
 570 46 l 1
 303 46 l 1
 263 -103 l 1
 199 -85 l 1
 234 46 l 1
 90 46 l 1
 90 120 l 1
 254 120 l 1
 291 259 l 1
 270 274 248 286 222 286 c 0
 186 286 159 257 134 231 c 1
 90 275 l 1
 129 314 167 360 222 360 c 0
 254 360 284 350 311 334 c 1
 334 418 l 1
 302 440 268 479 222 479 c 0
 186 479 159 450 134 424 c 1
 90 467 l 1
 129 506 167 553 222 553 c 0
EndSplineSet
EndChar

StartChar: uni224F0338
Encoding: 118 59469 118
Width: 660
Flags: W
HStem: 142 74<90 260 349 570> 334 74<90 209.592 449.755 570> 430 74<284.339 336.734>
LayerCount: 2
Back
Fore
SplineSet
384 605 m 1
 448 587 l 1
 417 472 l 1
 436 455 451 433 458 408 c 1
 570 408 l 1
 570 334 l 1
 389 334 l 1
 389 367 l 1
 349 216 l 1
 570 216 l 1
 570 142 l 1
 329 142 l 1
 276 -55 l 1
 212 -37 l 1
 260 142 l 1
 90 142 l 1
 90 216 l 1
 280 216 l 1
 337 430 l 1
 335 430 332 430 330 430 c 0
 297 430 271 404 271 371 c 2
 271 334 l 1
 90 334 l 1
 90 408 l 1
 202 408 l 1
 218 464 269 504 330 504 c 0
 339 504 348 503 356 501 c 1
 384 605 l 1
EndSplineSet
EndChar

StartChar: uni2AAE0338
Encoding: 119 -1 119
Width: 660
Flags: W
HStem: 46 74<90 234 323 570> 238 74<90 286 374 570> 430 74<90 209.592 449.375 570> 526 75<284.157 360.471>
LayerCount: 2
Back
Fore
SplineSet
397 653 m 1
 461 635 l 1
 437 546 l 1
 446 533 454 519 458 504 c 1
 570 504 l 1
 570 430 l 1
 406 430 l 1
 374 312 l 1
 570 312 l 1
 570 238 l 1
 354 238 l 1
 323 120 l 1
 570 120 l 1
 570 46 l 1
 303 46 l 1
 263 -103 l 1
 199 -85 l 1
 234 46 l 1
 90 46 l 1
 90 120 l 1
 254 120 l 1
 286 238 l 1
 90 238 l 1
 90 312 l 1
 306 312 l 1
 361 518 l 1
 352 523 341 526 330 526 c 0
 297 526 271 500 271 467 c 2
 271 430 l 1
 90 430 l 1
 90 504 l 1
 202 504 l 1
 218 560 269 601 330 601 c 0
 348 601 364 597 380 591 c 1
 397 653 l 1
EndSplineSet
EndChar

StartChar: uni224E0338
Encoding: 120 58902 120
Width: 660
Flags: W
HStem: 46 74<323.002 375.661> 142 74<90 210.245 450.408 570> 334 74<90 209.592 449.755 570> 430 74<284.339 336.998>
VStem: 90 181<183 216 334 407.601> 389 181<142.399 216 334 367>
LayerCount: 2
Back
Fore
SplineSet
397 653 m 1
 461 635 l 1
 417 472 l 1
 436 455 451 433 458 408 c 1
 570 408 l 1
 570 334 l 1
 389 334 l 1
 389 367 l 1
 323 120 l 1
 325 120 328 120 330 120 c 0
 363 120 389 146 389 179 c 2
 389 216 l 1
 570 216 l 1
 570 142 l 1
 458 142 l 1
 442 86 391 46 330 46 c 0
 321 46 313 47 304 49 c 1
 263 -103 l 1
 199 -85 l 1
 243 78 l 1
 224 95 209 117 202 142 c 1
 90 142 l 1
 90 216 l 1
 271 216 l 1
 271 183 l 1
 337 430 l 1
 335 430 332 430 330 430 c 0
 297 430 271 404 271 371 c 2
 271 334 l 1
 90 334 l 1
 90 408 l 1
 202 408 l 1
 218 464 269 504 330 504 c 0
 339 504 347 503 356 501 c 1
 397 653 l 1
EndSplineSet
EndChar

StartChar: uni22500338
Encoding: 121 58250 121
Width: 660
Flags: W
HStem: 142 74<90 260 349 570> 334 74<90 311 400 570> 501 126<295.17 360.531>
LayerCount: 2
Back
Fore
SplineSet
330 627 m 0
 348 627 369 602 380 589 c 1
 397 653 l 1
 461 635 l 1
 400 408 l 1
 570 408 l 1
 570 334 l 1
 380 334 l 1
 349 216 l 1
 570 216 l 1
 570 142 l 1
 329 142 l 1
 263 -103 l 1
 199 -85 l 1
 260 142 l 1
 90 142 l 1
 90 216 l 1
 280 216 l 1
 311 334 l 1
 90 334 l 1
 90 408 l 1
 331 408 l 1
 361 519 l 1
 351 510 340 501 330 501 c 0
 317 501 303 515 292 526 c 0
 281 537 267 551 267 564 c 0
 267 576 281 590 292 602 c 0
 303 613 317 627 330 627 c 0
EndSplineSet
EndChar

StartChar: uni2A660338
Encoding: 122 -1 122
Width: 660
Flags: W
HStem: -77 126<299.469 364.83> 142 74<90 260 349 570> 334 74<90 311 400 570>
LayerCount: 2
Back
Fore
SplineSet
330 -77 m 0
 312 -77 291 -52 280 -39 c 1
 263 -103 l 1
 199 -85 l 1
 260 142 l 1
 90 142 l 1
 90 216 l 1
 280 216 l 1
 311 334 l 1
 90 334 l 1
 90 408 l 1
 331 408 l 1
 397 653 l 1
 461 635 l 1
 400 408 l 1
 570 408 l 1
 570 334 l 1
 380 334 l 1
 349 216 l 1
 570 216 l 1
 570 142 l 1
 329 142 l 1
 299 31 l 1
 309 40 320 49 330 49 c 0
 343 49 357 35 368 24 c 0
 379 13 393 -1 393 -14 c 0
 393 -26 379 -40 368 -52 c 0
 357 -63 343 -77 330 -77 c 0
EndSplineSet
EndChar

StartChar: uni22510338
Encoding: 123 -1 123
Width: 660
Flags: W
HStem: -77 126<299.469 364.83> 142 74<90 260 349 570> 334 74<90 311 400 570> 501 126<295.17 360.531>
LayerCount: 2
Back
Fore
SplineSet
330 627 m 0
 348 627 369 602 380 589 c 1
 397 653 l 1
 461 635 l 1
 400 408 l 1
 570 408 l 1
 570 334 l 1
 380 334 l 1
 349 216 l 1
 570 216 l 1
 570 142 l 1
 329 142 l 1
 299 31 l 1
 309 40 320 49 330 49 c 0
 343 49 357 35 368 24 c 0
 379 13 393 -1 393 -14 c 0
 393 -26 379 -40 368 -52 c 0
 357 -63 343 -77 330 -77 c 0
 312 -77 291 -52 280 -39 c 1
 263 -103 l 1
 199 -85 l 1
 260 142 l 1
 90 142 l 1
 90 216 l 1
 280 216 l 1
 311 334 l 1
 90 334 l 1
 90 408 l 1
 331 408 l 1
 361 519 l 1
 351 510 340 501 330 501 c 0
 317 501 303 515 292 526 c 0
 281 537 267 551 267 564 c 0
 267 576 281 590 292 602 c 0
 303 613 317 627 330 627 c 0
EndSplineSet
EndChar

StartChar: uni22520338
Encoding: 124 -1 124
Width: 660
Flags: W
HStem: -77 126<472.17 541.83> 142 74<90 260 349 570> 334 74<90 311 400 570> 501 126<118.17 187.83>
VStem: 90 126<529.17 598.576> 444 126<-48.5756 20.8304>
LayerCount: 2
Back
Fore
SplineSet
216 564 m 0
 216 551 202 537 191 526 c 0
 180 515 166 501 153 501 c 0
 140 501 126 515 115 526 c 0
 104 537 90 551 90 564 c 0
 90 576 104 590 115 602 c 0
 126 613 140 627 153 627 c 0
 166 627 180 613 191 602 c 0
 202 590 216 576 216 564 c 0
570 -14 m 0
 570 -26 556 -40 545 -52 c 0
 534 -63 520 -77 507 -77 c 0
 494 -77 480 -63 469 -52 c 0
 458 -40 444 -26 444 -14 c 0
 444 -1 458 13 469 24 c 0
 480 35 494 49 507 49 c 0
 520 49 534 35 545 24 c 0
 556 13 570 -1 570 -14 c 0
397 653 m 1
 461 635 l 1
 400 408 l 1
 570 408 l 1
 570 334 l 1
 380 334 l 1
 349 216 l 1
 570 216 l 1
 570 142 l 1
 329 142 l 1
 263 -103 l 1
 199 -85 l 1
 260 142 l 1
 90 142 l 1
 90 216 l 1
 280 216 l 1
 311 334 l 1
 90 334 l 1
 90 408 l 1
 331 408 l 1
 397 653 l 1
EndSplineSet
EndChar

StartChar: uni22530338
Encoding: 125 -1 125
Width: 660
Flags: W
HStem: -77 126<118.17 187.83> 142 74<90 260 349 570> 334 74<90 311 400 570> 501 126<472.17 541.83>
VStem: 90 126<-48.5756 20.8304> 444 126<529.17 598.576>
LayerCount: 2
Back
Fore
SplineSet
570 564 m 0
 570 551 556 537 545 526 c 0
 534 515 520 501 507 501 c 0
 494 501 480 515 469 526 c 0
 458 537 444 551 444 564 c 0
 444 576 458 590 469 602 c 0
 480 613 494 627 507 627 c 0
 520 627 534 613 545 602 c 0
 556 590 570 576 570 564 c 0
216 -14 m 0
 216 -26 202 -40 191 -52 c 0
 180 -63 166 -77 153 -77 c 0
 140 -77 126 -63 115 -52 c 0
 104 -40 90 -26 90 -14 c 0
 90 -1 104 13 115 24 c 0
 126 35 140 49 153 49 c 0
 166 49 180 35 191 24 c 0
 202 13 216 -1 216 -14 c 0
397 653 m 1
 461 635 l 1
 400 408 l 1
 570 408 l 1
 570 334 l 1
 380 334 l 1
 349 216 l 1
 570 216 l 1
 570 142 l 1
 329 142 l 1
 263 -103 l 1
 199 -85 l 1
 260 142 l 1
 90 142 l 1
 90 216 l 1
 280 216 l 1
 311 334 l 1
 90 334 l 1
 90 408 l 1
 331 408 l 1
 397 653 l 1
EndSplineSet
EndChar

StartChar: uni23230338
Encoding: 126 -1 126
Width: 660
Flags: W
HStem: -6 21G<225 294.408> 195 72<229.12 274 362 432.528> 536 20G<365.671 435>
LayerCount: 2
Back
Fore
SplineSet
371 556 m 1
 435 539 l 1
 362 266 l 1
 421 275 475 307 518 349 c 1
 570 297 l 1
 509 235 429 193 342 190 c 1
 289 -6 l 1
 225 11 l 1
 274 195 l 1
 204 208 141 245 90 297 c 1
 142 349 l 1
 184 308 237 277 294 267 c 1
 371 556 l 1
EndSplineSet
EndChar

StartChar: uni23220338
Encoding: 127 -1 127
Width: 660
Flags: W
HStem: -6 21G<225 294.329> 284 76<231.25 298 386 430.549> 536 20G<365.592 435>
LayerCount: 2
Back
Fore
SplineSet
371 556 m 1
 435 539 l 1
 386 355 l 1
 456 342 519 305 570 253 c 1
 518 201 l 1
 476 242 423 273 366 283 c 1
 289 -6 l 1
 225 11 l 1
 298 284 l 1
 239 275 185 243 142 201 c 1
 90 253 l 1
 151 315 231 357 318 360 c 1
 371 556 l 1
EndSplineSet
EndChar

StartChar: uni226D
Encoding: 128 8813 128
Width: 660
Flags: W
HStem: 158 73<353 424.157> 319 73<235.843 307>
LayerCount: 2
Back
Fore
SplineSet
397 653 m 1
 461 635 l 1
 399 403 l 1
 443 417 484 444 518 478 c 1
 570 425 l 1
 517 372 450 334 377 322 c 1
 353 231 l 1
 435 225 511 184 570 125 c 1
 518 72 l 1
 468 122 403 157 333 158 c 1
 263 -103 l 1
 199 -85 l 1
 261 147 l 1
 217 133 176 106 142 72 c 1
 90 125 l 1
 143 178 210 216 283 228 c 1
 307 319 l 1
 225 325 149 366 90 425 c 1
 142 478 l 1
 192 428 257 393 327 392 c 1
 397 653 l 1
EndSplineSet
EndChar

StartChar: uni20500338
Encoding: 129 -1 129
Width: 660
Flags: W
HStem: 62 74<327.002 425.088> 414 74<234.912 332.998>
LayerCount: 2
Back
Fore
SplineSet
397 653 m 1
 461 635 l 1
 418 475 l 1
 475 458 527 424 570 381 c 1
 518 329 l 1
 484 363 443 389 399 403 c 1
 327 136 l 2
 328 136 329 136 330 136 c 0
 401 136 467 170 518 221 c 1
 570 169 l 1
 506 104 421 62 330 62 c 0
 322 62 314 62 307 63 c 1
 263 -103 l 1
 199 -85 l 1
 242 75 l 1
 185 92 133 126 90 169 c 1
 142 221 l 1
 176 187 217 161 261 147 c 1
 333 414 l 2
 332 414 331 414 330 414 c 0
 259 414 193 380 142 329 c 1
 90 381 l 1
 154 446 239 488 330 488 c 0
 338 488 346 488 353 487 c 1
 397 653 l 1
EndSplineSet
EndChar

StartChar: sym020_uni0338
Encoding: 130 -1 130
Width: 660
Flags: W
HStem: 46 74<90 234 323 570> 238 74<90 286 374 570> 382 74<235.188 324>
LayerCount: 2
Back
Fore
SplineSet
397 653 m 1
 461 635 l 1
 418 474 l 1
 455 489 489 513 518 542 c 1
 570 489 l 1
 522 441 461 404 395 389 c 1
 374 312 l 1
 570 312 l 1
 570 238 l 1
 354 238 l 1
 323 120 l 1
 570 120 l 1
 570 46 l 1
 303 46 l 1
 263 -103 l 1
 199 -85 l 1
 234 46 l 1
 90 46 l 1
 90 120 l 1
 254 120 l 1
 286 238 l 1
 90 238 l 1
 90 312 l 1
 306 312 l 1
 324 382 l 1
 235 384 153 426 90 489 c 1
 142 542 l 1
 193 491 259 456 330 456 c 0
 335 456 339 456 344 456 c 1
 397 653 l 1
EndSplineSet
EndChar

StartChar: uni22580338
Encoding: 131 -1 131
Width: 660
Flags: W
HStem: 46 74<90 234 323 570> 238 74<90 286 374 570> 479 74<234.697 350>
LayerCount: 2
Back
Fore
SplineSet
397 653 m 1
 461 635 l 1
 434 534 l 1
 485 516 531 485 570 446 c 1
 518 393 l 1
 488 423 453 447 415 462 c 1
 374 312 l 1
 570 312 l 1
 570 238 l 1
 354 238 l 1
 323 120 l 1
 570 120 l 1
 570 46 l 1
 303 46 l 1
 263 -103 l 1
 199 -85 l 1
 234 46 l 1
 90 46 l 1
 90 120 l 1
 254 120 l 1
 286 238 l 1
 90 238 l 1
 90 312 l 1
 306 312 l 1
 350 478 l 1
 343 479 337 479 330 479 c 0
 259 479 193 444 142 393 c 1
 90 446 l 1
 154 510 239 553 330 553 c 0
 343 553 356 552 369 550 c 1
 397 653 l 1
EndSplineSet
EndChar

StartChar: uni22560338
Encoding: 132 -1 132
Width: 660
Flags: W
HStem: 142 74<90 240 420 570> 334 74<90 240 420 570>
VStem: 222 56<245.652 317.926> 382 56<232.074 304.348>
LayerCount: 2
Back
Fore
SplineSet
308 323 m 1
 291 315 278 296 278 275 c 0
 278 264 281 254 287 245 c 1
 308 323 l 1
352 227 m 1
 369 235 382 254 382 275 c 0
 382 286 379 296 373 305 c 1
 352 227 l 1
384 605 m 1
 448 587 l 1
 400 408 l 1
 570 408 l 1
 570 334 l 1
 420 334 l 1
 432 317 438 296 438 275 c 0
 438 254 432 233 420 216 c 1
 570 216 l 1
 570 142 l 1
 329 142 l 1
 276 -55 l 1
 212 -37 l 1
 260 142 l 1
 90 142 l 1
 90 216 l 1
 240 216 l 1
 228 233 222 254 222 275 c 0
 222 296 228 317 240 334 c 1
 90 334 l 1
 90 408 l 1
 331 408 l 1
 384 605 l 1
EndSplineSet
EndChar

StartChar: uni22570338
Encoding: 133 -1 133
Width: 660
Flags: W
HStem: 142 74<90 234 323 570> 334 74<90 286 374 570> 504 55<290.666 330.844> 664 56<287.875 369.355>
VStem: 222 56<570.069 653.914>
LayerCount: 2
Back
Fore
SplineSet
278 612 m 0
 278 584 302 559 330 559 c 0
 336 559 342 560 347 562 c 1
 370 646 l 1
 360 657 345 664 330 664 c 0
 301 664 278 641 278 612 c 0
222 612 m 0
 222 670 271 720 330 720 c 0
 350 720 369 714 385 704 c 1
 410 797 l 1
 474 780 l 1
 435 636 l 1
 437 628 438 620 438 612 c 0
 438 585 428 559 409 539 c 1
 374 408 l 1
 570 408 l 1
 570 334 l 1
 354 334 l 1
 323 216 l 1
 570 216 l 1
 570 142 l 1
 303 142 l 1
 250 -55 l 1
 186 -37 l 1
 234 142 l 1
 90 142 l 1
 90 216 l 1
 254 216 l 1
 286 334 l 1
 90 334 l 1
 90 408 l 1
 306 408 l 1
 331 504 l 2
 330 504 l 0
 271 504 222 553 222 612 c 0
EndSplineSet
EndChar

StartChar: uni22590338
Encoding: 134 -1 134
Width: 660
Flags: W
HStem: 142 74<90 234 323 570> 334 74<90 286 374 570> 736 20G<296.672 363.51>
LayerCount: 2
Back
Fore
SplineSet
410 797 m 1
 474 780 l 1
 437 640 l 1
 535 512 l 1
 476 467 l 1
 412 550 l 1
 374 408 l 1
 570 408 l 1
 570 334 l 1
 354 334 l 1
 323 216 l 1
 570 216 l 1
 570 142 l 1
 303 142 l 1
 250 -55 l 1
 186 -37 l 1
 234 142 l 1
 90 142 l 1
 90 216 l 1
 254 216 l 1
 286 334 l 1
 90 334 l 1
 90 408 l 1
 306 408 l 1
 362 617 l 1
 330 658 l 1
 184 467 l 1
 125 512 l 1
 312 756 l 1
 348 756 l 1
 386 707 l 1
 410 797 l 1
EndSplineSet
EndChar

StartChar: uni225A0338
Encoding: 135 -1 135
Width: 660
Flags: W
HStem: 142 74<90 234 323 570> 334 74<90 286 374 570> 736 20G<157.778 199.288 463 502.222>
LayerCount: 2
Back
Fore
SplineSet
410 797 m 1
 474 780 l 1
 463 739 l 1
 476 756 l 1
 535 711 l 1
 413 551 l 1
 374 408 l 1
 570 408 l 1
 570 334 l 1
 354 334 l 1
 323 216 l 1
 570 216 l 1
 570 142 l 1
 303 142 l 1
 250 -55 l 1
 186 -37 l 1
 234 142 l 1
 90 142 l 1
 90 216 l 1
 254 216 l 1
 286 334 l 1
 90 334 l 1
 90 408 l 1
 306 408 l 1
 321 467 l 1
 312 467 l 1
 125 711 l 1
 184 756 l 1
 330 565 l 1
 357 601 l 1
 410 797 l 1
EndSplineSet
EndChar

StartChar: uni225B0338
Encoding: 136 -1 136
Width: 660
Flags: W
HStem: 142 74<90 234 323 570> 334 74<90 286 374 570>
LayerCount: 2
Back
Fore
SplineSet
410 797 m 1
 474 780 l 1
 444 667 l 1
 497 666 l 1
 430 615 l 1
 411 544 l 1
 433 470 l 1
 397 495 l 1
 374 408 l 1
 570 408 l 1
 570 334 l 1
 354 334 l 1
 323 216 l 1
 570 216 l 1
 570 142 l 1
 303 142 l 1
 250 -55 l 1
 186 -37 l 1
 234 142 l 1
 90 142 l 1
 90 216 l 1
 254 216 l 1
 286 334 l 1
 90 334 l 1
 90 408 l 1
 306 408 l 1
 340 535 l 1
 330 542 l 1
 227 470 l 1
 263 590 l 1
 163 666 l 1
 289 669 l 1
 330 788 l 1
 371 669 l 1
 376 669 l 1
 410 797 l 1
EndSplineSet
EndChar

StartChar: uni225C0338
Encoding: 137 -1 137
Width: 660
Flags: W
HStem: 142 74<90 234 323 570> 334 74<90 286 374 570> 512 55<253 333>
LayerCount: 2
Back
Fore
SplineSet
330 701 m 1
 253 567 l 1
 348 567 l 1
 367 637 l 1
 330 701 l 1
410 797 m 1
 474 780 l 1
 434 631 l 1
 503 512 l 1
 402 512 l 1
 374 408 l 1
 570 408 l 1
 570 334 l 1
 354 334 l 1
 323 216 l 1
 570 216 l 1
 570 142 l 1
 303 142 l 1
 250 -55 l 1
 186 -37 l 1
 234 142 l 1
 90 142 l 1
 90 216 l 1
 254 216 l 1
 286 334 l 1
 90 334 l 1
 90 408 l 1
 306 408 l 1
 333 512 l 1
 157 512 l 1
 330 812 l 1
 387 713 l 1
 410 797 l 1
EndSplineSet
EndChar

StartChar: notelement
Encoding: 138 8713 138
Width: 660
Flags: W
HStem: -3 74<310.233 570> 238 74<167 286 374 570> 479 74<252.54 350 439 570>
VStem: 90 77<167.42 238 312 380.031>
CounterMasks: 1 e0
LayerCount: 2
Back
Fore
SplineSet
306 312 m 1
 350 479 l 1
 324 479 l 2
 239 479 180 402 167 312 c 1
 306 312 l 1
286 238 m 1
 167 238 l 1
 176 178 204 125 247 95 c 1
 286 238 l 1
410 701 m 1
 474 684 l 1
 439 553 l 1
 570 553 l 1
 570 479 l 1
 419 479 l 1
 374 312 l 1
 570 312 l 1
 570 238 l 1
 354 238 l 1
 310 72 l 1
 315 72 319 71 324 71 c 2
 570 71 l 1
 570 -3 l 1
 324 -3 l 2
 313 -3 301 -2 290 -0 c 1
 250 -151 l 1
 186 -134 l 1
 228 21 l 1
 144 65 90 166 90 275 c 0
 90 421 186 553 324 553 c 2
 370 553 l 1
 410 701 l 1
EndSplineSet
EndChar

StartChar: uni220C
Encoding: 139 8716 139
Width: 660
Flags: W
HStem: -3 74<90 221 310 407.46> 238 74<90 286 374 493> 479 74<90 349.767>
VStem: 493 77<169.969 238 312 382.58>
CounterMasks: 1 e0
LayerCount: 2
Back
Fore
SplineSet
354 238 m 1
 310 71 l 1
 336 71 l 2
 421 71 480 148 493 238 c 1
 354 238 l 1
374 312 m 1
 493 312 l 1
 484 372 456 425 413 455 c 1
 374 312 l 1
410 701 m 1
 474 684 l 1
 432 529 l 1
 516 485 570 384 570 275 c 0
 570 129 474 -3 336 -3 c 2
 290 -3 l 1
 250 -151 l 1
 186 -134 l 1
 221 -3 l 1
 90 -3 l 1
 90 71 l 1
 241 71 l 1
 286 238 l 1
 90 238 l 1
 90 312 l 1
 306 312 l 1
 350 478 l 1
 345 478 341 479 336 479 c 2
 90 479 l 1
 90 553 l 1
 336 553 l 2
 347 553 359 552 370 550 c 1
 410 701 l 1
EndSplineSet
EndChar

StartChar: uni226E
Encoding: 140 8814 140
Width: 660
Flags: W
LayerCount: 2
Back
Fore
SplineSet
284 232 m 1
 311 333 l 1
 205 275 l 1
 284 232 l 1
397 653 m 1
 461 635 l 1
 418 475 l 1
 535 539 l 1
 570 474 l 1
 392 377 l 1
 344 199 l 1
 570 76 l 1
 535 11 l 1
 324 126 l 1
 263 -103 l 1
 199 -85 l 1
 264 158 l 1
 90 253 l 1
 90 297 l 1
 338 432 l 1
 397 653 l 1
EndSplineSet
EndChar

StartChar: uni226F
Encoding: 141 8815 141
Width: 660
Flags: W
LayerCount: 2
Back
Fore
SplineSet
376 318 m 1
 349 217 l 1
 455 275 l 1
 376 318 l 1
397 653 m 1
 461 635 l 1
 396 392 l 1
 570 297 l 1
 570 253 l 1
 322 118 l 1
 263 -103 l 1
 199 -85 l 1
 242 75 l 1
 125 11 l 1
 90 76 l 1
 268 173 l 1
 316 351 l 1
 90 474 l 1
 125 539 l 1
 336 424 l 1
 397 653 l 1
EndSplineSet
EndChar

StartChar: uni2270
Encoding: 142 8816 142
Width: 660
Flags: W
HStem: -7 74<90 220 309 570> 528 20G<493.25 550.235>
LayerCount: 2
Back
Fore
SplineSet
304 307 m 1
 323 379 l 1
 225 339 l 1
 304 307 l 1
406 689 m 1
 471 672 l 1
 425 500 l 1
 542 548 l 1
 570 480 l 1
 401 411 l 1
 367 282 l 1
 570 199 l 1
 542 130 l 1
 347 209 l 1
 309 67 l 1
 570 67 l 1
 570 -7 l 1
 289 -7 l 1
 254 -139 l 1
 189 -122 l 1
 220 -7 l 1
 90 -7 l 1
 90 67 l 1
 240 67 l 1
 284 235 l 1
 90 314 l 1
 90 364 l 1
 347 469 l 1
 406 689 l 1
EndSplineSet
EndChar

StartChar: uni2271
Encoding: 143 8817 143
Width: 660
Flags: W
HStem: -7 74<90 220 309 570> 528 20G<109.765 167.13>
LayerCount: 2
Back
Fore
SplineSet
387 359 m 1
 375 315 l 1
 435 339 l 1
 387 359 l 1
406 689 m 1
 471 672 l 1
 406 431 l 1
 570 364 l 1
 570 314 l 1
 351 225 l 1
 309 67 l 1
 570 67 l 1
 570 -7 l 1
 289 -7 l 1
 254 -139 l 1
 189 -122 l 1
 220 -7 l 1
 90 -7 l 1
 90 67 l 1
 240 67 l 1
 273 193 l 1
 118 130 l 1
 90 199 l 1
 297 283 l 1
 324 384 l 1
 90 480 l 1
 118 548 l 1
 344 456 l 1
 406 689 l 1
EndSplineSet
EndChar

StartChar: uni2A7D0338
Encoding: 144 58023 144
Width: 660
Flags: W
LayerCount: 2
Back
Fore
SplineSet
312 336 m 1
 333 415 l 1
 225 371 l 1
 312 336 l 1
406 689 m 1
 471 672 l 1
 435 536 l 1
 542 580 l 1
 570 512 l 1
 411 447 l 1
 374 310 l 1
 570 231 l 1
 542 162 l 1
 355 238 l 1
 328 137 l 1
 570 38 l 1
 542 -30 l 1
 309 65 l 1
 254 -139 l 1
 189 -122 l 1
 246 91 l 1
 90 154 l 1
 118 222 l 1
 265 162 l 1
 292 264 l 1
 90 346 l 1
 90 396 l 1
 357 505 l 1
 406 689 l 1
EndSplineSet
EndChar

StartChar: uni2A7E0338
Encoding: 145 58022 145
Width: 660
Flags: W
LayerCount: 2
Back
Fore
SplineSet
395 387 m 1
 385 351 l 1
 435 371 l 1
 395 387 l 1
406 689 m 1
 471 672 l 1
 414 459 l 1
 570 396 l 1
 570 346 l 1
 361 261 l 1
 327 135 l 1
 542 222 l 1
 570 154 l 1
 303 45 l 1
 254 -139 l 1
 189 -122 l 1
 225 14 l 1
 118 -30 l 1
 90 38 l 1
 249 103 l 1
 283 229 l 1
 118 162 l 1
 90 231 l 1
 307 319 l 1
 332 413 l 1
 90 512 l 1
 118 580 l 1
 351 485 l 1
 406 689 l 1
EndSplineSet
EndChar

StartChar: uni22660338
Encoding: 146 58024 146
Width: 660
Flags: W
HStem: -103 74<90 194 283 570> 90 74<90 246 334 570> 733 20G<418.659 488>
LayerCount: 2
Back
Fore
SplineSet
327 393 m 1
 353 487 l 1
 225 435 l 1
 327 393 l 1
424 753 m 1
 488 736 l 1
 454 608 l 1
 542 644 l 1
 570 576 l 1
 430 519 l 1
 389 368 l 1
 570 295 l 1
 542 226 l 1
 370 296 l 1
 334 164 l 1
 570 164 l 1
 570 90 l 1
 315 90 l 1
 283 -29 l 1
 570 -29 l 1
 570 -103 l 1
 263 -103 l 1
 236 -203 l 1
 172 -186 l 1
 194 -103 l 1
 90 -103 l 1
 90 -29 l 1
 214 -29 l 1
 246 90 l 1
 90 90 l 1
 90 164 l 1
 266 164 l 1
 308 322 l 1
 90 411 l 1
 90 460 l 1
 377 577 l 1
 424 753 l 1
EndSplineSet
EndChar

StartChar: uni22670338
Encoding: 147 58021 147
Width: 660
Flags: W
HStem: -103 74<90 194 283 570> 90 74<90 246 334 570> 733 20G<418.597 488>
LayerCount: 2
Back
Fore
SplineSet
410 445 m 1
 404 422 l 1
 435 435 l 1
 410 445 l 1
424 753 m 1
 488 736 l 1
 429 517 l 1
 570 460 l 1
 570 411 l 1
 380 333 l 1
 334 164 l 1
 570 164 l 1
 570 90 l 1
 315 90 l 1
 283 -29 l 1
 570 -29 l 1
 570 -103 l 1
 263 -103 l 1
 236 -203 l 1
 172 -186 l 1
 194 -103 l 1
 90 -103 l 1
 90 -29 l 1
 214 -29 l 1
 246 90 l 1
 90 90 l 1
 90 164 l 1
 266 164 l 1
 303 302 l 1
 118 226 l 1
 90 295 l 1
 327 391 l 1
 348 470 l 1
 90 576 l 1
 118 644 l 1
 367 542 l 1
 424 753 l 1
EndSplineSet
EndChar

StartChar: uni2274
Encoding: 148 8820 148
Width: 660
Flags: W
HStem: -39 74<378.054 491.499> 58 74<168.501 237>
LayerCount: 2
Back
Fore
SplineSet
312 336 m 1
 333 415 l 1
 225 371 l 1
 312 336 l 1
438 -39 m 0
 383 -39 338 -8 298 25 c 1
 254 -139 l 1
 189 -122 l 1
 237 57 l 1
 232 58 227 58 222 58 c 0
 186 58 159 29 134 3 c 1
 90 46 l 1
 129 85 167 132 222 132 c 0
 234 132 245 131 256 128 c 1
 292 264 l 1
 90 346 l 1
 90 396 l 1
 357 505 l 1
 406 689 l 1
 471 672 l 1
 435 536 l 1
 542 580 l 1
 570 512 l 1
 411 447 l 1
 374 310 l 1
 570 231 l 1
 542 162 l 1
 355 238 l 1
 318 101 l 1
 353 79 389 35 438 35 c 0
 474 35 501 64 526 90 c 1
 570 46 l 1
 531 7 493 -39 438 -39 c 0
EndSplineSet
EndChar

StartChar: uni2275
Encoding: 149 8821 149
Width: 660
Flags: W
HStem: -39 74<378.054 491.499> 58 74<168.501 237>
LayerCount: 2
Back
Fore
SplineSet
395 387 m 1
 385 351 l 1
 435 371 l 1
 395 387 l 1
438 -39 m 0
 383 -39 338 -8 298 25 c 1
 254 -139 l 1
 189 -122 l 1
 237 57 l 1
 232 58 227 58 222 58 c 0
 186 58 159 29 134 3 c 1
 90 46 l 1
 129 85 167 132 222 132 c 0
 234 132 245 131 256 128 c 1
 283 229 l 1
 118 162 l 1
 90 231 l 1
 307 319 l 1
 332 413 l 1
 90 512 l 1
 118 580 l 1
 351 485 l 1
 406 689 l 1
 471 672 l 1
 414 459 l 1
 570 396 l 1
 570 346 l 1
 361 261 l 1
 318 101 l 1
 353 79 389 35 438 35 c 0
 474 35 501 64 526 90 c 1
 570 46 l 1
 531 7 493 -39 438 -39 c 0
EndSplineSet
EndChar

StartChar: uni2A850338
Encoding: 150 -1 150
Width: 660
Flags: W
HStem: -135 74<377.177 491.499> -26 20G<513.5 546> 58 74<377.049 491.499> 154 74<168.501 259.675>
LayerCount: 2
Back
Fore
SplineSet
335 422 m 1
 362 523 l 1
 225 467 l 1
 335 422 l 1
340 182 m 1
 368 160 398 132 438 132 c 0
 474 132 501 160 526 186 c 1
 570 143 l 1
 531 104 493 58 438 58 c 0
 394 58 354 78 319 104 c 1
 296 17 l 1
 317 7 336 -7 354 -22 c 0
 378 -42 406 -61 438 -61 c 0
 474 -61 501 -32 526 -6 c 1
 570 -50 l 1
 531 -89 493 -135 438 -135 c 0
 388 -135 344 -110 306 -78 c 0
 297 -70 287 -62 276 -56 c 1
 241 -187 l 1
 176 -170 l 1
 211 -40 l 1
 180 -45 156 -71 134 -93 c 1
 90 -50 l 1
 129 -11 167 35 222 35 c 0
 225 35 228 35 231 35 c 1
 260 145 l 1
 248 151 236 154 222 154 c 0
 186 154 159 125 134 99 c 1
 90 143 l 1
 129 182 167 228 222 228 c 0
 242 228 262 224 280 217 c 1
 316 351 l 1
 90 443 l 1
 90 492 l 1
 386 613 l 1
 419 737 l 1
 484 720 l 1
 464 645 l 1
 542 677 l 1
 570 608 l 1
 440 555 l 1
 397 397 l 1
 570 327 l 1
 542 258 l 1
 378 325 l 1
 340 182 l 1
EndSplineSet
EndChar

StartChar: uni2A860338
Encoding: 151 -1 151
Width: 660
Flags: W
HStem: -135 74<377.177 491.499> -26 20G<513.5 546> 58 74<377.049 491.499> 154 74<168.501 259.675>
LayerCount: 2
Back
Fore
SplineSet
418 474 m 1
 414 458 l 1
 435 467 l 1
 418 474 l 1
340 182 m 1
 368 160 398 132 438 132 c 0
 474 132 501 160 526 186 c 1
 570 143 l 1
 531 104 493 58 438 58 c 0
 394 58 354 78 319 104 c 1
 296 17 l 1
 317 7 336 -7 354 -22 c 0
 378 -42 406 -61 438 -61 c 0
 474 -61 501 -32 526 -6 c 1
 570 -50 l 1
 531 -89 493 -135 438 -135 c 0
 388 -135 344 -110 306 -78 c 0
 297 -70 287 -62 276 -56 c 1
 241 -187 l 1
 176 -170 l 1
 211 -40 l 1
 180 -45 156 -71 134 -93 c 1
 90 -50 l 1
 129 -11 167 35 222 35 c 0
 225 35 228 35 231 35 c 1
 260 145 l 1
 248 151 236 154 222 154 c 0
 186 154 159 125 134 99 c 1
 90 143 l 1
 129 182 167 228 222 228 c 0
 242 228 262 224 280 217 c 1
 312 337 l 1
 118 258 l 1
 90 327 l 1
 336 427 l 1
 355 500 l 1
 90 608 l 1
 118 677 l 1
 375 572 l 1
 419 737 l 1
 484 720 l 1
 437 546 l 1
 570 492 l 1
 570 443 l 1
 390 369 l 1
 340 182 l 1
EndSplineSet
EndChar

StartChar: uni2278
Encoding: 152 8824 152
Width: 660
Flags: W
HStem: -229 21G<165 234.349>
LayerCount: 2
Back
Fore
SplineSet
334 417 m 1
 361 516 l 1
 225 461 l 1
 334 417 l 1
326 133 m 1
 299 34 l 1
 435 89 l 1
 326 133 l 1
431 779 m 1
 495 762 l 1
 462 638 l 1
 542 671 l 1
 570 602 l 1
 438 548 l 1
 396 392 l 1
 570 321 l 1
 542 252 l 1
 376 320 l 1
 345 205 l 1
 570 113 l 1
 570 64 l 1
 275 -57 l 1
 229 -229 l 1
 165 -212 l 1
 198 -88 l 1
 118 -121 l 1
 90 -52 l 1
 222 2 l 1
 264 158 l 1
 90 229 l 1
 118 298 l 1
 284 230 l 1
 315 345 l 1
 90 437 l 1
 90 486 l 1
 385 607 l 1
 431 779 l 1
EndSplineSet
EndChar

StartChar: uni2279
Encoding: 153 8825 153
Width: 660
Flags: W
LayerCount: 2
Back
Fore
SplineSet
416 469 m 1
 412 452 l 1
 435 461 l 1
 416 469 l 1
244 81 m 1
 248 98 l 1
 225 89 l 1
 244 81 l 1
418 731 m 1
 482 714 l 1
 436 541 l 1
 570 486 l 1
 570 437 l 1
 388 362 l 1
 349 219 l 1
 542 298 l 1
 570 229 l 1
 325 130 l 1
 306 56 l 1
 570 -52 l 1
 542 -121 l 1
 286 -16 l 1
 242 -181 l 1
 178 -164 l 1
 224 9 l 1
 90 64 l 1
 90 113 l 1
 272 188 l 1
 311 331 l 1
 118 252 l 1
 90 321 l 1
 335 420 l 1
 354 494 l 1
 90 602 l 1
 118 671 l 1
 374 566 l 1
 418 731 l 1
EndSplineSet
EndChar

StartChar: uni22DA0338
Encoding: 154 -1 154
Width: 660
Flags: W
HStem: 238 74<90 285 375 570>
LayerCount: 2
Back
Fore
SplineSet
363 528 m 1
 397 654 l 1
 225 584 l 1
 363 528 l 1
297 22 m 1
 263 -104 l 1
 435 -34 l 1
 297 22 l 1
463 901 m 1
 528 884 l 1
 499 775 l 1
 542 793 l 1
 570 724 l 1
 475 685 l 1
 426 502 l 1
 570 443 l 1
 542 375 l 1
 406 430 l 1
 375 312 l 1
 570 312 l 1
 570 238 l 1
 355 238 l 1
 316 94 l 1
 570 -9 l 1
 570 -59 l 1
 239 -194 l 1
 197 -351 l 1
 132 -334 l 1
 161 -225 l 1
 118 -243 l 1
 90 -174 l 1
 185 -135 l 1
 234 48 l 1
 90 107 l 1
 118 175 l 1
 254 120 l 1
 285 238 l 1
 90 238 l 1
 90 312 l 1
 305 312 l 1
 344 456 l 1
 90 559 l 1
 90 609 l 1
 421 744 l 1
 463 901 l 1
EndSplineSet
EndChar

StartChar: uni22DB0338
Encoding: 155 -1 155
Width: 660
Flags: W
HStem: 238 74<90 286 374 570>
LayerCount: 2
Back
Fore
SplineSet
438 805 m 1
 502 788 l 1
 465 652 l 1
 570 609 l 1
 570 559 l 1
 425 500 l 1
 374 312 l 1
 570 312 l 1
 570 238 l 1
 354 238 l 1
 312 82 l 1
 542 175 l 1
 570 107 l 1
 288 -8 l 1
 276 -55 l 1
 570 -174 l 1
 542 -243 l 1
 256 -127 l 1
 222 -255 l 1
 158 -238 l 1
 195 -102 l 1
 90 -59 l 1
 90 -9 l 1
 235 50 l 1
 286 238 l 1
 90 238 l 1
 90 312 l 1
 306 312 l 1
 348 468 l 1
 118 375 l 1
 90 443 l 1
 372 558 l 1
 384 605 l 1
 90 724 l 1
 118 793 l 1
 404 677 l 1
 438 805 l 1
EndSplineSet
EndChar

StartChar: uni2A8B0338
Encoding: 156 -1 156
Width: 660
Flags: W
HStem: 142 74<90 260 349 570> 334 74<90 311 400 570>
LayerCount: 2
Back
Fore
SplineSet
386 614 m 1
 426 762 l 1
 225 680 l 1
 386 614 l 1
274 -64 m 1
 234 -212 l 1
 435 -130 l 1
 274 -64 l 1
489 998 m 1
 553 980 l 1
 527 883 l 1
 542 889 l 1
 570 821 l 1
 503 794 l 1
 448 589 l 1
 570 540 l 1
 542 471 l 1
 429 517 l 1
 400 408 l 1
 570 408 l 1
 570 334 l 1
 380 334 l 1
 349 216 l 1
 570 216 l 1
 570 142 l 1
 329 142 l 1
 293 8 l 1
 570 -105 l 1
 570 -155 l 1
 210 -301 l 1
 171 -448 l 1
 107 -430 l 1
 133 -333 l 1
 118 -339 l 1
 90 -271 l 1
 157 -244 l 1
 212 -39 l 1
 90 10 l 1
 118 79 l 1
 231 33 l 1
 260 142 l 1
 90 142 l 1
 90 216 l 1
 280 216 l 1
 311 334 l 1
 90 334 l 1
 90 408 l 1
 331 408 l 1
 367 542 l 1
 90 655 l 1
 90 705 l 1
 450 851 l 1
 489 998 l 1
EndSplineSet
EndChar

StartChar: uni2A8C0338
Encoding: 157 -1 157
Width: 660
Flags: W
HStem: 142 74<90 260 349 570> 334 74<90 311 400 570>
LayerCount: 2
Back
Fore
SplineSet
463 901 m 1
 528 884 l 1
 489 738 l 1
 570 705 l 1
 570 655 l 1
 454 608 l 1
 400 408 l 1
 570 408 l 1
 570 334 l 1
 381 334 l 1
 349 216 l 1
 570 216 l 1
 570 142 l 1
 329 142 l 1
 284 -26 l 1
 542 79 l 1
 570 10 l 1
 260 -116 l 1
 253 -142 l 1
 570 -271 l 1
 542 -339 l 1
 234 -214 l 1
 197 -351 l 1
 132 -334 l 1
 171 -188 l 1
 90 -155 l 1
 90 -105 l 1
 206 -58 l 1
 260 142 l 1
 90 142 l 1
 90 216 l 1
 279 216 l 1
 311 334 l 1
 90 334 l 1
 90 408 l 1
 331 408 l 1
 376 576 l 1
 118 471 l 1
 90 540 l 1
 400 666 l 1
 407 692 l 1
 90 821 l 1
 118 889 l 1
 426 764 l 1
 463 901 l 1
EndSplineSet
EndChar

StartChar: uni22DA0338.alt
Encoding: 158 -1 158
Width: 660
Flags: W
LayerCount: 2
Back
Fore
SplineSet
357 504 m 1
 389 625 l 1
 225 558 l 1
 357 504 l 1
303 46 m 1
 271 -75 l 1
 435 -8 l 1
 303 46 l 1
456 875 m 1
 521 858 l 1
 491 746 l 1
 542 767 l 1
 570 698 l 1
 467 656 l 1
 419 479 l 1
 570 417 l 1
 542 349 l 1
 400 407 l 1
 371 298 l 1
 570 217 l 1
 542 149 l 1
 352 226 l 1
 323 118 l 1
 570 17 l 1
 570 -33 l 1
 247 -164 l 1
 204 -325 l 1
 139 -308 l 1
 169 -196 l 1
 118 -217 l 1
 90 -148 l 1
 193 -106 l 1
 241 71 l 1
 90 133 l 1
 118 201 l 1
 260 143 l 1
 289 252 l 1
 90 333 l 1
 118 401 l 1
 308 324 l 1
 337 432 l 1
 90 533 l 1
 90 583 l 1
 413 714 l 1
 456 875 l 1
EndSplineSet
EndChar

StartChar: uni22DB0338.alt
Encoding: 159 -1 159
Width: 660
Flags: W
HStem: -229 21G<165 234.397>
LayerCount: 2
Back
Fore
SplineSet
431 779 m 1
 495 762 l 1
 459 628 l 1
 570 583 l 1
 570 533 l 1
 417 471 l 1
 380 335 l 1
 542 401 l 1
 570 333 l 1
 357 246 l 1
 320 111 l 1
 542 201 l 1
 570 133 l 1
 296 21 l 1
 282 -31 l 1
 570 -148 l 1
 542 -217 l 1
 263 -103 l 1
 229 -229 l 1
 165 -212 l 1
 201 -78 l 1
 90 -33 l 1
 90 17 l 1
 243 79 l 1
 280 215 l 1
 118 149 l 1
 90 217 l 1
 303 304 l 1
 340 439 l 1
 118 349 l 1
 90 417 l 1
 364 529 l 1
 378 581 l 1
 90 698 l 1
 118 767 l 1
 397 653 l 1
 431 779 l 1
EndSplineSet
EndChar

StartChar: uni226A0338
Encoding: 160 58059 160
Width: 1119
Flags: W
LayerCount: 2
Back
Fore
SplineSet
539 329 m 1
 569 440 l 1
 215 275 l 1
 490 147 l 1
 513 233 l 1
 475 251 l 1
 475 299 l 1
 539 329 l 1
626 653 m 1
 691 635 l 1
 619 366 l 1
 998 542 l 1
 1029 475 l 1
 600 275 l 1
 1029 75 l 1
 998 8 l 1
 575 204 l 1
 552 118 l 1
 644 75 l 1
 613 8 l 1
 533 45 l 1
 493 -103 l 1
 428 -85 l 1
 471 74 l 1
 90 251 l 1
 90 299 l 1
 594 533 l 1
 626 653 l 1
EndSplineSet
EndChar

StartChar: uni226B0338
Encoding: 161 58060 161
Width: 1119
Flags: W
LayerCount: 2
Back
Fore
SplineSet
580 221 m 1
 550 110 l 1
 904 275 l 1
 629 403 l 1
 606 317 l 1
 644 299 l 1
 644 251 l 1
 580 221 l 1
626 653 m 1
 691 635 l 1
 648 476 l 1
 1029 299 l 1
 1029 251 l 1
 525 17 l 1
 493 -103 l 1
 428 -85 l 1
 500 184 l 1
 121 8 l 1
 90 75 l 1
 519 275 l 1
 90 475 l 1
 121 542 l 1
 544 346 l 1
 567 432 l 1
 475 475 l 1
 506 542 l 1
 586 505 l 1
 626 653 l 1
EndSplineSet
EndChar

StartChar: uni22D80338
Encoding: 162 58061 162
Width: 1504
Flags: W
LayerCount: 2
Back
Fore
SplineSet
678 239 m 1
 778 358 l 1
 600 275 l 1
 678 239 l 1
1383 542 m 1
 1414 475 l 1
 985 275 l 1
 1414 75 l 1
 1383 8 l 1
 860 251 l 1
 860 299 l 1
 1383 542 l 1
1031 659 m 1
 1082 616 l 1
 1006 525 l 1
 1029 475 l 1
 921 425 l 1
 741 209 l 1
 1029 75 l 1
 998 8 l 1
 691 151 l 1
 632 81 l 1
 644 75 l 1
 613 8 l 1
 583 22 l 1
 473 -109 l 1
 422 -66 l 1
 520 51 l 1
 90 251 l 1
 90 299 l 1
 613 542 l 1
 644 475 l 1
 215 275 l 1
 570 110 l 1
 628 180 l 1
 475 251 l 1
 475 299 l 1
 891 492 l 1
 1031 659 l 1
EndSplineSet
EndChar

StartChar: uni22D90338
Encoding: 163 58062 163
Width: 1504
Flags: W
LayerCount: 2
Back
Fore
SplineSet
826 311 m 1
 726 192 l 1
 904 275 l 1
 826 311 l 1
121 8 m 1
 90 75 l 1
 519 275 l 1
 90 475 l 1
 121 542 l 1
 644 299 l 1
 644 251 l 1
 121 8 l 1
1031 659 m 1
 1082 616 l 1
 984 499 l 1
 1414 299 l 1
 1414 251 l 1
 891 8 l 1
 860 75 l 1
 1289 275 l 1
 934 440 l 1
 876 370 l 1
 1029 299 l 1
 1029 251 l 1
 613 58 l 1
 473 -109 l 1
 422 -66 l 1
 498 25 l 1
 475 75 l 1
 583 125 l 1
 763 341 l 1
 475 475 l 1
 506 542 l 1
 813 399 l 1
 872 469 l 1
 860 475 l 1
 891 542 l 1
 921 528 l 1
 1031 659 l 1
EndSplineSet
EndChar

StartChar: uni22EA
Encoding: 164 8938 164
Width: 660
Flags: W
VStem: 496 74<116 434>
LayerCount: 2
Back
Fore
SplineSet
284 232 m 1
 311 333 l 1
 205 275 l 1
 284 232 l 1
496 116 m 1
 496 434 l 1
 392 377 l 1
 344 199 l 1
 496 116 l 1
397 653 m 1
 461 635 l 1
 418 475 l 1
 496 518 l 1
 535 539 l 1
 570 518 l 1
 570 32 l 1
 535 11 l 1
 496 32 l 1
 324 126 l 1
 263 -103 l 1
 199 -85 l 1
 264 158 l 1
 90 253 l 1
 90 297 l 1
 338 432 l 1
 397 653 l 1
EndSplineSet
EndChar

StartChar: uni22EB
Encoding: 165 8939 165
Width: 660
Flags: W
VStem: 90 74<116 434>
LayerCount: 2
Back
Fore
SplineSet
376 318 m 1
 349 217 l 1
 455 275 l 1
 376 318 l 1
164 434 m 1
 164 116 l 1
 268 173 l 1
 316 351 l 1
 164 434 l 1
397 653 m 1
 461 635 l 1
 396 392 l 1
 570 297 l 1
 570 253 l 1
 322 118 l 1
 263 -103 l 1
 199 -85 l 1
 242 75 l 1
 164 32 l 1
 125 11 l 1
 90 32 l 1
 90 518 l 1
 125 539 l 1
 164 518 l 1
 336 424 l 1
 397 653 l 1
EndSplineSet
EndChar

StartChar: uni22EC
Encoding: 166 8940 166
Width: 660
Flags: W
HStem: -7 74<90 220 309 570> 528 20G<493.25 570>
VStem: 496 74<229 450>
LayerCount: 2
Back
Fore
SplineSet
304 307 m 1
 323 379 l 1
 225 339 l 1
 304 307 l 1
496 229 m 1
 496 450 l 1
 401 411 l 1
 367 282 l 1
 496 229 l 1
406 689 m 1
 471 672 l 1
 425 500 l 1
 542 548 l 1
 570 529 l 1
 570 149 l 1
 542 130 l 1
 347 209 l 1
 309 67 l 1
 570 67 l 1
 570 -7 l 1
 289 -7 l 1
 254 -139 l 1
 189 -122 l 1
 220 -7 l 1
 90 -7 l 1
 90 67 l 1
 240 67 l 1
 284 235 l 1
 90 314 l 1
 90 364 l 1
 347 469 l 1
 406 689 l 1
EndSplineSet
EndChar

StartChar: uni22ED
Encoding: 167 8941 167
Width: 660
Flags: W
HStem: -7 74<90 220 309 570> 528 20G<90 167.13>
VStem: 90 74<229 450>
LayerCount: 2
Back
Fore
SplineSet
387 359 m 1
 375 315 l 1
 435 339 l 1
 387 359 l 1
164 450 m 1
 164 229 l 1
 297 283 l 1
 324 384 l 1
 164 450 l 1
406 689 m 1
 471 672 l 1
 406 431 l 1
 570 364 l 1
 570 314 l 1
 351 225 l 1
 309 67 l 1
 570 67 l 1
 570 -7 l 1
 289 -7 l 1
 254 -139 l 1
 189 -122 l 1
 220 -7 l 1
 90 -7 l 1
 90 67 l 1
 240 67 l 1
 273 193 l 1
 118 130 l 1
 90 149 l 1
 90 529 l 1
 118 548 l 1
 344 456 l 1
 406 689 l 1
EndSplineSet
EndChar

StartChar: uni2AA60338
Encoding: 168 -1 168
Width: 717
Flags: W
VStem: 546 74<154.049 395.951>
LayerCount: 2
Back
Fore
SplineSet
308 219 m 1
 344 351 l 1
 205 275 l 1
 308 219 l 1
505 112 m 1
 533 163 546 219 546 275 c 0
 546 331 533 387 505 438 c 1
 425 395 l 1
 369 186 l 1
 505 112 l 1
425 653 m 1
 489 635 l 1
 451 493 l 1
 535 539 l 1
 570 474 l 2
 604 412 620 343 620 275 c 0
 620 207 604 138 570 76 c 2
 535 11 l 1
 349 112 l 1
 292 -103 l 1
 227 -85 l 1
 289 145 l 1
 90 253 l 1
 90 297 l 1
 370 449 l 1
 425 653 l 1
EndSplineSet
EndChar

StartChar: uni2AA70338
Encoding: 169 -1 169
Width: 717
Flags: W
VStem: 96 74<158.237 391.763>
LayerCount: 2
Back
Fore
SplineSet
408 332 m 1
 373 199 l 1
 512 275 l 1
 408 332 l 1
212 438 m 1
 185 386 170 332 170 275 c 0
 170 218 185 164 212 112 c 1
 291 155 l 1
 348 365 l 1
 212 438 l 1
425 653 m 1
 489 635 l 1
 428 405 l 1
 627 297 l 1
 627 253 l 1
 346 100 l 1
 292 -103 l 1
 227 -85 l 1
 265 56 l 1
 182 11 l 1
 164 44 l 1
 147 76 l 2
 113 138 96 207 96 275 c 0
 96 343 113 412 147 474 c 2
 164 506 l 1
 182 539 l 1
 367 438 l 1
 425 653 l 1
EndSplineSet
EndChar

StartChar: uni2AA80338
Encoding: 170 -1 170
Width: 698
Flags: W
VStem: 516 74<259.941 482.059>
LayerCount: 2
Back
Fore
SplineSet
330 329 m 1
 355 424 l 1
 225 371 l 1
 330 329 l 1
500 259 m 1
 511 296 516 333 516 371 c 0
 516 409 511 446 500 483 c 1
 432 456 l 1
 391 303 l 1
 500 259 l 1
426 689 m 1
 490 672 l 1
 456 545 l 1
 542 580 l 1
 551 557 561 535 570 512 c 1
 569 511 l 1
 584 465 590 418 590 371 c 0
 590 324 583 277 569 231 c 1
 570 231 l 1
 561 209 l 2
 559 205 558 200 556 196 c 1
 542 162 l 1
 372 231 l 1
 345 130 l 1
 570 38 l 1
 542 -30 l 1
 326 58 l 1
 273 -139 l 1
 209 -122 l 1
 264 83 l 1
 90 154 l 1
 118 222 l 1
 283 155 l 1
 310 256 l 1
 90 346 l 1
 90 396 l 1
 379 514 l 1
 426 689 l 1
EndSplineSet
EndChar

StartChar: uni2AA90338
Encoding: 171 -1 171
Width: 698
Flags: W
VStem: 108 74<260.887 482.082>
LayerCount: 2
Back
Fore
SplineSet
416 394 m 1
 402 342 l 1
 473 371 l 1
 416 394 l 1
199 483 m 1
 188 447 182 409 182 371 c 0
 182 333 188 297 199 260 c 1
 325 311 l 1
 354 420 l 1
 199 483 l 1
426 689 m 1
 490 672 l 1
 435 466 l 1
 608 396 l 1
 608 346 l 1
 378 252 l 1
 344 126 l 1
 581 222 l 1
 608 154 l 1
 320 37 l 1
 273 -139 l 1
 209 -122 l 1
 243 5 l 1
 156 -30 l 1
 128 38 l 1
 267 94 l 1
 301 221 l 1
 156 162 l 1
 142 196 l 1
 141 199 139 203 138 206 c 2
 128 231 l 1
 129 232 l 1
 115 278 108 324 108 371 c 0
 108 418 116 465 130 511 c 1
 128 512 l 1
 137 535 147 557 156 580 c 1
 373 492 l 1
 426 689 l 1
EndSplineSet
EndChar

StartChar: uni228F0338
Encoding: 172 58884 172
Width: 660
Flags: W
HStem: -3 74<164 221 310 570> 479 74<164 350 439 570>
VStem: 90 74<71 479>
LayerCount: 2
Back
Fore
SplineSet
164 71 m 1
 241 71 l 1
 350 479 l 1
 164 479 l 1
 164 71 l 1
410 701 m 1
 474 684 l 1
 439 553 l 1
 570 553 l 1
 570 479 l 1
 419 479 l 1
 310 71 l 1
 570 71 l 1
 570 -3 l 1
 290 -3 l 1
 250 -151 l 1
 186 -134 l 1
 221 -3 l 1
 90 -3 l 1
 90 553 l 1
 370 553 l 1
 410 701 l 1
EndSplineSet
EndChar

StartChar: uni22900338
Encoding: 173 58901 173
Width: 660
Flags: W
HStem: -3 74<90 221 310 496> 479 74<90 350 439 496>
VStem: 496 74<71 479>
LayerCount: 2
Back
Fore
SplineSet
496 71 m 1
 496 479 l 1
 419 479 l 1
 310 71 l 1
 496 71 l 1
410 701 m 1
 474 684 l 1
 439 553 l 1
 570 553 l 1
 570 -3 l 1
 290 -3 l 1
 250 -151 l 1
 186 -134 l 1
 221 -3 l 1
 90 -3 l 1
 90 71 l 1
 241 71 l 1
 350 479 l 1
 90 479 l 1
 90 553 l 1
 370 553 l 1
 410 701 l 1
EndSplineSet
EndChar

StartChar: uni22E2
Encoding: 174 8930 174
Width: 660
Flags: W
HStem: -39 74<90 211 300 570> 154 74<164 263 352 570> 515 74<164 360 449 570>
VStem: 90 74<228 515>
LayerCount: 2
Back
Fore
SplineSet
164 228 m 1
 283 228 l 1
 360 515 l 1
 164 515 l 1
 164 228 l 1
419 737 m 1
 484 720 l 1
 449 589 l 1
 570 589 l 1
 570 515 l 1
 429 515 l 1
 352 228 l 1
 570 228 l 1
 570 154 l 1
 332 154 l 1
 300 35 l 1
 570 35 l 1
 570 -39 l 1
 281 -39 l 1
 241 -187 l 1
 176 -170 l 1
 211 -39 l 1
 90 -39 l 1
 90 35 l 1
 231 35 l 1
 263 154 l 1
 90 154 l 1
 90 589 l 1
 379 589 l 1
 419 737 l 1
EndSplineSet
EndChar

StartChar: uni22E3
Encoding: 175 8931 175
Width: 660
Flags: W
HStem: -39 74<90 211 300 570> 154 74<90 263 352 496> 515 74<90 360 449 496>
VStem: 496 74<228 515>
LayerCount: 2
Back
Fore
SplineSet
496 228 m 1
 496 515 l 1
 429 515 l 1
 352 228 l 1
 496 228 l 1
419 737 m 1
 484 720 l 1
 449 589 l 1
 570 589 l 1
 570 154 l 1
 332 154 l 1
 300 35 l 1
 570 35 l 1
 570 -39 l 1
 281 -39 l 1
 241 -187 l 1
 176 -170 l 1
 211 -39 l 1
 90 -39 l 1
 90 35 l 1
 231 35 l 1
 263 154 l 1
 90 154 l 1
 90 228 l 1
 283 228 l 1
 360 515 l 1
 90 515 l 1
 90 589 l 1
 379 589 l 1
 419 737 l 1
EndSplineSet
EndChar

StartChar: sym021_uni0338
Encoding: 176 -1 176
Width: 660
Flags: W
HStem: -135 74<90 185 275 570> 58 74<90 237 326 570> 250 74<164 289 378 570> 611 74<164 385 475 570>
VStem: 90 74<324 611>
LayerCount: 2
Back
Fore
SplineSet
164 324 m 1
 308 324 l 1
 385 611 l 1
 164 611 l 1
 164 324 l 1
432 785 m 1
 497 768 l 1
 475 685 l 1
 570 685 l 1
 570 611 l 1
 455 611 l 1
 378 324 l 1
 570 324 l 1
 570 250 l 1
 358 250 l 1
 326 132 l 1
 570 132 l 1
 570 58 l 1
 307 58 l 1
 275 -61 l 1
 570 -61 l 1
 570 -135 l 1
 255 -135 l 1
 228 -235 l 1
 163 -218 l 1
 185 -135 l 1
 90 -135 l 1
 90 -61 l 1
 205 -61 l 1
 237 58 l 1
 90 58 l 1
 90 132 l 1
 257 132 l 1
 289 250 l 1
 90 250 l 1
 90 685 l 1
 405 685 l 1
 432 785 l 1
EndSplineSet
EndChar

StartChar: sym022_uni0338
Encoding: 177 -1 177
Width: 660
Flags: W
HStem: -135 74<90 185 275 570> 58 74<90 237 326 570> 250 74<90 289 378 496> 611 74<90 385 475 496>
VStem: 496 74<324 611>
LayerCount: 2
Back
Fore
SplineSet
496 324 m 1
 496 611 l 1
 455 611 l 1
 378 324 l 1
 496 324 l 1
432 785 m 1
 497 768 l 1
 475 685 l 1
 570 685 l 1
 570 250 l 1
 358 250 l 1
 326 132 l 1
 570 132 l 1
 570 58 l 1
 307 58 l 1
 275 -61 l 1
 570 -61 l 1
 570 -135 l 1
 255 -135 l 1
 228 -235 l 1
 163 -218 l 1
 185 -135 l 1
 90 -135 l 1
 90 -61 l 1
 205 -61 l 1
 237 58 l 1
 90 58 l 1
 90 132 l 1
 257 132 l 1
 289 250 l 1
 90 250 l 1
 90 324 l 1
 308 324 l 1
 385 611 l 1
 90 611 l 1
 90 685 l 1
 405 685 l 1
 432 785 l 1
EndSplineSet
EndChar

StartChar: sym023_uni0338
Encoding: 178 -1 178
Width: 660
Flags: W
HStem: -3 74<164 221 310 570> 142 74<348 570> 334 74<308 312 400 570> 479 74<164 350 439 570>
VStem: 90 74<71 479>
LayerCount: 2
Back
Fore
SplineSet
260 142 m 1
 234 142 l 1
 234 408 l 1
 331 408 l 1
 350 479 l 1
 164 479 l 1
 164 71 l 1
 241 71 l 1
 260 142 l 1
308 321 m 1
 312 334 l 1
 308 334 l 1
 308 321 l 1
410 701 m 1
 474 684 l 1
 439 553 l 1
 570 553 l 1
 570 479 l 1
 419 479 l 1
 400 408 l 1
 570 408 l 1
 570 334 l 1
 380 334 l 1
 348 216 l 1
 570 216 l 1
 570 142 l 1
 329 142 l 1
 310 71 l 1
 570 71 l 1
 570 -3 l 1
 290 -3 l 1
 250 -151 l 1
 186 -134 l 1
 221 -3 l 1
 90 -3 l 1
 90 553 l 1
 370 553 l 1
 410 701 l 1
EndSplineSet
EndChar

StartChar: sym024_uni0338
Encoding: 179 -1 179
Width: 660
Flags: W
HStem: -3 74<90 221 310 496> 142 74<90 260 348 352> 334 74<90 312> 479 74<90 350 439 496>
VStem: 496 74<71 479>
LayerCount: 2
Back
Fore
SplineSet
329 142 m 1
 310 71 l 1
 496 71 l 1
 496 479 l 1
 419 479 l 1
 400 408 l 1
 426 408 l 1
 426 142 l 1
 329 142 l 1
352 229 m 1
 348 216 l 1
 352 216 l 1
 352 229 l 1
410 701 m 1
 474 684 l 1
 439 553 l 1
 570 553 l 1
 570 -3 l 1
 290 -3 l 1
 250 -151 l 1
 186 -134 l 1
 221 -3 l 1
 90 -3 l 1
 90 71 l 1
 241 71 l 1
 260 142 l 1
 90 142 l 1
 90 216 l 1
 280 216 l 1
 312 334 l 1
 90 334 l 1
 90 408 l 1
 331 408 l 1
 350 479 l 1
 90 479 l 1
 90 553 l 1
 370 553 l 1
 410 701 l 1
EndSplineSet
EndChar

StartChar: notsubset
Encoding: 180 8836 180
Width: 660
Flags: W
HStem: -3 74<310.233 570> 479 74<251.161 350 439 570>
VStem: 90 74<172.856 375.603>
LayerCount: 2
Back
Fore
SplineSet
247 95 m 1
 350 479 l 1
 324 479 l 2
 227 479 164 380 164 275 c 0
 164 201 195 131 247 95 c 1
410 701 m 1
 474 684 l 1
 439 553 l 1
 570 553 l 1
 570 479 l 1
 419 479 l 1
 310 72 l 1
 315 72 319 71 324 71 c 2
 570 71 l 1
 570 -3 l 1
 324 -3 l 2
 313 -3 301 -2 290 -0 c 1
 250 -151 l 1
 186 -134 l 1
 228 21 l 1
 144 65 90 166 90 275 c 0
 90 421 186 553 324 553 c 2
 370 553 l 1
 410 701 l 1
EndSplineSet
EndChar

StartChar: uni2285
Encoding: 181 8837 181
Width: 660
Flags: W
HStem: -3 74<90 221 310 408.839> 479 74<90 349.767>
VStem: 496 74<174.397 377.144>
LayerCount: 2
Back
Fore
SplineSet
413 455 m 1
 310 71 l 1
 336 71 l 2
 433 71 496 170 496 275 c 0
 496 349 465 419 413 455 c 1
410 701 m 1
 474 684 l 1
 432 529 l 1
 516 485 570 384 570 275 c 0
 570 129 474 -3 336 -3 c 2
 290 -3 l 1
 250 -151 l 1
 186 -134 l 1
 221 -3 l 1
 90 -3 l 1
 90 71 l 1
 241 71 l 1
 350 478 l 1
 345 478 341 479 336 479 c 2
 90 479 l 1
 90 553 l 1
 336 553 l 2
 347 553 359 552 370 550 c 1
 410 701 l 1
EndSplineSet
EndChar

StartChar: uni2288
Encoding: 182 8840 182
Width: 660
Flags: W
HStem: -39 74<90 211 300 570> 154 74<217.611 263 352 570> 515 74<217.451 360 449 570>
VStem: 90 74<285.917 455.572>
LayerCount: 2
Back
Fore
SplineSet
283 228 m 1
 360 515 l 1
 275 515 l 2
 207 515 164 445 164 371 c 0
 164 297 207 228 275 228 c 2
 283 228 l 1
419 737 m 1
 484 720 l 1
 449 589 l 1
 570 589 l 1
 570 515 l 1
 429 515 l 1
 352 228 l 1
 570 228 l 1
 570 154 l 1
 332 154 l 1
 300 35 l 1
 570 35 l 1
 570 -39 l 1
 281 -39 l 1
 241 -187 l 1
 176 -170 l 1
 211 -39 l 1
 90 -39 l 1
 90 35 l 1
 231 35 l 1
 263 154 l 1
 161 161 90 261 90 371 c 0
 90 486 166 589 275 589 c 2
 379 589 l 1
 419 737 l 1
EndSplineSet
EndChar

StartChar: uni2289
Encoding: 183 8841 183
Width: 660
Flags: W
HStem: -39 74<90 211 300 570> 154 74<90 263 352 442.549> 515 74<90 360>
VStem: 496 74<284.514 456.603>
LayerCount: 2
Back
Fore
SplineSet
426 505 m 1
 352 228 l 1
 385 228 l 2
 453 228 496 297 496 371 c 0
 496 429 470 483 426 505 c 1
419 737 m 1
 484 720 l 1
 446 577 l 1
 521 547 570 463 570 371 c 0
 570 257 494 154 385 154 c 2
 332 154 l 1
 300 35 l 1
 570 35 l 1
 570 -39 l 1
 281 -39 l 1
 241 -187 l 1
 176 -170 l 1
 211 -39 l 1
 90 -39 l 1
 90 35 l 1
 231 35 l 1
 263 154 l 1
 90 154 l 1
 90 228 l 1
 283 228 l 1
 360 515 l 1
 90 515 l 1
 90 589 l 1
 379 589 l 1
 419 737 l 1
EndSplineSet
EndChar

StartChar: uni2AC50338
Encoding: 184 58030 184
Width: 660
Flags: W
HStem: -135 74<90 185 275 570> 58 74<90 237 326 570> 250 74<217.451 289 378 570> 611 74<217.451 385 475 570>
VStem: 90 74<383.121 551.572>
LayerCount: 2
Back
Fore
SplineSet
308 324 m 1
 385 611 l 1
 275 611 l 2
 207 611 164 541 164 467 c 0
 164 394 207 324 275 324 c 2
 308 324 l 1
432 785 m 1
 497 768 l 1
 475 685 l 1
 570 685 l 1
 570 611 l 1
 455 611 l 1
 378 324 l 1
 570 324 l 1
 570 250 l 1
 358 250 l 1
 326 132 l 1
 570 132 l 1
 570 58 l 1
 307 58 l 1
 275 -61 l 1
 570 -61 l 1
 570 -135 l 1
 255 -135 l 1
 228 -235 l 1
 163 -218 l 1
 185 -135 l 1
 90 -135 l 1
 90 -61 l 1
 205 -61 l 1
 237 58 l 1
 90 58 l 1
 90 132 l 1
 257 132 l 1
 289 250 l 1
 275 250 l 2
 166 250 90 353 90 467 c 0
 90 582 166 685 275 685 c 2
 405 685 l 1
 432 785 l 1
EndSplineSet
EndChar

StartChar: uni2AC60338
Encoding: 185 58032 185
Width: 660
Flags: W
HStem: -135 74<90 185 275 570> 58 74<90 237 326 570> 250 74<90 289 378 442.549> 611 74<90 385>
VStem: 496 74<383.121 551.988>
LayerCount: 2
Back
Fore
SplineSet
448 586 m 1
 378 324 l 1
 385 324 l 2
 453 324 496 394 496 467 c 0
 496 514 478 559 448 586 c 1
432 785 m 1
 497 768 l 1
 469 662 l 1
 531 625 570 549 570 467 c 0
 570 353 494 250 385 250 c 2
 358 250 l 1
 326 132 l 1
 570 132 l 1
 570 58 l 1
 307 58 l 1
 275 -61 l 1
 570 -61 l 1
 570 -135 l 1
 255 -135 l 1
 228 -235 l 1
 163 -218 l 1
 185 -135 l 1
 90 -135 l 1
 90 -61 l 1
 205 -61 l 1
 237 58 l 1
 90 58 l 1
 90 132 l 1
 257 132 l 1
 289 250 l 1
 90 250 l 1
 90 324 l 1
 308 324 l 1
 385 611 l 1
 90 611 l 1
 90 685 l 1
 385 685 l 2
 392 685 399 685 405 684 c 1
 432 785 l 1
EndSplineSet
EndChar

StartChar: uni22D00338
Encoding: 186 -1 186
Width: 660
Flags: W
HStem: -3 74<310.233 570> 142 74<348 570> 334 74<400 570> 479 74<251.161 350 439 570>
VStem: 90 74<172.856 375.603>
LayerCount: 2
Back
Fore
SplineSet
331 407 m 1
 350 479 l 1
 324 479 l 2
 227 479 164 380 164 275 c 0
 164 201 195 131 247 95 c 1
 270 178 l 1
 248 203 234 238 234 275 c 0
 234 339 273 397 331 407 c 1
410 701 m 1
 474 684 l 1
 439 553 l 1
 570 553 l 1
 570 479 l 1
 419 479 l 1
 400 408 l 1
 570 408 l 1
 570 334 l 1
 380 334 l 1
 348 216 l 1
 570 216 l 1
 570 142 l 1
 348 142 l 2
 341 142 335 143 329 144 c 1
 310 72 l 1
 315 72 319 71 324 71 c 2
 570 71 l 1
 570 -3 l 1
 324 -3 l 2
 313 -3 301 -2 290 -0 c 1
 250 -151 l 1
 186 -134 l 1
 228 21 l 1
 144 65 90 166 90 275 c 0
 90 421 186 553 324 553 c 2
 370 553 l 1
 410 701 l 1
EndSplineSet
EndChar

StartChar: uni22D10338
Encoding: 187 -1 187
Width: 660
Flags: W
HStem: -3 74<90 221 310 408.839> 142 74<90 260> 334 74<90 312> 479 74<90 349.767>
VStem: 496 74<174.397 377.144>
LayerCount: 2
Back
Fore
SplineSet
329 143 m 1
 310 71 l 1
 336 71 l 2
 433 71 496 170 496 275 c 0
 496 349 465 419 413 455 c 1
 390 372 l 1
 412 347 426 312 426 275 c 0
 426 211 387 152 329 143 c 1
410 701 m 1
 474 684 l 1
 432 529 l 1
 516 485 570 384 570 275 c 0
 570 129 474 -3 336 -3 c 2
 290 -3 l 1
 250 -151 l 1
 186 -134 l 1
 221 -3 l 1
 90 -3 l 1
 90 71 l 1
 241 71 l 1
 260 142 l 1
 90 142 l 1
 90 216 l 1
 280 216 l 1
 312 334 l 1
 90 334 l 1
 90 408 l 1
 313 408 l 2
 319 408 325 407 331 406 c 1
 350 478 l 1
 345 478 341 479 336 479 c 2
 90 479 l 1
 90 553 l 1
 336 553 l 2
 347 553 359 552 370 550 c 1
 410 701 l 1
EndSplineSet
EndChar

StartChar: uni2280
Encoding: 188 8832 188
Width: 660
Flags: W
HStem: 238 74<90 243.508>
LayerCount: 2
Back
Fore
SplineSet
295 275 m 1
 296 275 l 2
 295 275 l 1
397 653 m 1
 461 635 l 1
 407 434 l 1
 445 467 482 504 516 541 c 1
 570 490 l 1
 511 427 446 366 376 320 c 1
 356 243 l 1
 435 196 505 129 570 60 c 1
 516 9 l 1
 461 68 402 126 336 169 c 1
 263 -103 l 1
 199 -85 l 1
 276 203 l 1
 230 225 180 238 127 238 c 2
 90 238 l 1
 90 312 l 1
 127 312 l 2
 198 312 262 335 321 371 c 1
 397 653 l 1
EndSplineSet
EndChar

StartChar: uni2281
Encoding: 189 8833 189
Width: 660
Flags: W
HStem: 238 74<416.492 570>
LayerCount: 2
Back
Fore
SplineSet
365 275 m 1
 364 275 l 2
 365 275 l 1
397 653 m 1
 461 635 l 1
 384 347 l 1
 430 325 480 312 533 312 c 2
 570 312 l 1
 570 238 l 1
 533 238 l 2
 462 238 398 215 339 179 c 1
 263 -103 l 1
 199 -85 l 1
 253 116 l 1
 215 83 178 46 144 9 c 1
 90 60 l 1
 149 123 214 184 284 230 c 1
 304 307 l 1
 225 354 155 421 90 490 c 1
 144 541 l 1
 199 482 258 424 324 381 c 1
 397 653 l 1
EndSplineSet
EndChar

StartChar: uni2AAF0338
Encoding: 190 58844 190
Width: 660
Flags: W
HStem: -7 74<90 220 309 570> 302 74<90 274.078> 525 20G<500.5 537.176>
LayerCount: 2
Back
Fore
SplineSet
406 689 m 1
 471 672 l 1
 414 460 l 1
 451 484 485 512 516 545 c 1
 570 494 l 1
 517 438 456 393 388 361 c 1
 377 322 l 1
 449 290 515 243 570 184 c 1
 516 133 l 1
 470 182 417 221 358 249 c 1
 309 67 l 1
 570 67 l 1
 570 -7 l 1
 289 -7 l 1
 254 -139 l 1
 189 -122 l 1
 220 -7 l 1
 90 -7 l 1
 90 67 l 1
 240 67 l 1
 295 275 l 1
 241 293 185 302 127 302 c 2
 90 302 l 1
 90 376 l 1
 127 376 l 2
 199 376 268 391 333 418 c 1
 406 689 l 1
EndSplineSet
EndChar

StartChar: uni2AB00338
Encoding: 191 58865 191
Width: 660
Flags: W
HStem: -7 74<90 220 309 570> 302 74<399.064 570> 525 20G<122.824 170.5>
LayerCount: 2
Back
Fore
SplineSet
406 689 m 1
 471 672 l 1
 397 394 l 1
 441 382 487 376 533 376 c 2
 570 376 l 1
 570 302 l 1
 533 302 l 2
 475 302 419 293 365 275 c 1
 309 67 l 1
 570 67 l 1
 570 -7 l 1
 289 -7 l 1
 254 -139 l 1
 189 -122 l 1
 220 -7 l 1
 90 -7 l 1
 90 67 l 1
 240 67 l 1
 286 241 l 1
 233 213 185 177 144 133 c 1
 90 184 l 1
 152 251 228 301 311 334 c 1
 313 343 l 1
 229 376 153 427 90 494 c 1
 144 545 l 1
 197 488 262 444 333 415 c 1
 406 689 l 1
EndSplineSet
EndChar

StartChar: uni22E0
Encoding: 192 8928 192
Width: 660
Flags: W
HStem: 127 71<91.1562 256> 142 74<90 254.639> 334 74<90 274.998>
LayerCount: 2
Back
Fore
SplineSet
406 689 m 1xa0
 471 672 l 1
 425 499 l 1
 458 521 488 547 516 577 c 1
 570 526 l 1
 520 473 462 430 398 398 c 1
 385 351 l 1
 454 319 517 273 570 216 c 1x60
 516 166 l 1
 472 212 421 250 365 278 c 1
 337 171 l 1
 404 135 465 82 522 25 c 1
 469 -25 l 1
 422 23 373 68 318 99 c 1
 254 -139 l 1
 189 -122 l 1
 256 127 l 1xa0
 227 137 196 142 164 142 c 2
 90 142 l 1
 90 216 l 1
 164 216 l 2x60
 203 216 240 210 275 198 c 1
 303 304 l 1
 247 324 187 334 127 334 c 2
 90 334 l 1
 90 408 l 1
 127 408 l 2
 202 408 276 424 343 454 c 1
 406 689 l 1xa0
EndSplineSet
EndChar

StartChar: uni22E1
Encoding: 193 8929 193
Width: 660
Flags: W
HStem: 142 74<385.847 570> 334 74<406.969 570>
LayerCount: 2
Back
Fore
SplineSet
406 689 m 1
 471 672 l 1
 405 424 l 1
 447 414 489 408 533 408 c 2
 570 408 l 1
 570 334 l 1
 533 334 l 2
 479 334 425 326 374 310 c 1
 339 179 l 1
 388 202 440 216 496 216 c 2
 570 216 l 1
 570 142 l 1
 496 142 l 2
 428 142 368 118 313 81 c 1
 254 -139 l 1
 189 -122 l 1
 224 7 l 1
 213 -4 202 -14 191 -25 c 1
 138 25 l 1
 175 62 215 98 256 128 c 1
 296 279 l 1
 240 251 188 213 144 166 c 1
 90 216 l 1
 155 285 234 338 321 370 c 1
 321 372 l 1
 234 404 155 457 90 526 c 1
 144 577 l 1
 199 518 266 473 340 444 c 1
 406 689 l 1
EndSplineSet
EndChar

StartChar: uni2AB30338
Encoding: 194 -1 194
Width: 660
Flags: W
HStem: -103 74<90 194 283 570> 90 74<90 246 334 570> 398 74<90 274.487> 733 20G<418.602 488>
LayerCount: 2
Back
Fore
SplineSet
338 434 m 1
 339 436 l 1
 338 436 337 435 336 435 c 1
 337 435 337 434 338 434 c 1
424 753 m 1
 488 736 l 1
 446 578 l 1
 471 597 494 618 516 641 c 1
 570 591 l 1
 525 543 473 503 417 472 c 1
 400 407 l 1
 463 375 521 333 570 280 c 1
 516 230 l 1
 476 273 430 307 380 334 c 1
 334 164 l 1
 570 164 l 1
 570 90 l 1
 315 90 l 1
 283 -29 l 1
 570 -29 l 1
 570 -103 l 1
 263 -103 l 1
 236 -203 l 1
 172 -186 l 1
 194 -103 l 1
 90 -103 l 1
 90 -29 l 1
 214 -29 l 1
 246 90 l 1
 90 90 l 1
 90 164 l 1
 266 164 l 1
 319 362 l 1
 258 385 193 398 127 398 c 2
 90 398 l 1
 90 472 l 1
 127 472 l 2
 210 472 290 491 363 527 c 1
 424 753 l 1
EndSplineSet
EndChar

StartChar: uni2AB40338
Encoding: 195 -1 195
Width: 660
Flags: W
HStem: -103 74<90 194 283 570> 90 74<90 246 334 570> 398 74<421.931 570> 733 20G<418.661 488>
LayerCount: 2
Back
Fore
SplineSet
424 753 m 1
 488 736 l 1
 420 484 l 1
 457 476 495 472 533 472 c 2
 570 472 l 1
 570 398 l 1
 533 398 l 2
 485 398 437 391 392 379 c 1
 334 164 l 1
 570 164 l 1
 570 90 l 1
 315 90 l 1
 283 -29 l 1
 570 -29 l 1
 570 -103 l 1
 263 -103 l 1
 236 -203 l 1
 172 -186 l 1
 194 -103 l 1
 90 -103 l 1
 90 -29 l 1
 214 -29 l 1
 246 90 l 1
 90 90 l 1
 90 164 l 1
 266 164 l 1
 316 352 l 1
 252 324 193 283 144 230 c 1
 90 280 l 1
 156 350 236 403 324 435 c 1
 236 467 156 521 90 591 c 1
 144 641 l 1
 203 578 277 530 357 502 c 1
 424 753 l 1
EndSplineSet
EndChar

StartChar: uni227E0338
Encoding: 196 59446 196
Width: 660
Flags: W
HStem: -39 74<378.054 491.499> 58 74<168.501 237> 334 74<90 274.998>
LayerCount: 2
Back
Fore
SplineSet
438 -39 m 0
 383 -39 338 -8 298 25 c 1
 254 -139 l 1
 189 -122 l 1
 237 57 l 1
 232 58 227 58 222 58 c 0
 186 58 159 29 134 3 c 1
 90 46 l 1
 129 85 167 132 222 132 c 0
 234 132 245 131 256 128 c 1
 303 304 l 1
 247 324 187 334 127 334 c 2
 90 334 l 1
 90 408 l 1
 127 408 l 2
 202 408 276 424 343 454 c 1
 406 689 l 1
 471 672 l 1
 425 499 l 1
 458 521 488 547 516 577 c 1
 570 526 l 1
 520 473 462 430 398 398 c 1
 385 351 l 1
 454 319 517 273 570 216 c 1
 516 166 l 1
 472 212 421 250 365 278 c 1
 318 101 l 1
 353 79 389 35 438 35 c 0
 474 35 501 64 526 90 c 1
 570 46 l 1
 531 7 493 -39 438 -39 c 0
EndSplineSet
EndChar

StartChar: uni227F0338
Encoding: 197 59447 197
Width: 660
Flags: W
HStem: -39 74<378.054 491.499> 58 74<168.501 237> 334 74<406.969 570>
LayerCount: 2
Back
Fore
SplineSet
438 -39 m 0
 383 -39 338 -8 298 25 c 1
 254 -139 l 1
 189 -122 l 1
 237 57 l 1
 232 58 227 58 222 58 c 0
 186 58 159 29 134 3 c 1
 90 46 l 1
 129 85 167 132 222 132 c 0
 234 132 245 131 256 128 c 1
 296 279 l 1
 240 251 188 213 144 166 c 1
 90 216 l 1
 155 285 234 338 321 370 c 1
 321 372 l 1
 234 404 155 457 90 526 c 1
 144 577 l 1
 199 518 266 473 340 444 c 1
 406 689 l 1
 471 672 l 1
 405 424 l 1
 447 414 489 408 533 408 c 2
 570 408 l 1
 570 334 l 1
 533 334 l 2
 479 334 425 326 374 310 c 1
 318 101 l 1
 353 79 389 35 438 35 c 0
 474 35 501 64 526 90 c 1
 570 46 l 1
 531 7 493 -39 438 -39 c 0
EndSplineSet
EndChar

StartChar: uni2AB70338
Encoding: 198 -1 198
Width: 660
Flags: W
HStem: -135 74<377.177 491.499> -26 20G<513.5 546> 58 74<377.049 491.499> 154 74<168.501 259.675> 430 74<90 277.246>
LayerCount: 2
Back
Fore
SplineSet
346 463 m 1
 348 472 l 1
 344 470 340 469 336 467 c 1
 339 466 343 464 346 463 c 1
340 182 m 1
 368 160 398 132 438 132 c 0
 474 132 501 160 526 186 c 1
 570 143 l 1
 531 104 493 58 438 58 c 0
 394 58 354 78 319 104 c 1
 296 17 l 1
 317 7 336 -7 354 -22 c 0
 378 -42 406 -61 438 -61 c 0
 474 -61 501 -32 526 -6 c 1
 570 -50 l 1
 531 -89 493 -135 438 -135 c 0
 388 -135 344 -110 306 -78 c 0
 297 -70 287 -62 276 -56 c 1
 241 -187 l 1
 176 -170 l 1
 211 -40 l 1
 180 -45 156 -71 134 -93 c 1
 90 -50 l 1
 129 -11 167 35 222 35 c 0
 225 35 228 35 231 35 c 1
 260 145 l 1
 248 151 236 154 222 154 c 0
 186 154 159 125 134 99 c 1
 90 143 l 1
 129 182 167 228 222 228 c 0
 242 228 262 224 280 217 c 1
 326 392 l 1
 263 417 196 430 127 430 c 2
 90 430 l 1
 90 504 l 1
 127 504 l 2
 213 504 298 525 373 564 c 1
 419 737 l 1
 484 720 l 1
 457 619 l 1
 478 636 498 653 516 673 c 1
 570 623 l 1
 528 578 480 540 428 510 c 1
 408 435 l 1
 468 404 523 363 570 312 c 1
 516 262 l 1
 478 302 435 336 388 362 c 1
 340 182 l 1
EndSplineSet
EndChar

StartChar: uni2AB80338
Encoding: 199 -1 199
Width: 660
Flags: W
HStem: -135 74<377.177 491.499> -26 20G<513.5 546> 58 74<377.049 491.499> 154 74<168.501 259.675> 430 74<430.594 570>
LayerCount: 2
Back
Fore
SplineSet
340 182 m 1
 368 160 398 132 438 132 c 0
 474 132 501 160 526 186 c 1
 570 143 l 1
 531 104 493 58 438 58 c 0
 394 58 354 78 319 104 c 1
 296 17 l 1
 317 7 336 -7 354 -22 c 0
 378 -42 406 -61 438 -61 c 0
 474 -61 501 -32 526 -6 c 1
 570 -50 l 1
 531 -89 493 -135 438 -135 c 0
 388 -135 344 -110 306 -78 c 0
 297 -70 287 -62 276 -56 c 1
 241 -187 l 1
 176 -170 l 1
 211 -40 l 1
 180 -45 156 -71 134 -93 c 1
 90 -50 l 1
 129 -11 167 35 222 35 c 0
 225 35 228 35 231 35 c 1
 260 145 l 1
 248 151 236 154 222 154 c 0
 186 154 159 125 134 99 c 1
 90 143 l 1
 129 182 167 228 222 228 c 0
 242 228 262 224 280 217 c 1
 326 388 l 1
 258 359 196 317 144 262 c 1
 90 312 l 1
 156 382 236 435 324 467 c 1
 236 499 156 553 90 623 c 1
 144 673 l 1
 205 608 281 560 364 532 c 1
 419 737 l 1
 484 720 l 1
 429 514 l 1
 463 507 498 504 533 504 c 2
 570 504 l 1
 570 430 l 1
 533 430 l 2
 488 430 444 425 402 414 c 1
 340 182 l 1
EndSplineSet
EndChar

StartChar: uni22D60338
Encoding: 200 -1 200
Width: 660
Flags: W
HStem: 212 126<472.17 541.83>
VStem: 444 126<240.17 309.83>
LayerCount: 2
Back
Fore
SplineSet
284 232 m 1
 311 333 l 1
 205 275 l 1
 284 232 l 1
570 275 m 0
 570 262 556 248 545 237 c 0
 534 226 520 212 507 212 c 0
 494 212 480 226 469 237 c 0
 458 248 444 262 444 275 c 0
 444 288 458 302 469 313 c 0
 480 324 494 338 507 338 c 0
 520 338 534 324 545 313 c 0
 556 302 570 288 570 275 c 0
397 653 m 1
 461 635 l 1
 418 475 l 1
 535 539 l 1
 570 474 l 1
 392 377 l 1
 344 199 l 1
 570 76 l 1
 535 11 l 1
 324 126 l 1
 263 -103 l 1
 199 -85 l 1
 264 158 l 1
 90 253 l 1
 90 297 l 1
 338 432 l 1
 397 653 l 1
EndSplineSet
EndChar

StartChar: uni22D70338
Encoding: 201 -1 201
Width: 660
Flags: W
HStem: 212 126<118.17 187.83>
VStem: 90 126<240.17 309.83>
LayerCount: 2
Back
Fore
SplineSet
376 318 m 1
 349 217 l 1
 455 275 l 1
 376 318 l 1
216 275 m 0
 216 262 202 248 191 237 c 0
 180 226 166 212 153 212 c 0
 140 212 126 226 115 237 c 0
 104 248 90 262 90 275 c 0
 90 288 104 302 115 313 c 0
 126 324 140 338 153 338 c 0
 166 338 180 324 191 313 c 0
 202 302 216 288 216 275 c 0
397 653 m 1
 461 635 l 1
 396 392 l 1
 570 297 l 1
 570 253 l 1
 322 118 l 1
 263 -103 l 1
 199 -85 l 1
 242 75 l 1
 125 11 l 1
 90 76 l 1
 268 173 l 1
 316 351 l 1
 90 474 l 1
 125 539 l 1
 336 424 l 1
 397 653 l 1
EndSplineSet
EndChar

StartChar: sym025_uni0338
Encoding: 202 -1 202
Width: 660
Flags: W
HStem: -7 74<90 220 309 570> 276 126<472.17 541.83> 528 20G<493.25 550.235>
VStem: 444 126<304.424 373.83>
LayerCount: 2
Back
Fore
SplineSet
304 307 m 1
 323 379 l 1
 225 339 l 1
 304 307 l 1
570 339 m 0
 570 327 556 313 545 301 c 0
 534 290 520 276 507 276 c 0
 494 276 480 290 469 301 c 0
 458 313 444 327 444 339 c 0
 444 352 458 366 469 377 c 0
 480 388 494 402 507 402 c 0
 520 402 534 388 545 377 c 0
 556 366 570 352 570 339 c 0
406 689 m 1
 471 672 l 1
 425 500 l 1
 542 548 l 1
 570 480 l 1
 401 411 l 1
 367 282 l 1
 570 199 l 1
 542 130 l 1
 347 209 l 1
 309 67 l 1
 570 67 l 1
 570 -7 l 1
 289 -7 l 1
 254 -139 l 1
 189 -122 l 1
 220 -7 l 1
 90 -7 l 1
 90 67 l 1
 240 67 l 1
 284 235 l 1
 90 314 l 1
 90 364 l 1
 347 469 l 1
 406 689 l 1
EndSplineSet
EndChar

StartChar: sym026_uni0338
Encoding: 203 -1 203
Width: 660
Flags: W
HStem: -7 74<90 220 309 570> 276 126<118.17 187.83> 528 20G<109.765 167.13>
VStem: 90 126<304.424 373.83>
LayerCount: 2
Back
Fore
SplineSet
387 359 m 1
 375 315 l 1
 435 339 l 1
 387 359 l 1
216 339 m 0
 216 327 202 313 191 301 c 0
 180 290 166 276 153 276 c 0
 140 276 126 290 115 301 c 0
 104 313 90 327 90 339 c 0
 90 352 104 366 115 377 c 0
 126 388 140 402 153 402 c 0
 166 402 180 388 191 377 c 0
 202 366 216 352 216 339 c 0
406 689 m 1
 471 672 l 1
 406 431 l 1
 570 364 l 1
 570 314 l 1
 351 225 l 1
 309 67 l 1
 570 67 l 1
 570 -7 l 1
 289 -7 l 1
 254 -139 l 1
 189 -122 l 1
 220 -7 l 1
 90 -7 l 1
 90 67 l 1
 240 67 l 1
 273 193 l 1
 118 130 l 1
 90 199 l 1
 297 283 l 1
 324 384 l 1
 90 480 l 1
 118 548 l 1
 344 456 l 1
 406 689 l 1
EndSplineSet
EndChar

StartChar: uni2A7F0338
Encoding: 204 -1 204
Width: 660
Flags: W
HStem: 308 126<472.17 541.83>
VStem: 444 126<336.424 405.83>
LayerCount: 2
Back
Fore
SplineSet
312 336 m 1
 333 415 l 1
 225 371 l 1
 312 336 l 1
570 371 m 0
 570 359 556 345 545 333 c 0
 534 322 520 308 507 308 c 0
 494 308 480 322 469 333 c 0
 458 345 444 359 444 371 c 0
 444 384 458 398 469 409 c 0
 480 420 494 434 507 434 c 0
 520 434 534 420 545 409 c 0
 556 398 570 384 570 371 c 0
406 689 m 1
 471 672 l 1
 435 536 l 1
 542 580 l 1
 570 512 l 1
 411 447 l 1
 374 310 l 1
 570 231 l 1
 542 162 l 1
 355 238 l 1
 328 137 l 1
 570 38 l 1
 542 -30 l 1
 309 65 l 1
 254 -139 l 1
 189 -122 l 1
 246 91 l 1
 90 154 l 1
 118 222 l 1
 265 162 l 1
 292 264 l 1
 90 346 l 1
 90 396 l 1
 357 505 l 1
 406 689 l 1
EndSplineSet
EndChar

StartChar: uni2A800338
Encoding: 205 -1 205
Width: 660
Flags: W
HStem: 308 126<118.17 187.83>
VStem: 90 126<336.424 405.83>
LayerCount: 2
Back
Fore
SplineSet
395 387 m 1
 385 351 l 1
 435 371 l 1
 395 387 l 1
216 371 m 0
 216 359 202 345 191 333 c 0
 180 322 166 308 153 308 c 0
 140 308 126 322 115 333 c 0
 104 345 90 359 90 371 c 0
 90 384 104 398 115 409 c 0
 126 420 140 434 153 434 c 0
 166 434 180 420 191 409 c 0
 202 398 216 384 216 371 c 0
406 689 m 1
 471 672 l 1
 414 459 l 1
 570 396 l 1
 570 346 l 1
 361 261 l 1
 327 135 l 1
 542 222 l 1
 570 154 l 1
 303 45 l 1
 254 -139 l 1
 189 -122 l 1
 225 14 l 1
 118 -30 l 1
 90 38 l 1
 249 103 l 1
 283 229 l 1
 118 162 l 1
 90 231 l 1
 307 319 l 1
 332 413 l 1
 90 512 l 1
 118 580 l 1
 351 485 l 1
 406 689 l 1
EndSplineSet
EndChar

StartChar: uni2A950338
Encoding: 206 60772 206
Width: 660
Flags: W
LayerCount: 2
Back
Fore
SplineSet
265 163 m 1
 275 199 l 1
 225 179 l 1
 265 163 l 1
406 689 m 1
 471 672 l 1
 435 536 l 1
 542 580 l 1
 570 512 l 1
 411 447 l 1
 377 321 l 1
 542 388 l 1
 570 319 l 1
 353 231 l 1
 328 137 l 1
 570 38 l 1
 542 -30 l 1
 309 65 l 1
 254 -139 l 1
 189 -122 l 1
 246 91 l 1
 90 154 l 1
 90 204 l 1
 299 289 l 1
 333 415 l 1
 118 328 l 1
 90 396 l 1
 357 505 l 1
 406 689 l 1
EndSplineSet
EndChar

StartChar: uni2A960338
Encoding: 207 60773 207
Width: 660
Flags: W
LayerCount: 2
Back
Fore
SplineSet
348 214 m 1
 327 135 l 1
 435 179 l 1
 348 214 l 1
406 689 m 1
 471 672 l 1
 414 459 l 1
 570 396 l 1
 542 328 l 1
 395 388 l 1
 368 286 l 1
 570 204 l 1
 570 154 l 1
 303 45 l 1
 254 -139 l 1
 189 -122 l 1
 225 14 l 1
 118 -30 l 1
 90 38 l 1
 249 103 l 1
 286 240 l 1
 90 319 l 1
 118 388 l 1
 305 312 l 1
 332 413 l 1
 90 512 l 1
 118 580 l 1
 351 485 l 1
 406 689 l 1
EndSplineSet
EndChar

StartChar: uni22DE0338
Encoding: 208 60796 208
Width: 660
Flags: W
HStem: 142 74<90 253.031> 334 74<90 274.153>
LayerCount: 2
Back
Fore
SplineSet
406 689 m 1
 471 672 l 1
 436 543 l 1
 447 554 458 564 469 575 c 1
 522 525 l 1
 485 488 445 452 404 422 c 1
 364 271 l 1
 420 299 472 337 516 384 c 1
 570 334 l 1
 505 265 426 212 339 180 c 1
 339 178 l 1
 426 146 505 93 570 24 c 1
 516 -27 l 1
 461 32 394 77 320 106 c 1
 254 -139 l 1
 189 -122 l 1
 255 126 l 1
 213 136 171 142 127 142 c 2
 90 142 l 1
 90 216 l 1
 127 216 l 2
 181 216 235 224 286 240 c 1
 321 371 l 1
 272 348 220 334 164 334 c 2
 90 334 l 1
 90 408 l 1
 164 408 l 2
 232 408 292 432 347 469 c 1
 406 689 l 1
EndSplineSet
EndChar

StartChar: uni22DF0338
Encoding: 209 60797 209
Width: 660
Flags: W
HStem: 142 74<385.002 570> 334 74<405.361 570> 352 71<404 568.844>
LayerCount: 2
Back
Fore
SplineSet
406 689 m 1xc0
 471 672 l 1
 404 423 l 1xa0
 433 413 464 408 496 408 c 2
 570 408 l 1
 570 334 l 1
 496 334 l 2xc0
 457 334 420 340 385 352 c 1xa0
 357 246 l 1
 413 226 473 216 533 216 c 2
 570 216 l 1
 570 142 l 1
 533 142 l 2
 458 142 384 126 317 96 c 1
 254 -139 l 1
 189 -122 l 1
 235 51 l 1
 202 29 172 3 144 -27 c 1
 90 24 l 1
 140 77 198 120 262 152 c 1
 275 199 l 1
 206 231 143 277 90 334 c 1
 144 384 l 1
 188 338 239 300 295 272 c 1
 323 379 l 1
 256 415 195 468 138 525 c 1
 191 575 l 1
 238 527 287 482 342 451 c 1
 406 689 l 1xc0
EndSplineSet
EndChar

StartChar: uni2246
Encoding: 210 8774 210
Width: 660
Flags: W
HStem: 46 74<90 266 355 570> 238 74<90 318 407 570> 382 74<377.797 491.499> 479 74<168.501 282.203>
LayerCount: 2
Back
Fore
SplineSet
134 424 m 1
 90 467 l 1
 129 506 167 553 222 553 c 0
 272 553 316 528 354 496 c 0
 378 475 406 456 438 456 c 0
 474 456 501 485 526 511 c 1
 570 467 l 1
 531 429 493 382 438 382 c 0
 388 382 344 407 306 439 c 0
 282 460 254 479 222 479 c 0
 186 479 159 450 134 424 c 1
352 364 m 1
 416 347 l 1
 407 312 l 1
 570 312 l 1
 570 238 l 1
 387 238 l 1
 355 120 l 1
 570 120 l 1
 570 46 l 1
 335 46 l 1
 308 -55 l 1
 244 -37 l 1
 266 46 l 1
 90 46 l 1
 90 120 l 1
 286 120 l 1
 318 238 l 1
 90 238 l 1
 90 312 l 1
 338 312 l 1
 352 364 l 1
EndSplineSet
EndChar

StartChar: sym027
Encoding: 211 -1 211
Width: 660
Flags: W
HStem: 46 74<90 260 349 570> 238 74<90 311 400 570> 382 74<168.501 282.203> 479 74<377.797 491.499>
LayerCount: 2
Back
Fore
SplineSet
526 424 m 1
 501 450 474 479 438 479 c 0
 406 479 378 460 354 439 c 0
 316 407 272 382 222 382 c 0
 167 382 129 429 90 467 c 1
 134 511 l 1
 159 485 186 456 222 456 c 0
 254 456 282 475 306 496 c 0
 344 528 388 553 438 553 c 0
 493 553 531 506 570 467 c 1
 526 424 l 1
358 412 m 1
 422 395 l 1
 400 312 l 1
 570 312 l 1
 570 238 l 1
 380 238 l 1
 349 120 l 1
 570 120 l 1
 570 46 l 1
 329 46 l 1
 302 -55 l 1
 238 -37 l 1
 260 46 l 1
 90 46 l 1
 90 120 l 1
 280 120 l 1
 311 238 l 1
 90 238 l 1
 90 312 l 1
 331 312 l 1
 358 412 l 1
EndSplineSet
EndChar

StartChar: uni2A87
Encoding: 212 10887 212
Width: 660
Flags: W
HStem: -7 74<90 285 375 570> 528 20G<492.87 550.235>
LayerCount: 2
Back
Fore
SplineSet
542 548 m 1
 570 480 l 1
 225 339 l 1
 570 199 l 1
 542 130 l 1
 90 314 l 1
 90 364 l 1
 542 548 l 1
332 167 m 1
 397 150 l 1
 375 67 l 1
 570 67 l 1
 570 -7 l 1
 355 -7 l 1
 328 -107 l 1
 263 -89 l 1
 285 -7 l 1
 90 -7 l 1
 90 67 l 1
 305 67 l 1
 332 167 l 1
EndSplineSet
EndChar

StartChar: uni2A88
Encoding: 213 10888 213
Width: 660
Flags: W
HStem: -7 74<90 285 375 570> 528 20G<109.765 167.13>
LayerCount: 2
Back
Fore
SplineSet
118 130 m 1
 90 199 l 1
 435 339 l 1
 90 480 l 1
 118 548 l 1
 570 364 l 1
 570 314 l 1
 118 130 l 1
332 167 m 1
 397 150 l 1
 375 67 l 1
 570 67 l 1
 570 -7 l 1
 355 -7 l 1
 328 -107 l 1
 263 -89 l 1
 285 -7 l 1
 90 -7 l 1
 90 67 l 1
 305 67 l 1
 332 167 l 1
EndSplineSet
EndChar

StartChar: uni2268
Encoding: 214 8808 214
Width: 660
Flags: W
HStem: -103 74<90 260 349 570> 90 74<90 312 400 570>
LayerCount: 2
Back
Fore
SplineSet
542 644 m 1
 570 576 l 1
 225 435 l 1
 570 295 l 1
 542 226 l 1
 90 411 l 1
 90 460 l 1
 542 644 l 1
358 264 m 1
 422 246 l 1
 400 164 l 1
 570 164 l 1
 570 90 l 1
 380 90 l 1
 349 -29 l 1
 570 -29 l 1
 570 -103 l 1
 329 -103 l 1
 302 -203 l 1
 238 -186 l 1
 260 -103 l 1
 90 -103 l 1
 90 -29 l 1
 280 -29 l 1
 312 90 l 1
 90 90 l 1
 90 164 l 1
 331 164 l 1
 358 264 l 1
EndSplineSet
EndChar

StartChar: uni2269
Encoding: 215 8809 215
Width: 660
Flags: W
HStem: -103 74<90 260 349 570> 90 74<90 312 400 570>
LayerCount: 2
Back
Fore
SplineSet
118 226 m 1
 90 295 l 1
 435 435 l 1
 90 576 l 1
 118 644 l 1
 570 460 l 1
 570 411 l 1
 118 226 l 1
358 264 m 1
 422 246 l 1
 400 164 l 1
 570 164 l 1
 570 90 l 1
 380 90 l 1
 349 -29 l 1
 570 -29 l 1
 570 -103 l 1
 329 -103 l 1
 302 -203 l 1
 238 -186 l 1
 260 -103 l 1
 90 -103 l 1
 90 -29 l 1
 280 -29 l 1
 312 90 l 1
 90 90 l 1
 90 164 l 1
 331 164 l 1
 358 264 l 1
EndSplineSet
EndChar

StartChar: uni22E6
Encoding: 216 8934 216
Width: 660
Flags: W
HStem: -39 74<377.767 491.499> 58 74<168.501 282.233>
LayerCount: 2
Back
Fore
SplineSet
542 580 m 1
 570 512 l 1
 225 371 l 1
 570 231 l 1
 542 162 l 1
 90 346 l 1
 90 396 l 1
 542 580 l 1
332 183 m 1
 397 166 l 1
 369 63 l 1
 389 48 413 35 438 35 c 0
 474 35 501 64 526 90 c 1
 570 46 l 1
 531 7 493 -39 438 -39 c 0
 406 -39 376 -29 349 -13 c 1
 328 -91 l 1
 263 -73 l 1
 291 30 l 1
 271 46 247 58 222 58 c 0
 186 58 159 29 134 3 c 1
 90 46 l 1
 129 85 167 132 222 132 c 0
 254 132 284 121 311 105 c 1
 332 183 l 1
EndSplineSet
EndChar

StartChar: uni22E7
Encoding: 217 8935 217
Width: 660
Flags: W
HStem: -39 74<377.767 491.499> 58 74<168.501 282.233>
LayerCount: 2
Back
Fore
SplineSet
118 162 m 1
 90 231 l 1
 435 371 l 1
 90 512 l 1
 118 580 l 1
 570 396 l 1
 570 346 l 1
 118 162 l 1
332 183 m 1
 397 166 l 1
 369 63 l 1
 389 48 413 35 438 35 c 0
 474 35 501 64 526 90 c 1
 570 46 l 1
 531 7 493 -39 438 -39 c 0
 406 -39 376 -29 349 -13 c 1
 328 -91 l 1
 263 -73 l 1
 291 30 l 1
 271 46 247 58 222 58 c 0
 186 58 159 29 134 3 c 1
 90 46 l 1
 129 85 167 132 222 132 c 0
 254 132 284 121 311 105 c 1
 332 183 l 1
EndSplineSet
EndChar

StartChar: uni2A89
Encoding: 218 10889 218
Width: 660
Flags: W
HStem: -135 74<377.427 491.499> -39 74<168.501 268.643> -26 20G<513.5 546> 58 74<391.357 491.499> 154 74<168.501 280.825>
LayerCount: 2
Back
Fore
SplineSet
542 677 m 1x98
 570 608 l 1
 225 467 l 1
 570 327 l 1
 542 258 l 1
 90 443 l 1
 90 492 l 1
 542 677 l 1x98
312 109 m 1
 285 130 258 154 222 154 c 0
 186 154 159 125 134 99 c 1
 90 143 l 1
 129 182 167 228 222 228 c 0
 263 228 300 211 333 187 c 1
 358 280 l 1
 422 262 l 1
 391 145 l 1
 406 137 421 132 438 132 c 0
 474 132 501 160 526 186 c 1
 570 143 l 1
 531 104 493 58 438 58 c 0
 414 58 392 64 371 73 c 1
 348 -17 l 1
 374 -38 402 -61 438 -61 c 0
 474 -61 501 -32 526 -6 c 1xb8
 570 -50 l 1
 531 -89 493 -135 438 -135 c 0
 397 -135 360 -118 327 -94 c 1
 302 -187 l 1
 238 -170 l 1
 269 -52 l 1
 254 -44 239 -39 222 -39 c 0
 186 -39 159 -68 134 -93 c 1
 90 -50 l 1
 129 -11 167 35 222 35 c 0xd8
 246 35 268 29 289 20 c 1
 312 109 l 1
EndSplineSet
EndChar

StartChar: uni2A8A
Encoding: 219 10890 219
Width: 660
Flags: W
HStem: -135 74<377.427 491.499> -39 74<168.501 268.643> -26 20G<513.5 546> 58 74<391.357 491.499> 154 74<168.501 280.825>
LayerCount: 2
Back
Fore
SplineSet
118 258 m 1x98
 90 327 l 1
 435 467 l 1
 90 608 l 1
 118 677 l 1
 570 492 l 1
 570 443 l 1
 118 258 l 1x98
312 109 m 1
 285 130 258 154 222 154 c 0
 186 154 159 125 134 99 c 1
 90 143 l 1
 129 182 167 228 222 228 c 0
 263 228 300 211 333 187 c 1
 358 280 l 1
 422 262 l 1
 391 145 l 1
 406 137 421 132 438 132 c 0
 474 132 501 160 526 186 c 1
 570 143 l 1
 531 104 493 58 438 58 c 0
 414 58 392 64 371 73 c 1
 348 -17 l 1
 374 -38 402 -61 438 -61 c 0
 474 -61 501 -32 526 -6 c 1xb8
 570 -50 l 1
 531 -89 493 -135 438 -135 c 0
 397 -135 360 -118 327 -94 c 1
 302 -187 l 1
 238 -170 l 1
 269 -52 l 1
 254 -44 239 -39 222 -39 c 0
 186 -39 159 -68 134 -93 c 1
 90 -50 l 1
 129 -11 167 35 222 35 c 0xd8
 246 35 268 29 289 20 c 1
 312 109 l 1
EndSplineSet
EndChar

StartChar: uni22E4
Encoding: 220 8932 220
Width: 660
Flags: W
HStem: -39 74<90 260 348 570> 154 74<164 312 400 570> 515 74<164 570>
VStem: 90 74<228 515>
LayerCount: 2
Back
Fore
SplineSet
358 328 m 1
 422 311 l 1
 400 228 l 1
 570 228 l 1
 570 154 l 1
 380 154 l 1
 348 35 l 1
 570 35 l 1
 570 -39 l 1
 329 -39 l 1
 302 -139 l 1
 238 -122 l 1
 260 -39 l 1
 90 -39 l 1
 90 35 l 1
 280 35 l 1
 312 154 l 1
 90 154 l 1
 90 589 l 1
 570 589 l 1
 570 515 l 1
 164 515 l 1
 164 228 l 1
 331 228 l 1
 358 328 l 1
EndSplineSet
EndChar

StartChar: uni22E5
Encoding: 221 8933 221
Width: 660
Flags: W
HStem: -39 74<90 260 348 570> 154 74<90 312 400 496> 515 74<90 496>
VStem: 496 74<228 515>
LayerCount: 2
Back
Fore
SplineSet
358 328 m 1
 422 311 l 1
 400 228 l 1
 496 228 l 1
 496 515 l 1
 90 515 l 1
 90 589 l 1
 570 589 l 1
 570 154 l 1
 380 154 l 1
 348 35 l 1
 570 35 l 1
 570 -39 l 1
 329 -39 l 1
 302 -139 l 1
 238 -122 l 1
 260 -39 l 1
 90 -39 l 1
 90 35 l 1
 280 35 l 1
 312 154 l 1
 90 154 l 1
 90 228 l 1
 331 228 l 1
 358 328 l 1
EndSplineSet
EndChar

StartChar: sym028
Encoding: 222 -1 222
Width: 660
Flags: W
HStem: -135 74<90 260 349 570> 58 74<90 312 400 570> 250 74<164 570> 611 74<164 570>
VStem: 90 74<324 611>
LayerCount: 2
Back
Fore
SplineSet
164 324 m 1
 570 324 l 1
 570 250 l 1
 90 250 l 1
 90 685 l 1
 570 685 l 1
 570 611 l 1
 164 611 l 1
 164 324 l 1
358 232 m 1
 422 214 l 1
 400 132 l 1
 570 132 l 1
 570 58 l 1
 380 58 l 1
 349 -61 l 1
 570 -61 l 1
 570 -135 l 1
 329 -135 l 1
 302 -235 l 1
 238 -218 l 1
 260 -135 l 1
 90 -135 l 1
 90 -61 l 1
 280 -61 l 1
 312 58 l 1
 90 58 l 1
 90 132 l 1
 331 132 l 1
 358 232 l 1
EndSplineSet
EndChar

StartChar: sym029
Encoding: 223 -1 223
Width: 660
Flags: W
HStem: -135 74<90 260 349 570> 58 74<90 312 400 570> 250 74<90 496> 611 74<90 496>
VStem: 496 74<324 611>
LayerCount: 2
Back
Fore
SplineSet
496 324 m 1
 496 611 l 1
 90 611 l 1
 90 685 l 1
 570 685 l 1
 570 250 l 1
 90 250 l 1
 90 324 l 1
 496 324 l 1
358 232 m 1
 422 214 l 1
 400 132 l 1
 570 132 l 1
 570 58 l 1
 380 58 l 1
 349 -61 l 1
 570 -61 l 1
 570 -135 l 1
 329 -135 l 1
 302 -235 l 1
 238 -218 l 1
 260 -135 l 1
 90 -135 l 1
 90 -61 l 1
 280 -61 l 1
 312 58 l 1
 90 58 l 1
 90 132 l 1
 331 132 l 1
 358 232 l 1
EndSplineSet
EndChar

StartChar: uni228A
Encoding: 224 8842 224
Width: 660
Flags: W
HStem: -39 74<90 260 348 570> 154 74<217.451 312 400 570> 515 74<217.451 570>
VStem: 90 74<284.514 455.572>
LayerCount: 2
Back
Fore
SplineSet
358 328 m 1
 422 311 l 1
 400 228 l 1
 570 228 l 1
 570 154 l 1
 380 154 l 1
 348 35 l 1
 570 35 l 1
 570 -39 l 1
 329 -39 l 1
 302 -139 l 1
 238 -122 l 1
 260 -39 l 1
 90 -39 l 1
 90 35 l 1
 280 35 l 1
 312 154 l 1
 275 154 l 2
 166 154 90 257 90 371 c 0
 90 486 166 589 275 589 c 2
 570 589 l 1
 570 515 l 1
 275 515 l 2
 207 515 164 445 164 371 c 0
 164 297 207 228 275 228 c 2
 331 228 l 1
 358 328 l 1
EndSplineSet
EndChar

StartChar: uni228B
Encoding: 225 8843 225
Width: 660
Flags: W
HStem: -39 74<90 260 348 570> 154 74<90 312 400 442.549> 515 74<90 442.549>
VStem: 496 74<287.171 455.572>
LayerCount: 2
Back
Fore
SplineSet
358 328 m 1
 422 311 l 1
 400 229 l 1
 459 238 496 303 496 371 c 0
 496 445 453 515 385 515 c 2
 90 515 l 1
 90 589 l 1
 385 589 l 2
 494 589 570 486 570 371 c 0
 570 257 494 154 385 154 c 2
 380 154 l 1
 348 35 l 1
 570 35 l 1
 570 -39 l 1
 329 -39 l 1
 302 -139 l 1
 238 -122 l 1
 260 -39 l 1
 90 -39 l 1
 90 35 l 1
 280 35 l 1
 312 154 l 1
 90 154 l 1
 90 228 l 1
 331 228 l 1
 358 328 l 1
EndSplineSet
EndChar

StartChar: uni2ACB
Encoding: 226 10955 226
Width: 660
Flags: W
HStem: -135 74<90 260 349 570> 58 74<90 312 400 570> 250 74<217.451 570> 611 74<217.451 570>
VStem: 90 74<383.121 551.572>
LayerCount: 2
Back
Fore
SplineSet
570 611 m 1
 275 611 l 2
 207 611 164 541 164 467 c 0
 164 394 207 324 275 324 c 2
 570 324 l 1
 570 250 l 1
 275 250 l 2
 166 250 90 353 90 467 c 0
 90 582 166 685 275 685 c 2
 570 685 l 1
 570 611 l 1
358 232 m 1
 422 214 l 1
 400 132 l 1
 570 132 l 1
 570 58 l 1
 380 58 l 1
 349 -61 l 1
 570 -61 l 1
 570 -135 l 1
 329 -135 l 1
 302 -235 l 1
 238 -218 l 1
 260 -135 l 1
 90 -135 l 1
 90 -61 l 1
 280 -61 l 1
 312 58 l 1
 90 58 l 1
 90 132 l 1
 331 132 l 1
 358 232 l 1
EndSplineSet
EndChar

StartChar: uni2ACC
Encoding: 227 10956 227
Width: 660
Flags: W
HStem: -135 74<90 260 349 570> 58 74<90 312 400 570> 250 74<90 442.549> 611 74<90 442.549>
VStem: 496 74<383.121 551.572>
LayerCount: 2
Back
Fore
SplineSet
90 324 m 1
 385 324 l 2
 453 324 496 394 496 467 c 0
 496 541 453 611 385 611 c 2
 90 611 l 1
 90 685 l 1
 385 685 l 2
 494 685 570 582 570 467 c 0
 570 353 494 250 385 250 c 2
 90 250 l 1
 90 324 l 1
358 232 m 1
 422 214 l 1
 400 132 l 1
 570 132 l 1
 570 58 l 1
 380 58 l 1
 349 -61 l 1
 570 -61 l 1
 570 -135 l 1
 329 -135 l 1
 302 -235 l 1
 238 -218 l 1
 260 -135 l 1
 90 -135 l 1
 90 -61 l 1
 280 -61 l 1
 312 58 l 1
 90 58 l 1
 90 132 l 1
 331 132 l 1
 358 232 l 1
EndSplineSet
EndChar

StartChar: uni2AB1
Encoding: 228 10929 228
Width: 660
Flags: W
HStem: -7 74<90 285 375 570> 302 74<90 275.086> 525 20G<465.5 537.176>
LayerCount: 2
Back
Fore
SplineSet
336 339 m 1
 424 307 504 254 570 184 c 1
 516 133 l 1
 415 241 274 302 127 302 c 2
 90 302 l 1
 90 376 l 1
 127 376 l 2
 274 376 415 437 516 545 c 1
 570 494 l 1
 504 424 424 371 336 339 c 1
332 167 m 1
 397 150 l 1
 375 67 l 1
 570 67 l 1
 570 -7 l 1
 355 -7 l 1
 328 -107 l 1
 263 -89 l 1
 285 -7 l 1
 90 -7 l 1
 90 67 l 1
 305 67 l 1
 332 167 l 1
EndSplineSet
EndChar

StartChar: uni2AB2
Encoding: 229 10930 229
Width: 660
Flags: W
HStem: -7 74<90 285 375 570> 302 74<384.914 570> 525 20G<122.824 194.5>
LayerCount: 2
Back
Fore
SplineSet
324 339 m 1
 236 371 156 424 90 494 c 1
 144 545 l 1
 245 437 386 376 533 376 c 2
 570 376 l 1
 570 302 l 1
 533 302 l 2
 386 302 245 241 144 133 c 1
 90 184 l 1
 156 254 236 307 324 339 c 1
332 167 m 1
 397 150 l 1
 375 67 l 1
 570 67 l 1
 570 -7 l 1
 355 -7 l 1
 328 -107 l 1
 263 -89 l 1
 285 -7 l 1
 90 -7 l 1
 90 67 l 1
 305 67 l 1
 332 167 l 1
EndSplineSet
EndChar

StartChar: uni2AB5
Encoding: 230 10933 230
Width: 660
Flags: W
HStem: -103 74<90 260 349 570> 90 74<90 312 400 570> 398 74<90 275.086>
LayerCount: 2
Back
Fore
SplineSet
336 435 m 1
 424 403 504 350 570 280 c 1
 516 230 l 1
 415 338 274 398 127 398 c 2
 90 398 l 1
 90 472 l 1
 127 472 l 2
 274 472 415 533 516 641 c 1
 570 591 l 1
 504 521 424 467 336 435 c 1
358 264 m 1
 422 246 l 1
 400 164 l 1
 570 164 l 1
 570 90 l 1
 380 90 l 1
 349 -29 l 1
 570 -29 l 1
 570 -103 l 1
 329 -103 l 1
 302 -203 l 1
 238 -186 l 1
 260 -103 l 1
 90 -103 l 1
 90 -29 l 1
 280 -29 l 1
 312 90 l 1
 90 90 l 1
 90 164 l 1
 331 164 l 1
 358 264 l 1
EndSplineSet
EndChar

StartChar: uni2AB6
Encoding: 231 10934 231
Width: 660
Flags: W
HStem: -103 74<90 260 349 570> 90 74<90 312 400 570> 398 74<384.914 570>
LayerCount: 2
Back
Fore
SplineSet
324 435 m 1
 236 467 156 521 90 591 c 1
 144 641 l 1
 245 533 386 472 533 472 c 2
 570 472 l 1
 570 398 l 1
 533 398 l 2
 386 398 245 338 144 230 c 1
 90 280 l 1
 156 350 236 403 324 435 c 1
358 264 m 1
 422 246 l 1
 400 164 l 1
 570 164 l 1
 570 90 l 1
 380 90 l 1
 349 -29 l 1
 570 -29 l 1
 570 -103 l 1
 329 -103 l 1
 302 -203 l 1
 238 -186 l 1
 260 -103 l 1
 90 -103 l 1
 90 -29 l 1
 280 -29 l 1
 312 90 l 1
 90 90 l 1
 90 164 l 1
 331 164 l 1
 358 264 l 1
EndSplineSet
EndChar

StartChar: uni22E8
Encoding: 232 8936 232
Width: 660
Flags: W
HStem: -39 74<377.767 491.499> 58 74<168.501 282.233> 334 74<90 275.086>
LayerCount: 2
Back
Fore
SplineSet
336 371 m 1
 424 339 504 286 570 216 c 1
 516 166 l 1
 415 273 274 334 127 334 c 2
 90 334 l 1
 90 408 l 1
 127 408 l 2
 274 408 415 469 516 577 c 1
 570 526 l 1
 504 456 424 403 336 371 c 1
332 183 m 1
 397 166 l 1
 369 63 l 1
 389 48 413 35 438 35 c 0
 474 35 501 64 526 90 c 1
 570 46 l 1
 531 7 493 -39 438 -39 c 0
 406 -39 376 -29 349 -13 c 1
 328 -91 l 1
 263 -73 l 1
 291 30 l 1
 271 46 247 58 222 58 c 0
 186 58 159 29 134 3 c 1
 90 46 l 1
 129 85 167 132 222 132 c 0
 254 132 284 121 311 105 c 1
 332 183 l 1
EndSplineSet
EndChar

StartChar: uni22E9
Encoding: 233 8937 233
Width: 660
Flags: W
HStem: -39 74<377.767 491.499> 58 74<168.501 282.233> 334 74<384.914 570>
LayerCount: 2
Back
Fore
SplineSet
324 371 m 1
 236 403 156 456 90 526 c 1
 144 577 l 1
 245 469 386 408 533 408 c 2
 570 408 l 1
 570 334 l 1
 533 334 l 2
 386 334 245 273 144 166 c 1
 90 216 l 1
 156 286 236 339 324 371 c 1
332 183 m 1
 397 166 l 1
 369 63 l 1
 389 48 413 35 438 35 c 0
 474 35 501 64 526 90 c 1
 570 46 l 1
 531 7 493 -39 438 -39 c 0
 406 -39 376 -29 349 -13 c 1
 328 -91 l 1
 263 -73 l 1
 291 30 l 1
 271 46 247 58 222 58 c 0
 186 58 159 29 134 3 c 1
 90 46 l 1
 129 85 167 132 222 132 c 0
 254 132 284 121 311 105 c 1
 332 183 l 1
EndSplineSet
EndChar

StartChar: uni2AB9
Encoding: 234 10937 234
Width: 660
Flags: W
HStem: -135 74<377.427 491.499> -39 74<168.501 268.643> -26 20G<513.5 546> 58 74<391.357 491.499> 154 74<168.501 280.825> 430 74<90 275.086>
LayerCount: 2
Back
Fore
SplineSet
336 467 m 1x9c
 424 435 504 382 570 312 c 1
 516 262 l 1
 415 370 274 430 127 430 c 2
 90 430 l 1
 90 504 l 1
 127 504 l 2
 274 504 415 565 516 673 c 1
 570 623 l 1
 504 553 424 499 336 467 c 1x9c
312 109 m 1
 285 130 258 154 222 154 c 0
 186 154 159 125 134 99 c 1
 90 143 l 1
 129 182 167 228 222 228 c 0
 263 228 300 211 333 187 c 1
 358 280 l 1
 422 262 l 1
 391 145 l 1
 406 137 421 132 438 132 c 0
 474 132 501 160 526 186 c 1
 570 143 l 1
 531 104 493 58 438 58 c 0
 414 58 392 64 371 73 c 1
 348 -17 l 1
 374 -38 402 -61 438 -61 c 0
 474 -61 501 -32 526 -6 c 1xbc
 570 -50 l 1
 531 -89 493 -135 438 -135 c 0
 397 -135 360 -118 327 -94 c 1
 302 -187 l 1
 238 -170 l 1
 269 -52 l 1
 254 -44 239 -39 222 -39 c 0
 186 -39 159 -68 134 -93 c 1
 90 -50 l 1
 129 -11 167 35 222 35 c 0xdc
 246 35 268 29 289 20 c 1
 312 109 l 1
EndSplineSet
EndChar

StartChar: uni2ABA
Encoding: 235 10938 235
Width: 660
Flags: W
HStem: -135 74<377.427 491.499> -39 74<168.501 268.643> -26 20G<513.5 546> 58 74<391.357 491.499> 154 74<168.501 280.825> 430 74<384.914 570>
LayerCount: 2
Back
Fore
SplineSet
324 467 m 1x9c
 236 499 156 553 90 623 c 1
 144 673 l 1
 245 565 386 504 533 504 c 2
 570 504 l 1
 570 430 l 1
 533 430 l 2
 386 430 245 370 144 262 c 1
 90 312 l 1
 156 382 236 435 324 467 c 1x9c
312 109 m 1
 285 130 258 154 222 154 c 0
 186 154 159 125 134 99 c 1
 90 143 l 1
 129 182 167 228 222 228 c 0
 263 228 300 211 333 187 c 1
 358 280 l 1
 422 262 l 1
 391 145 l 1
 406 137 421 132 438 132 c 0
 474 132 501 160 526 186 c 1
 570 143 l 1
 531 104 493 58 438 58 c 0
 414 58 392 64 371 73 c 1
 348 -17 l 1
 374 -38 402 -61 438 -61 c 0
 474 -61 501 -32 526 -6 c 1xbc
 570 -50 l 1
 531 -89 493 -135 438 -135 c 0
 397 -135 360 -118 327 -94 c 1
 302 -187 l 1
 238 -170 l 1
 269 -52 l 1
 254 -44 239 -39 222 -39 c 0
 186 -39 159 -68 134 -93 c 1
 90 -50 l 1
 129 -11 167 35 222 35 c 0xdc
 246 35 268 29 289 20 c 1
 312 109 l 1
EndSplineSet
EndChar
